STARTFONT 2.1
FONT -FontForge-Arial-Book-R-Normal--90-860-75-75-P-459-ISO10646-1
SIZE 86 75 75
FONTBOUNDINGBOX 241 119 -61 -29
COMMENT "Generated by fontforge, http://fontforge.sourceforge.net"
COMMENT "(c) 2006 The Monotype Corporation. All Rights Reserved."
STARTPROPERTIES 40
FOUNDRY "FontForge"
FAMILY_NAME "Arial"
WEIGHT_NAME "Book"
SLANT "R"
SETWIDTH_NAME "Normal"
ADD_STYLE_NAME ""
PIXEL_SIZE 90
POINT_SIZE 860
RESOLUTION_X 75
RESOLUTION_Y 75
SPACING "P"
AVERAGE_WIDTH 459
CHARSET_REGISTRY "ISO10646"
CHARSET_ENCODING "1"
FONTNAME_REGISTRY ""
CHARSET_COLLECTIONS "ASCII ISOLatin1Encoding ISO8859-2 ISO8859-5 ISO8859-7 ISO8859-9 ISO8859-8 ISO8859-6 ISO8859-4 ISO10646-1"
FONT_NAME "ArialMT"
FACE_NAME "Arial"
COPYRIGHT "(c) 2006 The Monotype Corporation. All Rights Reserved."
FONT_VERSION "5.01.2x"
FONT_ASCENT 72
FONT_DESCENT 18
UNDERLINE_POSITION -13
UNDERLINE_THICKNESS 7
X_HEIGHT 46
CAP_HEIGHT 64
RAW_ASCENT 799
RAW_DESCENT 200
NORM_SPACE 25
RELATIVE_WEIGHT 40
RELATIVE_SETWIDTH 50
SUPERSCRIPT_X 0
SUPERSCRIPT_Y 42
SUPERSCRIPT_SIZE 58
SUBSCRIPT_X 0
SUBSCRIPT_Y 12
SUBSCRIPT_SIZE 58
FIGURE_WIDTH 50
AVG_LOWERCASE_WIDTH 457
AVG_UPPERCASE_WIDTH 641
ENDPROPERTIES
CHARS 3482
STARTCHAR space
ENCODING 32
SWIDTH 277 0
DWIDTH 25 0
BBX 1 1 0 0
BITMAP
00
ENDCHAR
STARTCHAR exclam
ENCODING 33
SWIDTH 277 0
DWIDTH 28 0
BBX 8 65 10 0
BITMAP
FF
FF
FF
FF
FF
FF
FF
FF
FF
FF
FF
FF
FF
FF
FF
FF
FF
FF
FF
FF
FF
FF
FF
FF
7E
7E
7E
7E
7E
7E
7E
7E
7E
7E
7E
7E
7E
7E
7E
7E
7E
3C
3C
3C
3C
3C
3C
3C
3C
3C
00
00
00
00
00
00
00
FF
FF
FF
FF
FF
FF
FF
FF
ENDCHAR
STARTCHAR quotedbl
ENCODING 34
SWIDTH 354 0
DWIDTH 32 0
BBX 24 23 4 42
BITMAP
FF00FF
FF00FF
FF00FF
FF00FF
FF00FF
FF00FF
FF00FF
FF00FF
FF00FF
FF00FF
FF00FF
FF00FF
FF00FF
FF00FF
7E007E
7E007E
7E007E
7E007E
7E007E
7E007E
3E003E
3C003C
3C003C
ENDCHAR
STARTCHAR numbersign
ENCODING 35
SWIDTH 556 0
DWIDTH 50 0
BBX 49 65 0 0
BITMAP
00003FC007F800
00003FC007F800
00007FC00FF000
00007F800FF000
00007F800FF000
00007F800FF000
00007F801FF000
0000FF801FE000
0000FF001FE000
0000FF001FE000
0000FF001FE000
0000FF003FE000
0001FE003FC000
0001FE003FC000
0001FE003FC000
0001FE003FC000
0003FE007F8000
FFFFFFFFFFFF80
FFFFFFFFFFFF80
FFFFFFFFFFFF80
FFFFFFFFFFFF80
FFFFFFFFFFFF80
FFFFFFFFFFFF80
FFFFFFFFFFFF80
FFFFFFFFFFFF80
000FF801FF0000
000FF001FE0000
000FF001FE0000
000FF001FE0000
000FF003FE0000
001FF003FC0000
001FE003FC0000
001FE003FC0000
001FE003FC0000
001FE007FC0000
003FE007F80000
003FC007F80000
003FC007F80000
003FC007F80000
007FC00FF80000
FFFFFFFFFFFF80
FFFFFFFFFFFF80
FFFFFFFFFFFF80
FFFFFFFFFFFF80
FFFFFFFFFFFF80
FFFFFFFFFFFF80
FFFFFFFFFFFF80
FFFFFFFFFFFF80
00FF003FE00000
01FE003FC00000
01FE003FC00000
01FE003FC00000
01FE003FC00000
03FE007F800000
03FC007F800000
03FC007F800000
03FC007F800000
03FC00FF800000
07FC00FF000000
07F800FF000000
07F800FF000000
07F800FF000000
07F801FF000000
0FF001FE000000
0FF001FE000000
ENDCHAR
STARTCHAR dollar
ENCODING 36
SWIDTH 556 0
DWIDTH 50 0
BBX 43 77 4 -9
BITMAP
00001F000000
00001F000000
00001F000000
0001FFE00000
000FFFFE0000
007FFFFF8000
00FFFFFFC000
03FFFFFFE000
07FFFFFFF000
0FFFFFFFF800
0FFFFFFFFC00
1FFF1FFFFE00
1FFC1F3FFE00
3FF01F07FF00
3FE01F03FF00
7FC01F01FF00
7FC01F00FF80
7F801F00FF80
7F801F007F80
7F801F007800
7F801F000000
7F801F000000
7F801F000000
7FC01F000000
3FC01F000000
3FE01F000000
3FF81F000000
1FFE1F000000
1FFF9F000000
0FFFFF000000
07FFFF000000
03FFFFF00000
00FFFFFF0000
007FFFFFC000
001FFFFFF000
0003FFFFF800
00007FFFFC00
00001FFFFE00
00001FFFFF00
00001F1FFF00
00001F07FF80
00001F01FFC0
00001F00FFC0
00001F007FC0
00001F003FE0
00001F003FE0
00001F001FE0
00001F001FE0
00001F001FE0
0F001F001FE0
FF001F001FE0
FF801F001FE0
FF801F003FE0
FF801F003FC0
7FC01F007FC0
7FC01F007FC0
7FE01F00FFC0
3FF81F01FF80
3FFC1F07FF80
1FFF1F1FFF00
1FFFFFFFFE00
0FFFFFFFFC00
07FFFFFFF800
03FFFFFFF000
01FFFFFFE000
00FFFFFF8000
003FFFFE0000
000FFFF00000
0000FF000000
00001F000000
00001F000000
00001F000000
00001F000000
00001F000000
00001F000000
00001F000000
00001F000000
ENDCHAR
STARTCHAR percent
ENCODING 37
SWIDTH 889 0
DWIDTH 80 0
BBX 69 67 5 -1
BITMAP
003FC0000000FF0000
01FFF0000000FE0000
03FFFC000001FE0000
07FFFE000001FC0000
0FFFFF000003FC0000
1FFFFF800003F80000
1FF0FF800007F80000
3FC03FC00007F00000
3F801FC0000FF00000
7F000FE0000FE00000
7F000FE0001FE00000
7F000FE0001FC00000
FE0007F0003FC00000
FE0007F0003F800000
FE0007F0007F800000
FE0007F000FF000000
FE0007F000FF000000
FE0007F001FE000000
FE0007F001FE000000
FE0007F003FC000000
FE0007F003FC000000
FE0007F007F8000000
FE0007F007F8000000
7F000FE00FF0000000
7F000FE00FF0000000
7F000FE01FE0000000
3F801FC01FE0000000
3FC03FC03FC0000000
3FF0FF803FC0000000
1FFFFF807F80000000
0FFFFF007F80000000
07FFFE00FF00000000
03FFFC00FE001FE000
00FFF001FE00FFF800
003F8001FC01FFFE00
00000003FC03FFFF00
00000003F807FFFF80
00000007F80FFFFFC0
00000007F00FF87FC0
0000000FF01FE01FE0
0000000FE01FC00FE0
0000001FE03F8007F0
0000001FC03F8007F0
0000003FC03F8007F0
0000003F807F0003F8
0000007F807F0003F8
0000007F007F0003F8
000000FF007F0003F8
000000FE007F0003F8
000001FE007F0003F8
000003FC007F0003F8
000003FC007F0003F8
000007F8007F0003F8
000007F8007F0003F8
00000FF0007F0003F8
00000FF0003F8007F0
00001FE0003F8007F0
00001FE0003F8007F0
00003FC0001FC00FE0
00003FC0001FE01FE0
00007F80001FF87FC0
00007F80000FFFFFC0
0000FF000007FFFF80
0000FF000003FFFF00
0001FE000001FFFE00
0001FE0000007FF800
0003FC0000001FC000
ENDCHAR
STARTCHAR ampersand
ENCODING 38
SWIDTH 666 0
DWIDTH 60 0
BBX 54 67 4 -1
BITMAP
00000FF0000000
00007FFE000000
0001FFFF800000
0003FFFFC00000
000FFFFFE00000
001FFFFFF00000
001FFFFFF80000
003FFFFFF80000
007FF83FFC0000
007FE00FFC0000
007FC007FE0000
00FF8003FE0000
00FF0001FE0000
00FF0001FE0000
00FF0001FE0000
00FF0001FE0000
00FF0001FE0000
00FF8001FE0000
007F8003FC0000
007FC003FC0000
007FC007F80000
003FE00FF80000
003FF01FF00000
001FF87FE00000
000FFCFFC00000
000FFFFF800000
0007FFFF000000
0003FFFE000000
0001FFF8000000
0003FFF0000000
000FFFC0000000
001FFFE0000000
007FFFF0000000
00FFFFF8000000
01FFEFFC000000
03FF8FFC000000
07FE07FE003000
0FFC03FF003F80
1FF801FF807FC0
3FF000FFC07F80
3FE000FFC0FF80
7FC0007FE0FF80
7F80003FF1FF80
7F80001FF9FF00
FF00000FFFFF00
FF00000FFFFE00
FF000007FFFE00
FF000003FFFC00
FF000001FFFC00
FF000000FFF800
FF800000FFF800
FF8000007FF000
7F8000003FF800
7FC000007FFC00
7FE00000FFFE00
3FF00003FFFF00
3FF80007FFFF80
1FFC001FFFFFC0
1FFF00FFFEFFE0
0FFFFFFFFCFFF0
07FFFFFFF87FFC
03FFFFFFF03FF8
01FFFFFFC01FF0
00FFFFFF800FE0
003FFFFE0007C0
000FFFF8000380
0001FF80000180
ENDCHAR
STARTCHAR quotesingle
ENCODING 39
SWIDTH 190 0
DWIDTH 17 0
BBX 8 23 4 42
BITMAP
FF
FF
FF
FF
FF
FF
FF
FF
FF
FF
FF
FF
FF
FF
7E
7E
7E
7E
7E
7E
7E
3C
3C
ENDCHAR
STARTCHAR parenleft
ENCODING 40
SWIDTH 333 0
DWIDTH 30 0
BBX 22 83 6 -18
BITMAP
0000FC
0001F8
0003F0
0007F0
0007E0
000FE0
001FC0
001F80
003F80
007F00
007F00
00FE00
00FE00
01FC00
01FC00
03F800
03F800
07F000
07F000
0FF000
0FE000
0FE000
1FE000
1FE000
1FC000
3FC000
3FC000
3F8000
7F8000
7F8000
7F8000
7F8000
7F8000
FF0000
FF0000
FF0000
FF0000
FF0000
FF0000
FF0000
FF0000
FF0000
FF0000
FF0000
FF0000
FF0000
FF0000
FF0000
FF0000
7F8000
7F8000
7F8000
7F8000
7F8000
7F8000
3FC000
3FC000
3FC000
1FC000
1FE000
1FE000
0FE000
0FF000
0FF000
07F000
07F800
03F800
03F800
01FC00
01FC00
00FE00
00FE00
007F00
007F00
003F80
001F80
001FC0
000FE0
0007E0
0007F0
0003F0
0001F8
0000FC
ENDCHAR
STARTCHAR parenright
ENCODING 41
SWIDTH 333 0
DWIDTH 30 0
BBX 22 83 2 -18
BITMAP
FC0000
7E0000
3F0000
3F8000
1F8000
1FC000
0FE000
07E000
07F000
03F800
03F800
01FC00
01FC00
00FE00
00FE00
007F00
007F00
007F80
003F80
003FC0
001FC0
001FC0
001FE0
001FE0
000FE0
000FF0
000FF0
000FF0
0007F8
0007F8
0007F8
0007F8
0007F8
0007F8
0003FC
0003FC
0003FC
0003FC
0003FC
0003FC
0003FC
0003FC
0003FC
0003FC
0003FC
0003FC
0003FC
0003FC
0003FC
0007F8
0007F8
0007F8
0007F8
0007F8
0007F0
000FF0
000FF0
000FF0
000FE0
001FE0
001FE0
001FC0
003FC0
003FC0
003F80
007F80
007F00
00FF00
00FE00
00FE00
01FC00
01FC00
03F800
03F800
07F000
07E000
0FE000
1FC000
1F8000
3F8000
3F0000
7E0000
FC0000
ENDCHAR
STARTCHAR asterisk
ENCODING 42
SWIDTH 389 0
DWIDTH 35 0
BBX 31 27 2 38
BITMAP
000FE000
000FE000
000FE000
000FE000
000FE000
000FE000
000FC000
3007C018
3E07C0F8
7FC7C7FC
7FF7DFFC
FFFFFFFC
FFFFFFFE
3FFFFFF8
01FFFF80
001FF000
003FF800
007FFC00
00FEFE00
01FCFF00
03FC7F80
07F83FC0
0FF03FE0
0FF01FE0
07E00FC0
01C00700
00C00600
ENDCHAR
STARTCHAR plus
ENCODING 43
SWIDTH 583 0
DWIDTH 53 0
BBX 44 44 5 9
BITMAP
00003FC00000
00003FC00000
00003FC00000
00003FC00000
00003FC00000
00003FC00000
00003FC00000
00003FC00000
00003FC00000
00003FC00000
00003FC00000
00003FC00000
00003FC00000
00003FC00000
00003FC00000
00003FC00000
00003FC00000
00003FC00000
FFFFFFFFFFF0
FFFFFFFFFFF0
FFFFFFFFFFF0
FFFFFFFFFFF0
FFFFFFFFFFF0
FFFFFFFFFFF0
FFFFFFFFFFF0
FFFFFFFFFFF0
00003FC00000
00003FC00000
00003FC00000
00003FC00000
00003FC00000
00003FC00000
00003FC00000
00003FC00000
00003FC00000
00003FC00000
00003FC00000
00003FC00000
00003FC00000
00003FC00000
00003FC00000
00003FC00000
00003FC00000
00003FC00000
ENDCHAR
STARTCHAR comma
ENCODING 44
SWIDTH 277 0
DWIDTH 25 0
BBX 8 21 8 -13
BITMAP
FF
FF
FF
FF
FF
FF
FF
FF
0F
0F
0F
0F
0F
1E
1E
3E
3C
7C
F8
70
20
ENDCHAR
STARTCHAR hyphen
ENCODING 45
SWIDTH 333 0
DWIDTH 30 0
BBX 25 8 2 19
BITMAP
FFFFFF80
FFFFFF80
FFFFFF80
FFFFFF80
FFFFFF80
FFFFFF80
FFFFFF80
FFFFFF80
ENDCHAR
STARTCHAR period
ENCODING 46
SWIDTH 277 0
DWIDTH 25 0
BBX 8 8 8 0
BITMAP
FF
FF
FF
FF
FF
FF
FF
FF
ENDCHAR
STARTCHAR slash
ENCODING 47
SWIDTH 277 0
DWIDTH 25 0
BBX 26 65 0 0
BITMAP
00001FC0
00001FC0
00003FC0
00003F80
00003F80
00007F80
00007F00
00007F00
0000FF00
0000FE00
0000FE00
0000FE00
0001FE00
0001FC00
0001FC00
0003FC00
0003F800
0003F800
0003F800
0007F800
0007F000
0007F000
000FF000
000FE000
000FE000
000FE000
001FE000
001FC000
001FC000
003FC000
003F8000
003F8000
007F8000
007F0000
007F0000
007F0000
00FF0000
00FE0000
00FE0000
01FE0000
01FC0000
01FC0000
01FC0000
03FC0000
03F80000
03F80000
07F80000
07F00000
07F00000
07F00000
0FF00000
0FE00000
0FE00000
1FE00000
1FC00000
1FC00000
3FC00000
3F800000
3F800000
3F800000
7F800000
7F000000
7F000000
FF000000
FE000000
ENDCHAR
STARTCHAR zero
ENCODING 48
SWIDTH 556 0
DWIDTH 50 0
BBX 42 66 4 -1
BITMAP
0000FFC00000
0007FFF80000
001FFFFE0000
007FFFFF8000
00FFFFFFC000
01FFFFFFE000
03FFFFFFF000
03FFFFFFF000
07FF80FFF800
0FFE001FFC00
0FFC000FFC00
1FF80007FC00
1FF00003FE00
1FE00001FE00
3FE00001FF00
3FC00000FF00
3FC00000FF00
7FC00000FF00
7F8000007F80
7F8000007F80
7F8000007F80
7F8000007F80
7F8000007F80
FF0000003FC0
FF0000003FC0
FF0000003FC0
FF0000003FC0
FF0000003FC0
FF0000003FC0
FF0000003FC0
FF0000003FC0
FF0000003FC0
FF0000003FC0
FF0000003FC0
FF0000003FC0
FF0000003FC0
FF0000003FC0
FF0000003FC0
FF0000003FC0
FF0000003FC0
FF0000003FC0
FF0000003FC0
FF0000003FC0
7F8000007F80
7F8000007F80
7F8000007F80
7F8000007F80
7F8000007F80
3FC00000FF00
3FC00000FF00
3FC00000FF00
3FE00001FF00
1FE00001FE00
1FF00003FE00
1FF80007FE00
0FFC000FFC00
0FFE001FFC00
07FFC0FFF800
07FFFFFFF000
03FFFFFFF000
01FFFFFFE000
00FFFFFFC000
007FFFFF8000
001FFFFE0000
0007FFF80000
0000FFC00000
ENDCHAR
STARTCHAR one
ENCODING 49
SWIDTH 556 0
DWIDTH 50 0
BBX 24 65 9 0
BITMAP
00001F
00003F
00007F
00007F
0000FF
0001FF
0003FF
0007FF
000FFF
001FFF
007FFF
00FFFF
01FFFF
07FFFF
1FFFFF
3FFEFF
FFF8FF
FFF0FF
FFE0FF
FF80FF
FE00FF
F800FF
E000FF
8000FF
0000FF
0000FF
0000FF
0000FF
0000FF
0000FF
0000FF
0000FF
0000FF
0000FF
0000FF
0000FF
0000FF
0000FF
0000FF
0000FF
0000FF
0000FF
0000FF
0000FF
0000FF
0000FF
0000FF
0000FF
0000FF
0000FF
0000FF
0000FF
0000FF
0000FF
0000FF
0000FF
0000FF
0000FF
0000FF
0000FF
0000FF
0000FF
0000FF
0000FF
0000FF
ENDCHAR
STARTCHAR two
ENCODING 50
SWIDTH 556 0
DWIDTH 50 0
BBX 42 65 3 0
BITMAP
0000FFE00000
000FFFFC0000
003FFFFF0000
007FFFFFC000
01FFFFFFE000
03FFFFFFF000
07FFFFFFF800
07FFFFFFFC00
0FFF807FFC00
1FFC000FFE00
1FF80007FE00
3FF00003FF00
3FE00001FF00
3FC00000FF00
3FC00000FF80
7FC000007F80
7F8000007F80
7F8000007F80
078000007F80
000000007F80
000000007F80
000000007F80
00000000FF80
00000000FF00
00000000FF00
00000001FF00
00000003FE00
00000003FE00
00000007FC00
0000000FFC00
0000001FF800
0000001FF800
0000003FF000
0000007FE000
000000FFC000
000003FF8000
000007FF0000
00000FFF0000
00001FFE0000
00003FF80000
00007FF00000
0000FFE00000
0003FFC00000
0007FF800000
000FFF000000
001FFE000000
003FFC000000
007FF0000000
00FFE0000000
01FFC0000000
03FF80000000
07FF00000000
07FE00000000
0FFC00000000
1FF800000000
1FF000000000
3FE000000000
3FFFFFFFFFC0
7FFFFFFFFFC0
7FFFFFFFFFC0
7FFFFFFFFFC0
FFFFFFFFFFC0
FFFFFFFFFFC0
FFFFFFFFFFC0
FFFFFFFFFFC0
ENDCHAR
STARTCHAR three
ENCODING 51
SWIDTH 556 0
DWIDTH 50 0
BBX 42 66 4 -1
BITMAP
0000FF800000
000FFFF00000
003FFFFC0000
007FFFFF0000
01FFFFFF8000
03FFFFFFE000
03FFFFFFE000
07FFFFFFF000
0FFF80FFF800
0FFC001FF800
1FF8000FFC00
1FF00007FC00
3FE00003FE00
3FC00003FE00
3FC00001FE00
7FC00001FE00
7F800001FE00
07800001FE00
00000001FE00
00000001FE00
00000003FC00
00000003FC00
00000007F800
0000001FF800
0000003FF000
000001FFE000
00007FFFC000
0000FFFF8000
0000FFFE0000
0000FFFF0000
0000FFFFC000
0000FFFFF000
0000FFFFF800
0000C07FFC00
0000000FFE00
00000007FF00
00000003FF00
00000001FF80
00000000FF80
000000007F80
000000007F80
000000007FC0
000000003FC0
000000003FC0
000000003FC0
000000003FC0
000000003FC0
0F0000003FC0
FF0000003FC0
FF8000007FC0
FF8000007F80
7FC00000FF80
7FC00000FF80
7FE00001FF00
3FE00003FF00
3FF80007FE00
1FFC001FFE00
1FFF807FFC00
0FFFFFFFF800
07FFFFFFF000
03FFFFFFE000
01FFFFFFC000
00FFFFFF8000
003FFFFE0000
000FFFF80000
0001FF800000
ENDCHAR
STARTCHAR four
ENCODING 52
SWIDTH 556 0
DWIDTH 50 0
BBX 45 64 1 0
BITMAP
00000001F800
00000003F800
00000007F800
0000000FF800
0000000FF800
0000001FF800
0000003FF800
0000007FF800
0000007FF800
000000FFF800
000001FFF800
000003FFF800
000003FFF800
000007FFF800
00000FFFF800
00001FFFF800
00001FF7F800
00003FF7F800
00007FE7F800
0000FFC7F800
0001FF87F800
0001FF87F800
0003FF07F800
0007FE07F800
000FFC07F800
000FFC07F800
001FF807F800
003FF007F800
007FE007F800
007FC007F800
00FFC007F800
01FF8007F800
03FF0007F800
03FE0007F800
07FE0007F800
0FFC0007F800
1FF80007F800
1FF00007F800
3FF00007F800
7FE00007F800
FFC00007F800
FFFFFFFFFFF8
FFFFFFFFFFF8
FFFFFFFFFFF8
FFFFFFFFFFF8
FFFFFFFFFFF8
FFFFFFFFFFF8
FFFFFFFFFFF8
FFFFFFFFFFF8
00000007F800
00000007F800
00000007F800
00000007F800
00000007F800
00000007F800
00000007F800
00000007F800
00000007F800
00000007F800
00000007F800
00000007F800
00000007F800
00000007F800
00000007F800
ENDCHAR
STARTCHAR five
ENCODING 53
SWIDTH 556 0
DWIDTH 50 0
BBX 42 65 4 -1
BITMAP
00FFFFFFFE00
00FFFFFFFE00
01FFFFFFFE00
01FFFFFFFE00
01FFFFFFFE00
01FFFFFFFE00
01FFFFFFFE00
03FFFFFFFE00
03FC00000000
03FC00000000
03FC00000000
03FC00000000
07FC00000000
07F800000000
07F800000000
07F800000000
0FF800000000
0FF800000000
0FF000000000
0FF000000000
0FF000000000
1FF01FE00000
1FF0FFFC0000
1FE3FFFF0000
1FEFFFFFC000
1FFFFFFFE000
3FFFFFFFF000
3FFFFFFFF800
3FFFFFFFFC00
3FFF007FFC00
3FF8000FFE00
7FF00007FF00
7FC00001FF00
07800001FF80
00000000FF80
000000007F80
000000007F80
000000007FC0
000000003FC0
000000003FC0
000000003FC0
000000003FC0
000000003FC0
000000003FC0
000000003FC0
000000003FC0
0F0000003FC0
FF0000007F80
FF8000007F80
FF8000007F80
7F800000FF80
7FC00000FF00
7FC00001FF00
3FE00003FE00
3FF00007FE00
1FFC001FFC00
1FFF007FF800
0FFFFFFFF800
07FFFFFFF000
03FFFFFFE000
01FFFFFFC000
00FFFFFF0000
003FFFFE0000
000FFFF80000
0001FF800000
ENDCHAR
STARTCHAR six
ENCODING 54
SWIDTH 556 0
DWIDTH 50 0
BBX 43 66 3 -1
BITMAP
00003FF00000
0001FFFE0000
0007FFFF8000
001FFFFFE000
003FFFFFF000
007FFFFFF800
00FFFFFFFC00
01FFFFFFFE00
03FFE03FFE00
07FF8007FF00
07FE0003FF00
0FFC0001FF80
0FF80000FF80
1FF00000FF80
1FF000007FC0
1FE000007FC0
3FE000003FC0
3FC000003C00
3FC000000000
7F8000000000
7F8000000000
7F8000000000
7F8000000000
7F801FF00000
7F00FFFE0000
FF03FFFF8000
FF07FFFFE000
FF0FFFFFF000
FF3FFFFFF800
FF3FFFFFFC00
FF7FFFFFFE00
FFFFC03FFF00
FFFE0007FF00
FFF80003FF80
FFF00001FF80
FFE00000FFC0
FFC000007FC0
FFC000003FC0
FF8000003FC0
FF8000003FE0
FF0000001FE0
FF0000001FE0
FF0000001FE0
FF0000001FE0
7F0000001FE0
7F0000001FE0
7F0000001FE0
7F0000001FE0
7F8000003FE0
3F8000003FC0
3FC000003FC0
3FC000007FC0
1FE000007FC0
1FF00000FF80
0FF80001FF80
0FFC0003FF00
07FE000FFF00
07FFC03FFE00
03FFFFFFFC00
01FFFFFFFC00
00FFFFFFF800
007FFFFFF000
003FFFFFC000
000FFFFF8000
0003FFFE0000
00003FE00000
ENDCHAR
STARTCHAR seven
ENCODING 55
SWIDTH 556 0
DWIDTH 50 0
BBX 42 64 4 0
BITMAP
FFFFFFFFFFC0
FFFFFFFFFFC0
FFFFFFFFFFC0
FFFFFFFFFFC0
FFFFFFFFFFC0
FFFFFFFFFFC0
FFFFFFFFFFC0
FFFFFFFFFF80
000000003F00
000000007E00
00000000FE00
00000001FC00
00000003F800
00000007F000
00000007F000
0000000FE000
0000001FC000
0000003FC000
0000003F8000
0000007F8000
000000FF0000
000000FE0000
000001FE0000
000001FC0000
000003FC0000
000003F80000
000007F80000
00000FF00000
00000FF00000
00001FE00000
00001FE00000
00003FC00000
00003FC00000
00003F800000
00007F800000
00007F800000
0000FF000000
0000FF000000
0001FE000000
0001FE000000
0001FE000000
0003FC000000
0003FC000000
0003FC000000
0007FC000000
0007F8000000
0007F8000000
0007F8000000
000FF0000000
000FF0000000
000FF0000000
000FF0000000
001FE0000000
001FE0000000
001FE0000000
001FE0000000
001FE0000000
001FE0000000
003FE0000000
003FC0000000
003FC0000000
003FC0000000
003FC0000000
003FC0000000
ENDCHAR
STARTCHAR eight
ENCODING 56
SWIDTH 556 0
DWIDTH 50 0
BBX 42 66 4 -1
BITMAP
0000FFC00000
000FFFFC0000
003FFFFF0000
007FFFFF8000
01FFFFFFC000
03FFFFFFF000
07FFFFFFF000
07FFFFFFF800
0FFF807FFC00
1FFC000FFC00
1FF80007FE00
1FF00003FE00
3FE00001FF00
3FE00001FF00
3FC00000FF00
3FC00000FF00
3FC00000FF00
3FC00000FF00
3FC00000FF00
3FE00001FF00
1FE00001FE00
1FF00003FE00
0FF80007FC00
0FFC000FFC00
07FF807FF800
03FFFFFFF000
01FFFFFFE000
007FFFFF8000
001FFFFE0000
003FFFFF0000
00FFFFFFC000
03FFFFFFF000
07FFFFFFF800
0FFF807FFC00
1FFC000FFE00
1FF80007FE00
3FE00003FF00
7FE00001FF00
7FC00000FF80
7F8000007F80
7F8000007F80
FF8000007FC0
FF0000003FC0
FF0000003FC0
FF0000003FC0
FF0000003FC0
FF0000003FC0
FF0000003FC0
FF0000003FC0
FF8000007FC0
FF8000007FC0
7F8000007F80
7FC00000FF80
7FC00001FF80
3FE00001FF00
3FF80007FF00
1FFC000FFE00
0FFF807FFE00
0FFFFFFFFC00
07FFFFFFF800
03FFFFFFF000
01FFFFFFE000
007FFFFF8000
003FFFFF0000
000FFFFC0000
0000FFC00000
ENDCHAR
STARTCHAR nine
ENCODING 57
SWIDTH 556 0
DWIDTH 50 0
BBX 42 66 4 -1
BITMAP
0001FF800000
000FFFF00000
003FFFFC0000
007FFFFF0000
01FFFFFF8000
03FFFFFFC000
07FFFFFFE000
0FFFFFFFF000
0FFFC07FF800
1FFE000FF800
3FF80007FC00
3FF00003FE00
3FE00001FE00
7FC00000FE00
7FC00000FF00
7F8000007F00
FF8000007F00
FF8000003F80
FF0000003F80
FF0000003F80
FF0000003F80
FF0000003F80
FF0000003FC0
FF0000003FC0
FF0000003FC0
FF0000003FC0
FF8000007FC0
7F8000007FC0
7F8000007FC0
7FC00000FFC0
7FE00001FFC0
3FF00003FFC0
3FF80007FFC0
1FFC000FFFC0
1FFF807FFFC0
0FFFFFFFBFC0
07FFFFFFBFC0
03FFFFFF3FC0
01FFFFFE3FC0
00FFFFF83FC0
007FFFF03FC0
001FFFC03F80
0003FE007F80
000000007F80
000000007F80
000000007F80
000000007F80
00000000FF00
07800000FF00
7F800000FF00
7FC00001FE00
7FC00001FE00
3FC00003FE00
3FE00003FC00
3FF00007FC00
1FF0001FF800
1FFC003FF800
0FFF01FFF000
0FFFFFFFE000
07FFFFFFC000
03FFFFFF8000
01FFFFFF0000
00FFFFFE0000
007FFFF80000
001FFFE00000
0003FF000000
ENDCHAR
STARTCHAR colon
ENCODING 58
SWIDTH 277 0
DWIDTH 25 0
BBX 8 47 8 0
BITMAP
FF
FF
FF
FF
FF
FF
FF
FF
00
00
00
00
00
00
00
00
00
00
00
00
00
00
00
00
00
00
00
00
00
00
00
00
00
00
00
00
00
00
00
FF
FF
FF
FF
FF
FF
FF
FF
ENDCHAR
STARTCHAR semicolon
ENCODING 59
SWIDTH 277 0
DWIDTH 25 0
BBX 8 60 8 -13
BITMAP
FF
FF
FF
FF
FF
FF
FF
FF
00
00
00
00
00
00
00
00
00
00
00
00
00
00
00
00
00
00
00
00
00
00
00
00
00
00
00
00
00
00
00
FF
FF
FF
FF
FF
FF
FF
FF
0F
0F
0F
0F
1F
1E
1E
3E
7C
FC
78
70
20
ENDCHAR
STARTCHAR less
ENCODING 60
SWIDTH 583 0
DWIDTH 53 0
BBX 43 43 5 10
BITMAP
000000000020
0000000001E0
0000000007E0
000000001FE0
00000000FFE0
00000003FFE0
0000001FFFE0
0000007FFFE0
000001FFFFC0
00000FFFFE00
00003FFFF800
0000FFFFC000
0007FFFE0000
001FFFF80000
00FFFFC00000
03FFFF000000
0FFFF8000000
7FFFC0000000
FFFF00000000
FFF800000000
FFE000000000
FF0000000000
FFE000000000
FFF800000000
FFFF00000000
7FFFC0000000
0FFFF8000000
03FFFF000000
00FFFFC00000
001FFFF80000
0007FFFE0000
0001FFFFC000
00003FFFF800
00000FFFFE00
000001FFFFC0
0000007FFFE0
0000001FFFE0
00000003FFE0
00000000FFE0
000000001FE0
0000000007E0
0000000001E0
000000000020
ENDCHAR
STARTCHAR equal
ENCODING 61
SWIDTH 583 0
DWIDTH 53 0
BBX 43 27 5 18
BITMAP
FFFFFFFFFFE0
FFFFFFFFFFE0
FFFFFFFFFFE0
FFFFFFFFFFE0
FFFFFFFFFFE0
FFFFFFFFFFE0
FFFFFFFFFFE0
FFFFFFFFFFE0
000000000000
000000000000
000000000000
000000000000
000000000000
000000000000
000000000000
000000000000
000000000000
000000000000
000000000000
FFFFFFFFFFE0
FFFFFFFFFFE0
FFFFFFFFFFE0
FFFFFFFFFFE0
FFFFFFFFFFE0
FFFFFFFFFFE0
FFFFFFFFFFE0
FFFFFFFFFFE0
ENDCHAR
STARTCHAR greater
ENCODING 62
SWIDTH 583 0
DWIDTH 53 0
BBX 43 43 5 10
BITMAP
800000000000
F00000000000
FC0000000000
FF0000000000
FFE000000000
FFF800000000
FFFF00000000
FFFFC0000000
7FFFF0000000
0FFFFE000000
03FFFF800000
007FFFF00000
000FFFFC0000
0003FFFF0000
00007FFFE000
00001FFFF800
000003FFFE00
0000007FFFC0
0000001FFFE0
00000003FFE0
00000000FFE0
000000001FE0
00000000FFE0
00000003FFE0
0000001FFFE0
0000007FFFC0
000003FFFE00
00001FFFF800
00007FFFE000
0003FFFF0000
000FFFFC0000
007FFFE00000
03FFFF800000
0FFFFE000000
7FFFF0000000
FFFFC0000000
FFFF00000000
FFF800000000
FFE000000000
FF0000000000
FC0000000000
F00000000000
800000000000
ENDCHAR
STARTCHAR question
ENCODING 63
SWIDTH 556 0
DWIDTH 50 0
BBX 42 66 4 0
BITMAP
0000FFC00000
000FFFFC0000
003FFFFF0000
00FFFFFFC000
01FFFFFFE000
03FFFFFFF800
07FFFFFFFC00
0FFFFFFFFC00
1FFF807FFE00
1FFE000FFF00
3FF80007FF00
3FF00003FF80
3FE00001FF80
7FC00000FF80
7FC000007FC0
7F8000007FC0
FF8000003FC0
FF8000003FC0
FF0000003FC0
0F0000003FC0
000000003FC0
000000003FC0
000000007F80
000000007F80
00000000FF80
00000001FF00
00000003FF00
00000007FE00
0000000FFC00
0000001FF800
0000007FF000
000000FFE000
000001FFC000
000003FF8000
000007FF0000
00000FFE0000
00000FFC0000
00001FF80000
00003FF00000
00003FE00000
00007FC00000
00007FC00000
00007F800000
0000FF800000
0000FF800000
0000FF000000
0000FF000000
0000FF000000
0000FF000000
0000FF000000
0000FF000000
000000000000
000000000000
000000000000
000000000000
000000000000
000000000000
000000000000
0000FF000000
0000FF000000
0000FF000000
0000FF000000
0000FF000000
0000FF000000
0000FF000000
0000FF000000
ENDCHAR
STARTCHAR at
ENCODING 64
SWIDTH 1015 0
DWIDTH 91 0
BBX 83 85 4 -19
BITMAP
000000000FFFE000000000
00000001FFFFFE00000000
0000000FFFFFFFE0000000
0000007FFFFFFFF8000000
000001FFFFFFFFFE000000
000007FFFFFFFFFF800000
00001FFFFFFFFFFFC00000
00003FFFFFFFFFFFF00000
00007FFFF8007FFFF80000
0001FFFF000003FFFC0000
0003FFF80000007FFE0000
0007FFE00000001FFF0000
000FFF8000000007FF8000
001FFE0000000003FFC000
001FFC0000000000FFE000
003FF000000000007FE000
007FE000000000003FF000
00FFC000000000001FF800
00FF80000FE000000FF800
01FF00007FFC03FC07FC00
03FE0001FFFE03FC03FC00
03FC0007FFFF87F803FE00
07FC000FFFFFC7F801FE00
07F8001FFFFFE7F801FE00
0FF0003FFFFFE7F800FF00
0FF0007FFFFFF7F800FF00
0FE000FFF81FFFF0007F00
1FE001FFE007FFF0007F00
1FC001FF8003FFF0007F00
3FC003FF0001FFF0007F80
3FC007FE0000FFE0003F80
3F8007FC00007FE0003F80
3F800FF800007FE0003F80
7F800FF800007FE0003F80
7F001FF000003FE0003F80
7F001FF000003FC0003F80
7F001FE000003FC0003F80
7F003FE000003FC0003F80
FE003FC000003FC0003F80
FE003FC000003F80007F80
FE003FC000003F80007F00
FE007FC000003F80007F00
FE007F8000007F80007F00
FE007F8000007F0000FF00
FE007F8000007F0000FE00
FE007F8000007F0001FE00
FE007F800000FF0001FE00
FE007F800000FF0003FC00
FE007F800001FE0003FC00
FE007F800001FE0007F800
FE007F800003FE000FF800
FF003FC00007FE000FF000
7F003FC00007FC001FF000
7F003FE0000FFC003FE000
7F003FE0003FFC00FFC000
7F801FF0007FFC01FF8000
7F801FFC00FFFC07FF8000
3F800FFF07FFFE1FFF0000
3FC00FFFFFFFFFFFFE0000
3FC007FFFFFBFFFFFC0000
1FE003FFFFF3FFFFF00000
1FE003FFFFE3FFFFE00000
1FF000FFFFC1FFFFC00000
0FF0007FFF80FFFF000000
0FF8001FFE007FFC000000
07FC0007F0001FE0001FE0
07FE000000000000003FC0
03FF000000000000007FC0
01FF80000000000000FF80
01FFC0000000000003FF00
00FFF0000000000007FE00
007FF800000000001FFC00
003FFE00000000003FF800
001FFF8000000001FFF000
000FFFF000000007FFE000
0007FFFF0000003FFFC000
0003FFFFF8000FFFFF8000
0000FFFFFFFFFFFFFE0000
00007FFFFFFFFFFFFC0000
00001FFFFFFFFFFFF00000
000007FFFFFFFFFFC00000
000001FFFFFFFFFF000000
0000003FFFFFFFF8000000
00000003FFFFFFC0000000
000000000FFFF800000000
ENDCHAR
STARTCHAR A
ENCODING 65
SWIDTH 666 0
DWIDTH 60 0
BBX 61 65 -1 0
BITMAP
0000003FE0000000
0000007FF0000000
0000007FF0000000
0000007FF0000000
000000FFF8000000
000000FFF8000000
000001FFFC000000
000001FFFC000000
000001FDFC000000
000003FDFE000000
000003FDFE000000
000007F8FF000000
000007F8FF000000
000007F07F000000
00000FF07F800000
00000FF07F800000
00001FE03FC00000
00001FE03FC00000
00001FE03FC00000
00003FC01FE00000
00003FC01FE00000
00007F800FF00000
00007F800FF00000
0000FF800FF80000
0000FF0007F80000
0000FF0007F80000
0001FF0007FC0000
0001FE0003FC0000
0003FE0003FE0000
0003FC0001FE0000
0003FC0001FE0000
0007FC0001FF0000
0007F80000FF0000
000FF80000FF8000
000FF80000FF8000
000FF000007F8000
001FF000007FC000
001FFFFFFFFFC000
003FFFFFFFFFE000
003FFFFFFFFFE000
007FFFFFFFFFE000
007FFFFFFFFFF000
007FFFFFFFFFF000
00FFFFFFFFFFF800
00FFFFFFFFFFF800
01FF00000007FC00
01FF00000007FC00
01FF00000007FC00
03FE00000003FE00
03FE00000003FE00
07FC00000001FF00
07FC00000001FF00
07FC00000001FF00
0FF800000000FF80
0FF800000000FF80
1FF800000000FFC0
1FF0000000007FC0
1FF0000000007FC0
3FE0000000003FE0
3FE0000000003FE0
7FE0000000003FF0
7FC0000000001FF0
FFC0000000001FF8
FFC0000000001FF8
FF80000000000FF8
ENDCHAR
STARTCHAR B
ENCODING 66
SWIDTH 666 0
DWIDTH 60 0
BBX 49 65 7 0
BITMAP
FFFFFFFF000000
FFFFFFFFF00000
FFFFFFFFFC0000
FFFFFFFFFF0000
FFFFFFFFFF8000
FFFFFFFFFFC000
FFFFFFFFFFE000
FFFFFFFFFFF000
FF800003FFF800
FF8000007FF800
FF8000001FFC00
FF8000000FFC00
FF80000007FC00
FF80000007FE00
FF80000003FE00
FF80000003FE00
FF80000003FE00
FF80000003FE00
FF80000003FE00
FF80000003FE00
FF80000003FC00
FF80000007FC00
FF80000007FC00
FF8000000FF800
FF8000001FF000
FF8000007FF000
FF800003FFE000
FFFFFFFFFFC000
FFFFFFFFFF0000
FFFFFFFFFC0000
FFFFFFFFFE0000
FFFFFFFFFF8000
FFFFFFFFFFE000
FFFFFFFFFFF000
FFFFFFFFFFF800
FF800001FFFC00
FF8000001FFC00
FF8000000FFE00
FF80000003FE00
FF80000003FF00
FF80000001FF00
FF80000001FF00
FF80000000FF80
FF80000000FF80
FF80000000FF80
FF80000000FF80
FF80000000FF80
FF80000000FF80
FF80000000FF80
FF80000001FF80
FF80000001FF00
FF80000001FF00
FF80000003FF00
FF80000007FF00
FF8000000FFE00
FF8000001FFE00
FF800000FFFC00
FFFFFFFFFFF800
FFFFFFFFFFF800
FFFFFFFFFFF000
FFFFFFFFFFE000
FFFFFFFFFF8000
FFFFFFFFFE0000
FFFFFFFFF80000
FFFFFFFF000000
ENDCHAR
STARTCHAR C
ENCODING 67
SWIDTH 722 0
DWIDTH 65 0
BBX 57 67 4 -1
BITMAP
000000FFF0000000
00000FFFFE000000
00007FFFFFC00000
0001FFFFFFF00000
0003FFFFFFF80000
000FFFFFFFFE0000
001FFFFFFFFF0000
003FFFFFFFFF8000
007FFF803FFFC000
00FFF80007FFC000
01FFE00001FFE000
03FFC00000FFF000
07FF0000007FF000
07FE0000003FF800
0FFC0000001FF800
0FFC0000000FFC00
1FF80000000FFC00
1FF000000007FC00
3FF000000007FE00
3FE000000007FC00
3FE0000000038000
7FE0000000000000
7FC0000000000000
7FC0000000000000
7FC0000000000000
7FC0000000000000
FFC0000000000000
FF80000000000000
FF80000000000000
FF80000000000000
FF80000000000000
FF80000000000000
FF80000000000000
FF80000000000000
FF80000000000000
FF80000000000000
FF80000000000000
FF80000000000000
FF80000000000000
FF80000000000000
7FC0000000000000
7FC0000000000000
7FC0000000000000
7FC000000000C000
7FC000000000FE00
3FE000000001FF80
3FE000000001FF80
3FF000000001FF00
1FF000000003FF00
1FF000000003FF00
1FF800000007FE00
0FFC0000000FFE00
0FFE0000000FFC00
07FE0000001FFC00
07FF8000003FF800
03FFC000007FF800
01FFF00001FFF000
00FFFC0007FFE000
00FFFF803FFFC000
007FFFFFFFFF8000
003FFFFFFFFF0000
000FFFFFFFFE0000
0007FFFFFFFC0000
0001FFFFFFF00000
00007FFFFFC00000
00001FFFFF000000
000001FFF0000000
ENDCHAR
STARTCHAR D
ENCODING 68
SWIDTH 722 0
DWIDTH 65 0
BBX 54 65 7 0
BITMAP
FFFFFFFF000000
FFFFFFFFF00000
FFFFFFFFFE0000
FFFFFFFFFF8000
FFFFFFFFFFC000
FFFFFFFFFFF000
FFFFFFFFFFF800
FFFFFFFFFFFC00
FF800003FFFE00
FF8000003FFE00
FF8000000FFF00
FF80000007FF80
FF80000003FF80
FF80000001FFC0
FF80000000FFE0
FF800000007FE0
FF800000003FE0
FF800000003FF0
FF800000001FF0
FF800000001FF0
FF800000001FF8
FF800000000FF8
FF800000000FF8
FF800000000FF8
FF800000000FF8
FF8000000007FC
FF8000000007FC
FF8000000007FC
FF8000000007FC
FF8000000007FC
FF8000000007FC
FF8000000007FC
FF8000000007FC
FF8000000007FC
FF8000000007FC
FF8000000007FC
FF8000000007FC
FF8000000007FC
FF8000000007FC
FF800000000FFC
FF800000000FF8
FF800000000FF8
FF800000000FF8
FF800000000FF8
FF800000001FF0
FF800000001FF0
FF800000003FF0
FF800000003FF0
FF800000003FE0
FF800000007FE0
FF80000000FFC0
FF80000001FFC0
FF80000001FF80
FF80000007FF80
FF8000000FFF00
FF8000003FFE00
FF800003FFFC00
FFFFFFFFFFFC00
FFFFFFFFFFF000
FFFFFFFFFFE000
FFFFFFFFFFC000
FFFFFFFFFF0000
FFFFFFFFFC0000
FFFFFFFFE00000
FFFFFFFE000000
ENDCHAR
STARTCHAR E
ENCODING 69
SWIDTH 666 0
DWIDTH 60 0
BBX 48 65 7 0
BITMAP
FFFFFFFFFFFC
FFFFFFFFFFFC
FFFFFFFFFFFC
FFFFFFFFFFFC
FFFFFFFFFFFC
FFFFFFFFFFFC
FFFFFFFFFFFC
FFFFFFFFFFFC
FF8000000000
FF8000000000
FF8000000000
FF8000000000
FF8000000000
FF8000000000
FF8000000000
FF8000000000
FF8000000000
FF8000000000
FF8000000000
FF8000000000
FF8000000000
FF8000000000
FF8000000000
FF8000000000
FF8000000000
FF8000000000
FF8000000000
FFFFFFFFFFF0
FFFFFFFFFFF0
FFFFFFFFFFF0
FFFFFFFFFFF0
FFFFFFFFFFF0
FFFFFFFFFFF0
FFFFFFFFFFF0
FFFFFFFFFFF0
FF8000000000
FF8000000000
FF8000000000
FF8000000000
FF8000000000
FF8000000000
FF8000000000
FF8000000000
FF8000000000
FF8000000000
FF8000000000
FF8000000000
FF8000000000
FF8000000000
FF8000000000
FF8000000000
FF8000000000
FF8000000000
FF8000000000
FF8000000000
FF8000000000
FF8000000000
FFFFFFFFFFFF
FFFFFFFFFFFF
FFFFFFFFFFFF
FFFFFFFFFFFF
FFFFFFFFFFFF
FFFFFFFFFFFF
FFFFFFFFFFFF
FFFFFFFFFFFF
ENDCHAR
STARTCHAR F
ENCODING 70
SWIDTH 610 0
DWIDTH 55 0
BBX 44 65 7 0
BITMAP
FFFFFFFFFFF0
FFFFFFFFFFF0
FFFFFFFFFFF0
FFFFFFFFFFF0
FFFFFFFFFFF0
FFFFFFFFFFF0
FFFFFFFFFFF0
FFFFFFFFFFF0
FF8000000000
FF8000000000
FF8000000000
FF8000000000
FF8000000000
FF8000000000
FF8000000000
FF8000000000
FF8000000000
FF8000000000
FF8000000000
FF8000000000
FF8000000000
FF8000000000
FF8000000000
FF8000000000
FF8000000000
FF8000000000
FF8000000000
FFFFFFFFFE00
FFFFFFFFFE00
FFFFFFFFFE00
FFFFFFFFFE00
FFFFFFFFFE00
FFFFFFFFFE00
FFFFFFFFFE00
FFFFFFFFFE00
FF8000000000
FF8000000000
FF8000000000
FF8000000000
FF8000000000
FF8000000000
FF8000000000
FF8000000000
FF8000000000
FF8000000000
FF8000000000
FF8000000000
FF8000000000
FF8000000000
FF8000000000
FF8000000000
FF8000000000
FF8000000000
FF8000000000
FF8000000000
FF8000000000
FF8000000000
FF8000000000
FF8000000000
FF8000000000
FF8000000000
FF8000000000
FF8000000000
FF8000000000
FF8000000000
ENDCHAR
STARTCHAR G
ENCODING 71
SWIDTH 777 0
DWIDTH 70 0
BBX 60 67 4 -1
BITMAP
0000003FFE000000
000007FFFFE00000
00001FFFFFFC0000
0000FFFFFFFF0000
0003FFFFFFFF8000
0007FFFFFFFFE000
001FFFFFFFFFF000
003FFFFFFFFFF800
007FFFE007FFFC00
00FFFE00007FFE00
01FFF800001FFE00
01FFE000000FFF00
03FF80000003FF00
07FF00000001FF80
07FE00000001FF80
0FFC00000000FFC0
0FFC000000007FC0
1FF8000000007FC0
1FF0000000003FE0
3FF0000000003FE0
3FF0000000003F00
3FE0000000001000
3FE0000000000000
7FC0000000000000
7FC0000000000000
7FC0000000000000
7FC0000000000000
FF80000000000000
FF80000000000000
FF80000000000000
FF80000000000000
FF80000000000000
FF80000000000000
FF8000007FFFFFF0
FF8000007FFFFFF0
FF8000007FFFFFF0
FF8000007FFFFFF0
FF8000007FFFFFF0
FF8000007FFFFFF0
FF8000007FFFFFF0
7FC000007FFFFFF0
7FC0000000001FF0
7FC0000000001FF0
7FC0000000001FF0
7FE0000000001FF0
3FE0000000001FF0
3FE0000000001FF0
3FF0000000001FF0
1FF0000000001FF0
1FF8000000001FF0
0FFC000000001FF0
0FFC000000001FF0
07FE000000001FF0
07FF000000003FF0
03FFC0000000FFF0
01FFE0000003FFF0
00FFF800000FFFF0
00FFFF00003FFFE0
007FFFE003FFFFC0
001FFFFFFFFFFF00
000FFFFFFFFFFE00
0007FFFFFFFFF800
0001FFFFFFFFE000
00007FFFFFFF8000
00001FFFFFFE0000
000003FFFFF00000
0000001FFE000000
ENDCHAR
STARTCHAR H
ENCODING 72
SWIDTH 722 0
DWIDTH 65 0
BBX 51 65 7 0
BITMAP
FF800000003FE0
FF800000003FE0
FF800000003FE0
FF800000003FE0
FF800000003FE0
FF800000003FE0
FF800000003FE0
FF800000003FE0
FF800000003FE0
FF800000003FE0
FF800000003FE0
FF800000003FE0
FF800000003FE0
FF800000003FE0
FF800000003FE0
FF800000003FE0
FF800000003FE0
FF800000003FE0
FF800000003FE0
FF800000003FE0
FF800000003FE0
FF800000003FE0
FF800000003FE0
FF800000003FE0
FF800000003FE0
FF800000003FE0
FFFFFFFFFFFFE0
FFFFFFFFFFFFE0
FFFFFFFFFFFFE0
FFFFFFFFFFFFE0
FFFFFFFFFFFFE0
FFFFFFFFFFFFE0
FFFFFFFFFFFFE0
FFFFFFFFFFFFE0
FF800000003FE0
FF800000003FE0
FF800000003FE0
FF800000003FE0
FF800000003FE0
FF800000003FE0
FF800000003FE0
FF800000003FE0
FF800000003FE0
FF800000003FE0
FF800000003FE0
FF800000003FE0
FF800000003FE0
FF800000003FE0
FF800000003FE0
FF800000003FE0
FF800000003FE0
FF800000003FE0
FF800000003FE0
FF800000003FE0
FF800000003FE0
FF800000003FE0
FF800000003FE0
FF800000003FE0
FF800000003FE0
FF800000003FE0
FF800000003FE0
FF800000003FE0
FF800000003FE0
FF800000003FE0
FF800000003FE0
ENDCHAR
STARTCHAR I
ENCODING 73
SWIDTH 277 0
DWIDTH 25 0
BBX 9 65 8 0
BITMAP
FF80
FF80
FF80
FF80
FF80
FF80
FF80
FF80
FF80
FF80
FF80
FF80
FF80
FF80
FF80
FF80
FF80
FF80
FF80
FF80
FF80
FF80
FF80
FF80
FF80
FF80
FF80
FF80
FF80
FF80
FF80
FF80
FF80
FF80
FF80
FF80
FF80
FF80
FF80
FF80
FF80
FF80
FF80
FF80
FF80
FF80
FF80
FF80
FF80
FF80
FF80
FF80
FF80
FF80
FF80
FF80
FF80
FF80
FF80
FF80
FF80
FF80
FF80
FF80
FF80
ENDCHAR
STARTCHAR J
ENCODING 74
SWIDTH 500 0
DWIDTH 45 0
BBX 35 66 3 -1
BITMAP
0000003FE0
0000003FE0
0000003FE0
0000003FE0
0000003FE0
0000003FE0
0000003FE0
0000003FE0
0000003FE0
0000003FE0
0000003FE0
0000003FE0
0000003FE0
0000003FE0
0000003FE0
0000003FE0
0000003FE0
0000003FE0
0000003FE0
0000003FE0
0000003FE0
0000003FE0
0000003FE0
0000003FE0
0000003FE0
0000003FE0
0000003FE0
0000003FE0
0000003FE0
0000003FE0
0000003FE0
0000003FE0
0000003FE0
0000003FE0
0000003FE0
0000003FE0
0000003FE0
0000003FE0
0000003FE0
0000003FE0
0000003FE0
0000003FE0
0000003FE0
0000003FE0
0000003FE0
0000003FE0
0780003FE0
FF80003FE0
FF80003FE0
FF80003FE0
FF80003FE0
FFC0007FE0
FFC0007FC0
7FC0007FC0
7FE000FFC0
7FE000FFC0
7FF803FF80
3FFE0FFF80
3FFFFFFF00
1FFFFFFF00
0FFFFFFE00
07FFFFFC00
03FFFFF800
01FFFFE000
007FFF8000
000FFC0000
ENDCHAR
STARTCHAR K
ENCODING 75
SWIDTH 666 0
DWIDTH 60 0
BBX 53 65 7 0
BITMAP
FF80000003FFE0
FF80000007FFC0
FF8000000FFF80
FF8000001FFF00
FF8000003FFE00
FF8000007FFC00
FF800000FFF800
FF800001FFF000
FF800003FFE000
FF800007FFC000
FF80000FFF8000
FF80001FFF0000
FF80003FFE0000
FF80007FFC0000
FF8000FFF80000
FF8001FFF00000
FF8003FFE00000
FF8007FFC00000
FF800FFF800000
FF801FFF000000
FF803FFE000000
FF807FFC000000
FF80FFF8000000
FF81FFF0000000
FF83FFE0000000
FF87FFC0000000
FF8FFF80000000
FF9FFF80000000
FFBFFFC0000000
FFFFFFE0000000
FFFFFFE0000000
FFFFFFF0000000
FFFFFFF8000000
FFFFDFFC000000
FFFF9FFC000000
FFFF0FFE000000
FFFE07FF000000
FFFC03FF800000
FFF803FF800000
FFF001FFC00000
FFE000FFE00000
FFC0007FF00000
FF80007FF00000
FF80003FF80000
FF80001FFC0000
FF80000FFE0000
FF80000FFE0000
FF800007FF0000
FF800003FF8000
FF800001FFC000
FF800001FFC000
FF800000FFE000
FF8000007FF000
FF8000003FF800
FF8000003FF800
FF8000001FFC00
FF8000000FFE00
FF8000000FFE00
FF80000007FF00
FF80000003FF80
FF80000001FFC0
FF80000001FFC0
FF80000000FFE0
FF800000007FF0
FF800000003FF8
ENDCHAR
STARTCHAR L
ENCODING 76
SWIDTH 556 0
DWIDTH 50 0
BBX 40 65 7 0
BITMAP
FF80000000
FF80000000
FF80000000
FF80000000
FF80000000
FF80000000
FF80000000
FF80000000
FF80000000
FF80000000
FF80000000
FF80000000
FF80000000
FF80000000
FF80000000
FF80000000
FF80000000
FF80000000
FF80000000
FF80000000
FF80000000
FF80000000
FF80000000
FF80000000
FF80000000
FF80000000
FF80000000
FF80000000
FF80000000
FF80000000
FF80000000
FF80000000
FF80000000
FF80000000
FF80000000
FF80000000
FF80000000
FF80000000
FF80000000
FF80000000
FF80000000
FF80000000
FF80000000
FF80000000
FF80000000
FF80000000
FF80000000
FF80000000
FF80000000
FF80000000
FF80000000
FF80000000
FF80000000
FF80000000
FF80000000
FF80000000
FF80000000
FFFFFFFFFF
FFFFFFFFFF
FFFFFFFFFF
FFFFFFFFFF
FFFFFFFFFF
FFFFFFFFFF
FFFFFFFFFF
FFFFFFFFFF
ENDCHAR
STARTCHAR M
ENCODING 77
SWIDTH 833 0
DWIDTH 75 0
BBX 63 65 6 0
BITMAP
FFFC000000007FFE
FFFE00000000FFFE
FFFE00000000FFFE
FFFE00000000FFFE
FFFE00000001FFFE
FFFF00000001FFFE
FFFF00000001FFFE
FFFF00000001FFFE
FFFF80000003FFFE
FFFF80000003FFFE
FFFF80000003FFFE
FFFFC0000007FFFE
FFBFC0000007FBFE
FFBFC0000007FBFE
FFBFE000000FFBFE
FF9FE000000FF3FE
FF9FE000000FF3FE
FF9FF000001FF3FE
FF8FF000001FE3FE
FF8FF000001FE3FE
FF8FF800003FE3FE
FF87F800003FC3FE
FF87F800003FC3FE
FF87FC00007FC3FE
FF83FC00007F83FE
FF83FC00007F83FE
FF83FE0000FF83FE
FF83FE0000FF83FE
FF81FE0000FF03FE
FF81FE0000FF03FE
FF81FF0001FF03FE
FF80FF0001FE03FE
FF80FF0001FE03FE
FF80FF8003FE03FE
FF807F8003FC03FE
FF807F8003FC03FE
FF807FC007FC03FE
FF803FC007F803FE
FF803FC007F803FE
FF803FE00FF803FE
FF801FE00FF003FE
FF801FE00FF003FE
FF801FF01FF003FE
FF801FF01FF003FE
FF800FF01FE003FE
FF800FF83FE003FE
FF800FF83FE003FE
FF8007F83FC003FE
FF8007F87FC003FE
FF8007FC7FC003FE
FF8003FC7F8003FE
FF8003FC7F8003FE
FF8003FEFF8003FE
FF8001FEFF0003FE
FF8001FEFF0003FE
FF8001FFFF0003FE
FF8000FFFE0003FE
FF8000FFFE0003FE
FF8000FFFE0003FE
FF8000FFFE0003FE
FF80007FFC0003FE
FF80007FFC0003FE
FF80007FFC0003FE
FF80003FF80003FE
FF80003FF80003FE
ENDCHAR
STARTCHAR N
ENCODING 78
SWIDTH 722 0
DWIDTH 65 0
BBX 51 65 7 0
BITMAP
FFC00000003FE0
FFE00000003FE0
FFE00000003FE0
FFF00000003FE0
FFF80000003FE0
FFF80000003FE0
FFFC0000003FE0
FFFC0000003FE0
FFFE0000003FE0
FFFF0000003FE0
FFFF0000003FE0
FFFF8000003FE0
FFFFC000003FE0
FFFFC000003FE0
FFFFE000003FE0
FFFFF000003FE0
FFBFF000003FE0
FFBFF800003FE0
FF9FFC00003FE0
FF8FFC00003FE0
FF8FFE00003FE0
FF87FF00003FE0
FF83FF00003FE0
FF83FF80003FE0
FF81FFC0003FE0
FF81FFC0003FE0
FF80FFE0003FE0
FF807FF0003FE0
FF807FF0003FE0
FF803FF8003FE0
FF801FFC003FE0
FF801FFC003FE0
FF800FFE003FE0
FF8007FF003FE0
FF8007FF003FE0
FF8003FF803FE0
FF8001FFC03FE0
FF8001FFC03FE0
FF8000FFE03FE0
FF80007FF03FE0
FF80007FF03FE0
FF80003FF83FE0
FF80001FF83FE0
FF80001FFC3FE0
FF80000FFE3FE0
FF800007FE3FE0
FF800007FF3FE0
FF800003FFBFE0
FF800001FFBFE0
FF800001FFFFE0
FF800000FFFFE0
FF8000007FFFE0
FF8000007FFFE0
FF8000003FFFE0
FF8000001FFFE0
FF8000001FFFE0
FF8000000FFFE0
FF80000007FFE0
FF80000007FFE0
FF80000003FFE0
FF80000003FFE0
FF80000001FFE0
FF80000000FFE0
FF80000000FFE0
FF800000007FE0
ENDCHAR
STARTCHAR O
ENCODING 79
SWIDTH 777 0
DWIDTH 70 0
BBX 62 67 4 -1
BITMAP
0000007FF8000000
000007FFFF800000
00003FFFFFF00000
0000FFFFFFFC0000
0003FFFFFFFF0000
0007FFFFFFFF8000
001FFFFFFFFFC000
003FFFFFFFFFF000
007FFFC00FFFF800
00FFFE0001FFFC00
01FFF800007FFE00
01FFE000001FFE00
03FF8000000FFF00
07FF00000003FF80
07FE00000001FF80
0FFC00000001FFC0
0FF800000000FFC0
1FF8000000007FE0
1FF0000000003FE0
3FF0000000003FF0
3FE0000000001FF0
3FE0000000001FF0
7FE0000000001FF8
7FC0000000000FF8
7FC0000000000FF8
7FC0000000000FF8
7FC0000000000FF8
FF800000000007FC
FF800000000007FC
FF800000000007FC
FF800000000007FC
FF800000000007FC
FF800000000007FC
FF800000000007FC
FF800000000007FC
FF800000000007FC
FF800000000007FC
FF800000000007FC
FF800000000007FC
FF800000000007FC
FF80000000000FF8
7FC0000000000FF8
7FC0000000000FF8
7FC0000000000FF8
7FE0000000001FF8
3FE0000000001FF0
3FE0000000001FF0
3FF0000000003FF0
1FF0000000003FE0
1FF8000000007FE0
0FFC00000000FFC0
0FFC00000000FFC0
07FE00000001FF80
07FF00000003FF80
03FF8000000FFF00
01FFE000001FFE00
00FFF800007FFE00
00FFFE0001FFFC00
007FFFC00FFFF800
003FFFFFFFFFF000
000FFFFFFFFFC000
0007FFFFFFFF8000
0003FFFFFFFF0000
0000FFFFFFFC0000
00003FFFFFF00000
000007FFFF800000
0000007FF8000000
ENDCHAR
STARTCHAR P
ENCODING 80
SWIDTH 666 0
DWIDTH 60 0
BBX 49 65 7 0
BITMAP
FFFFFFFF800000
FFFFFFFFFC0000
FFFFFFFFFF0000
FFFFFFFFFFC000
FFFFFFFFFFE000
FFFFFFFFFFF000
FFFFFFFFFFF800
FFFFFFFFFFFC00
FF800000FFFC00
FF8000001FFE00
FF8000000FFE00
FF80000007FF00
FF80000003FF00
FF80000001FF00
FF80000001FF80
FF80000001FF80
FF80000000FF80
FF80000000FF80
FF80000000FF80
FF80000000FF80
FF80000000FF80
FF80000000FF80
FF80000000FF80
FF80000001FF80
FF80000001FF00
FF80000001FF00
FF80000003FF00
FF80000007FE00
FF8000000FFE00
FF8000003FFC00
FF800001FFFC00
FFFFFFFFFFF800
FFFFFFFFFFF000
FFFFFFFFFFF000
FFFFFFFFFFC000
FFFFFFFFFF8000
FFFFFFFFFE0000
FFFFFFFFF80000
FFFFFFFF000000
FF800000000000
FF800000000000
FF800000000000
FF800000000000
FF800000000000
FF800000000000
FF800000000000
FF800000000000
FF800000000000
FF800000000000
FF800000000000
FF800000000000
FF800000000000
FF800000000000
FF800000000000
FF800000000000
FF800000000000
FF800000000000
FF800000000000
FF800000000000
FF800000000000
FF800000000000
FF800000000000
FF800000000000
FF800000000000
FF800000000000
ENDCHAR
STARTCHAR Q
ENCODING 81
SWIDTH 777 0
DWIDTH 70 0
BBX 62 71 4 -5
BITMAP
000000FFF0000000
00000FFFFF000000
00003FFFFFC00000
0000FFFFFFF00000
0003FFFFFFFC0000
000FFFFFFFFF0000
001FFFFFFFFF8000
003FFFFFFFFFC000
007FFF801FFFE000
00FFFC0003FFF000
01FFF00000FFF800
03FFC000007FFC00
03FF8000001FFC00
07FF0000000FFE00
07FE00000007FF00
0FFC00000003FF00
0FF800000003FF80
1FF800000001FF80
1FF000000000FF80
3FF000000000FFC0
3FE0000000007FC0
3FE0000000007FC0
7FC0000000007FE0
7FC0000000003FE0
7FC0000000003FE0
7FC0000000003FE0
7FC0000000003FF0
FF80000000001FF0
FF80000000001FF0
FF80000000001FF0
FF80000000001FF0
FF80000000001FF0
FF80000000001FF0
FF80000000001FF0
FF80000000001FF0
FF80000000001FF0
FF80000000001FF0
FF80000000001FF0
FF80000000001FF0
FF80000000001FF0
7FC0000000003FE0
7FC0000000003FE0
7FC0000000003FE0
7FC0000000003FE0
7FE0000000007FC0
3FE0000000007FC0
3FE0000000007FC0
3FF000000000FF80
1FF00000E000FF80
1FF80000FC01FF80
0FF80001FE01FF00
0FFC0001FF83FF00
07FE0001FFC7FE00
07FF0003FFFFFC00
03FF80007FFFFC00
03FFC0001FFFF800
01FFF00007FFF000
00FFFC0003FFE000
007FFF801FFFC000
003FFFFFFFFFF000
001FFFFFFFFFF800
000FFFFFFFFFFE00
0003FFFFFFFFFF80
0000FFFFFFFFFFE0
00003FFFFFE3FFF8
00000FFFFF00FFFC
000000FFF0007FF8
0000000000001FF8
00000000000007F0
00000000000001F0
0000000000000060
ENDCHAR
STARTCHAR R
ENCODING 82
SWIDTH 722 0
DWIDTH 65 0
BBX 56 65 7 0
BITMAP
FFFFFFFFF00000
FFFFFFFFFF8000
FFFFFFFFFFE000
FFFFFFFFFFF800
FFFFFFFFFFFC00
FFFFFFFFFFFE00
FFFFFFFFFFFE00
FFFFFFFFFFFF00
FF8000003FFF80
FF80000007FF80
FF80000001FFC0
FF80000000FFC0
FF80000000FFC0
FF800000007FE0
FF800000007FE0
FF800000003FE0
FF800000003FE0
FF800000003FE0
FF800000003FE0
FF800000003FE0
FF800000003FE0
FF800000007FE0
FF800000007FC0
FF80000000FFC0
FF80000001FFC0
FF80000003FF80
FF80000007FF80
FF8000007FFF00
FFFFFFFFFFFE00
FFFFFFFFFFFC00
FFFFFFFFFFF800
FFFFFFFFFFF000
FFFFFFFFFFC000
FFFFFFFFFF0000
FFFFFFFFF00000
FFFFFFFFC00000
FF8000FFF00000
FF80003FF80000
FF80000FFC0000
FF800007FE0000
FF800003FF0000
FF800001FF8000
FF800000FFC000
FF800000FFE000
FF8000007FE000
FF8000003FF000
FF8000003FF800
FF8000001FF800
FF8000000FFC00
FF8000000FFE00
FF80000007FE00
FF80000007FF00
FF80000003FF00
FF80000001FF80
FF80000001FFC0
FF80000000FFC0
FF800000007FE0
FF800000007FE0
FF800000003FF0
FF800000003FF8
FF800000001FF8
FF800000000FFC
FF800000000FFE
FF8000000007FE
FF8000000007FF
ENDCHAR
STARTCHAR S
ENCODING 83
SWIDTH 666 0
DWIDTH 60 0
BBX 51 67 4 -1
BITMAP
00001FFE000000
0001FFFFE00000
000FFFFFFC0000
003FFFFFFF0000
007FFFFFFF8000
00FFFFFFFFE000
03FFFFFFFFF000
03FFFFFFFFF800
07FFF003FFF800
0FFF80003FFC00
0FFE00001FFE00
1FFC000007FE00
1FF8000007FF00
1FF0000003FF00
3FF0000001FF00
3FE0000001FF80
3FE0000000FF80
3FE0000000FF80
3FE0000000FF80
3FE00000000000
3FF00000000000
3FF00000000000
1FF80000000000
1FFC0000000000
1FFE0000000000
0FFFC000000000
07FFF800000000
07FFFF00000000
03FFFFF8000000
00FFFFFF000000
007FFFFFF00000
001FFFFFFE0000
0007FFFFFF8000
0001FFFFFFE000
00003FFFFFF000
000003FFFFF800
0000007FFFFE00
00000007FFFE00
000000007FFF00
000000001FFF80
0000000007FF80
0000000001FFC0
0000000000FFC0
00000000007FC0
FF800000007FE0
FF800000003FE0
FF800000003FE0
FFC00000003FE0
FFC00000003FE0
7FC00000003FE0
7FE00000003FE0
7FE00000007FE0
3FF00000007FC0
3FF8000000FFC0
1FFC000000FFC0
1FFE000003FF80
0FFF000007FF80
0FFFE0001FFF00
07FFFC00FFFE00
03FFFFFFFFFC00
01FFFFFFFFFC00
00FFFFFFFFF000
007FFFFFFFE000
001FFFFFFF8000
0007FFFFFF0000
0000FFFFF80000
00000FFF800000
ENDCHAR
STARTCHAR T
ENCODING 84
SWIDTH 610 0
DWIDTH 55 0
BBX 51 65 2 0
BITMAP
FFFFFFFFFFFFE0
FFFFFFFFFFFFE0
FFFFFFFFFFFFE0
FFFFFFFFFFFFE0
FFFFFFFFFFFFE0
FFFFFFFFFFFFE0
FFFFFFFFFFFFE0
FFFFFFFFFFFFE0
000007FC000000
000007FC000000
000007FC000000
000007FC000000
000007FC000000
000007FC000000
000007FC000000
000007FC000000
000007FC000000
000007FC000000
000007FC000000
000007FC000000
000007FC000000
000007FC000000
000007FC000000
000007FC000000
000007FC000000
000007FC000000
000007FC000000
000007FC000000
000007FC000000
000007FC000000
000007FC000000
000007FC000000
000007FC000000
000007FC000000
000007FC000000
000007FC000000
000007FC000000
000007FC000000
000007FC000000
000007FC000000
000007FC000000
000007FC000000
000007FC000000
000007FC000000
000007FC000000
000007FC000000
000007FC000000
000007FC000000
000007FC000000
000007FC000000
000007FC000000
000007FC000000
000007FC000000
000007FC000000
000007FC000000
000007FC000000
000007FC000000
000007FC000000
000007FC000000
000007FC000000
000007FC000000
000007FC000000
000007FC000000
000007FC000000
000007FC000000
ENDCHAR
STARTCHAR U
ENCODING 85
SWIDTH 722 0
DWIDTH 65 0
BBX 51 66 7 -1
BITMAP
FF800000003FE0
FF800000003FE0
FF800000003FE0
FF800000003FE0
FF800000003FE0
FF800000003FE0
FF800000003FE0
FF800000003FE0
FF800000003FE0
FF800000003FE0
FF800000003FE0
FF800000003FE0
FF800000003FE0
FF800000003FE0
FF800000003FE0
FF800000003FE0
FF800000003FE0
FF800000003FE0
FF800000003FE0
FF800000003FE0
FF800000003FE0
FF800000003FE0
FF800000003FE0
FF800000003FE0
FF800000003FE0
FF800000003FE0
FF800000003FE0
FF800000003FE0
FF800000003FE0
FF800000003FE0
FF800000003FE0
FF800000003FE0
FF800000003FE0
FF800000003FE0
FF800000003FE0
FF800000003FE0
FF800000003FE0
FF800000003FE0
FF800000003FE0
FF800000003FE0
FF800000003FE0
FF800000003FE0
FF800000003FE0
FF800000003FE0
FF800000003FE0
FF800000007FE0
7FC00000007FC0
7FC00000007FC0
7FC00000007FC0
7FC0000000FFC0
7FE0000000FFC0
3FE0000000FF80
3FF0000001FF80
3FF8000003FF80
1FFC000007FF00
1FFE00000FFF00
0FFF80003FFE00
07FFF001FFFC00
07FFFFFFFFF800
03FFFFFFFFF000
01FFFFFFFFE000
007FFFFFFFC000
003FFFFFFF8000
000FFFFFFE0000
0001FFFFF00000
00001FFF000000
ENDCHAR
STARTCHAR V
ENCODING 86
SWIDTH 666 0
DWIDTH 60 0
BBX 63 65 -1 0
BITMAP
FFC00000000007FE
7FE0000000000FFC
7FE0000000000FFC
3FE0000000000FF8
3FF0000000001FF8
1FF0000000001FF8
1FF0000000003FF0
1FF8000000003FF0
0FF8000000003FE0
0FFC000000007FE0
07FC000000007FE0
07FC000000007FC0
07FE00000000FFC0
03FE00000000FF80
03FF00000001FF80
01FF00000001FF80
01FF00000001FF00
01FF80000003FF00
00FF80000003FE00
00FF80000003FE00
007FC0000007FE00
007FC0000007FC00
007FE000000FFC00
003FE000000FF800
003FE000000FF800
001FF000001FF800
001FF000001FF000
000FF000003FF000
000FF800003FF000
000FF800003FE000
0007FC00007FE000
0007FC00007FC000
0003FC00007FC000
0003FE0000FFC000
0003FE0000FF8000
0001FF0001FF8000
0001FF0001FF0000
0000FF0001FF0000
0000FF8003FF0000
0000FF8003FE0000
00007F8003FE0000
00007FC007FC0000
00003FC007FC0000
00003FE00FFC0000
00001FE00FF80000
00001FE00FF80000
00001FF01FF00000
00000FF01FF00000
00000FF03FF00000
000007F83FE00000
000007F83FE00000
000007FC7FC00000
000003FC7FC00000
000003FC7FC00000
000001FEFF800000
000001FEFF800000
000001FEFF000000
000000FFFF000000
000000FFFF000000
0000007FFE000000
0000007FFE000000
0000003FFE000000
0000003FFC000000
0000003FFC000000
0000001FF8000000
ENDCHAR
STARTCHAR W
ENCODING 87
SWIDTH 943 0
DWIDTH 89 0
BBX 87 65 1 0
BITMAP
FF80000007FFC0000003FE
FFC0000007FFC0000007FE
7FC0000007FFC0000007FC
7FC0000007FFC0000007FC
7FC000000FFFE0000007FC
7FC000000FFFE0000007FC
3FE000000FFFE000000FF8
3FE000001FFFF000000FF8
3FE000001FEFF000000FF8
3FE000001FEFF000000FF8
1FF000001FEFF000001FF0
1FF000003FC7F800001FF0
1FF000003FC7F800001FF0
1FF000003FC7F800001FF0
0FF000007FC3FC00001FE0
0FF800007F83FC00003FE0
0FF800007F83FC00003FE0
0FF800007F83FC00003FE0
07F80000FF01FE00003FC0
07FC0000FF01FE00007FC0
07FC0000FF01FE00007FC0
07FC0001FF00FF00007FC0
03FC0001FE00FF00007F80
03FC0001FE00FF00007F80
03FE0003FE007F0000FF80
03FE0003FC007F8000FF80
01FE0003FC007F8000FF00
01FE0003FC003F8000FF00
01FF0007FC003FC001FF00
01FF0007F8003FC001FF00
00FF0007F8003FC001FE00
00FF000FF8001FC001FE00
00FF000FF0001FE001FE00
00FF800FF0001FE003FE00
007F800FF0000FF003FC00
007F801FF0000FF003FC00
007F801FE0000FF003FC00
007F801FE00007F803FC00
003FC03FE00007F807F800
003FC03FC00007F807F800
003FC03FC00007FC07F800
003FC03FC00003FC07F800
001FE07FC00003FC0FF000
001FE07F800003FC0FF000
001FE07F800001FE0FF000
001FE0FF800001FE0FF000
000FE0FF000001FE0FE000
000FF0FF000000FF1FE000
000FF0FF000000FF1FE000
000FF1FF000000FF1FE000
0007F1FE0000007F1FC000
0007F9FE0000007FBFC000
0007FBFE0000007FBFC000
0007FBFC0000007FBFC000
0003FBFC0000003FBF8000
0003FBFC0000003FBF8000
0003FFFC0000003FFF8000
0003FFF80000001FFF8000
0001FFF80000001FFF0000
0001FFF80000001FFF0000
0001FFF00000000FFF0000
0001FFF00000000FFF0000
0000FFF00000000FFE0000
0000FFF000000007FE0000
0000FFE000000007FE0000
ENDCHAR
STARTCHAR X
ENCODING 88
SWIDTH 666 0
DWIDTH 60 0
BBX 59 65 0 0
BITMAP
0FFE0000000FFE00
07FF0000001FFC00
03FF0000003FF800
03FF8000003FF800
01FFC000007FF000
00FFE00000FFE000
00FFE00000FFE000
007FF00001FFC000
003FF80003FF8000
003FF80003FF8000
001FFC0007FF0000
000FFE000FFE0000
000FFE000FFE0000
0007FF001FFC0000
0003FF803FF80000
0001FF803FF80000
0001FFC07FF00000
0000FFE0FFE00000
00007FE0FFC00000
00007FF1FFC00000
00003FF3FF800000
00001FFFFF000000
00001FFFFF000000
00000FFFFE000000
000007FFFC000000
000007FFFC000000
000003FFF8000000
000001FFF0000000
000001FFF0000000
000000FFE0000000
000001FFF0000000
000001FFF0000000
000003FFF8000000
000007FFFC000000
000007FFFC000000
00000FFFFE000000
00001FFFFF000000
00001FFFFF000000
00003FFBFF800000
00007FF1FFC00000
00007FF0FFC00000
0000FFE0FFE00000
0001FFC07FF00000
0001FFC03FF00000
0003FF803FF80000
0007FF001FFC0000
0007FF000FFC0000
000FFE000FFE0000
001FFC0007FF0000
003FF80003FF0000
003FF80003FF8000
007FF00001FFC000
00FFE00000FFE000
00FFE00000FFE000
01FFC000007FF000
03FF8000003FF800
03FF8000003FF800
07FF0000001FFC00
0FFE0000000FFE00
0FFE0000000FFE00
1FFC00000007FF00
3FF800000003FF80
3FF800000001FF80
7FF000000001FFC0
FFE000000000FFE0
ENDCHAR
STARTCHAR Y
ENCODING 89
SWIDTH 666 0
DWIDTH 59 0
BBX 59 65 0 0
BITMAP
FFE000000000FFE0
7FF000000001FFC0
3FF000000001FF80
3FF800000003FF80
1FFC00000003FF00
0FFC00000007FE00
0FFE0000000FFE00
07FF0000000FFC00
03FF0000001FF800
03FF8000003FF800
01FFC000003FF000
00FFC000007FE000
00FFE000007FE000
007FF00000FFC000
003FF00001FF8000
003FF80001FF8000
001FFC0003FF0000
000FFC0007FE0000
000FFE0007FE0000
0007FF000FFC0000
0003FF000FF80000
0003FF801FF80000
0001FFC03FF00000
0000FFC03FE00000
0000FFE07FE00000
00007FF0FFC00000
00003FF0FF800000
00003FF9FF800000
00001FFDFF000000
00000FFFFE000000
00000FFFFE000000
000007FFFC000000
000003FFF8000000
000003FFF8000000
000001FFF0000000
000000FFE0000000
000000FFE0000000
0000007FC0000000
0000007FC0000000
0000007FC0000000
0000007FC0000000
0000007FC0000000
0000007FC0000000
0000007FC0000000
0000007FC0000000
0000007FC0000000
0000007FC0000000
0000007FC0000000
0000007FC0000000
0000007FC0000000
0000007FC0000000
0000007FC0000000
0000007FC0000000
0000007FC0000000
0000007FC0000000
0000007FC0000000
0000007FC0000000
0000007FC0000000
0000007FC0000000
0000007FC0000000
0000007FC0000000
0000007FC0000000
0000007FC0000000
0000007FC0000000
0000007FC0000000
ENDCHAR
STARTCHAR Z
ENCODING 90
SWIDTH 610 0
DWIDTH 55 0
BBX 51 65 2 0
BITMAP
0FFFFFFFFFFF80
0FFFFFFFFFFF80
0FFFFFFFFFFF80
0FFFFFFFFFFF80
0FFFFFFFFFFF80
0FFFFFFFFFFF80
0FFFFFFFFFFF80
0FFFFFFFFFFF80
0000000007FF80
000000000FFF00
000000000FFE00
000000001FFC00
000000003FFC00
000000007FF800
000000007FF000
00000000FFE000
00000001FFC000
00000003FFC000
00000003FF8000
00000007FF0000
0000000FFE0000
0000001FFE0000
0000003FFC0000
0000003FF80000
0000007FF00000
000000FFE00000
000001FFE00000
000001FFC00000
000003FF800000
000007FF000000
00000FFF000000
00001FFE000000
00001FFC000000
00003FF8000000
00007FF8000000
0000FFF0000000
0000FFE0000000
0001FFC0000000
0003FF80000000
0007FF80000000
0007FF00000000
000FFE00000000
001FFC00000000
003FFC00000000
007FF800000000
007FF000000000
00FFE000000000
01FFC000000000
03FFC000000000
03FF8000000000
07FF0000000000
0FFE0000000000
1FFE0000000000
3FFC0000000000
3FF80000000000
7FF00000000000
FFF00000000000
FFFFFFFFFFFFE0
FFFFFFFFFFFFE0
FFFFFFFFFFFFE0
FFFFFFFFFFFFE0
FFFFFFFFFFFFE0
FFFFFFFFFFFFE0
FFFFFFFFFFFFE0
FFFFFFFFFFFFE0
ENDCHAR
STARTCHAR bracketleft
ENCODING 91
SWIDTH 277 0
DWIDTH 25 0
BBX 17 83 6 -18
BITMAP
FFFF80
FFFF80
FFFF80
FFFF80
FFFF80
FFFF80
FFFF80
FFFF80
FF0000
FF0000
FF0000
FF0000
FF0000
FF0000
FF0000
FF0000
FF0000
FF0000
FF0000
FF0000
FF0000
FF0000
FF0000
FF0000
FF0000
FF0000
FF0000
FF0000
FF0000
FF0000
FF0000
FF0000
FF0000
FF0000
FF0000
FF0000
FF0000
FF0000
FF0000
FF0000
FF0000
FF0000
FF0000
FF0000
FF0000
FF0000
FF0000
FF0000
FF0000
FF0000
FF0000
FF0000
FF0000
FF0000
FF0000
FF0000
FF0000
FF0000
FF0000
FF0000
FF0000
FF0000
FF0000
FF0000
FF0000
FF0000
FF0000
FF0000
FF0000
FF0000
FF0000
FF0000
FF0000
FF0000
FF0000
FFFF80
FFFF80
FFFF80
FFFF80
FFFF80
FFFF80
FFFF80
FFFF80
ENDCHAR
STARTCHAR backslash
ENCODING 92
SWIDTH 277 0
DWIDTH 25 0
BBX 26 65 1 0
BITMAP
FE000000
FE000000
FF000000
7F000000
7F000000
7F800000
3F800000
3F800000
3F800000
1FC00000
1FC00000
1FC00000
1FE00000
0FE00000
0FE00000
0FF00000
07F00000
07F00000
07F00000
07F80000
03F80000
03F80000
03FC0000
01FC0000
01FC0000
01FC0000
00FE0000
00FE0000
00FE0000
00FF0000
007F0000
007F0000
007F0000
003F8000
003F8000
003F8000
003FC000
001FC000
001FC000
001FE000
000FE000
000FE000
000FE000
000FF000
0007F000
0007F000
0007F800
0003F800
0003F800
0003F800
0001FC00
0001FC00
0001FC00
0001FE00
0000FE00
0000FE00
0000FF00
00007F00
00007F00
00007F00
00007F80
00003F80
00003F80
00003FC0
00001FC0
ENDCHAR
STARTCHAR bracketright
ENCODING 93
SWIDTH 277 0
DWIDTH 25 0
BBX 17 83 2 -18
BITMAP
FFFF80
FFFF80
FFFF80
FFFF80
FFFF80
FFFF80
FFFF80
FFFF80
007F80
007F80
007F80
007F80
007F80
007F80
007F80
007F80
007F80
007F80
007F80
007F80
007F80
007F80
007F80
007F80
007F80
007F80
007F80
007F80
007F80
007F80
007F80
007F80
007F80
007F80
007F80
007F80
007F80
007F80
007F80
007F80
007F80
007F80
007F80
007F80
007F80
007F80
007F80
007F80
007F80
007F80
007F80
007F80
007F80
007F80
007F80
007F80
007F80
007F80
007F80
007F80
007F80
007F80
007F80
007F80
007F80
007F80
007F80
007F80
007F80
007F80
007F80
007F80
007F80
007F80
007F80
FFFF80
FFFF80
FFFF80
FFFF80
FFFF80
FFFF80
FFFF80
FFFF80
ENDCHAR
STARTCHAR asciicircum
ENCODING 94
SWIDTH 469 0
DWIDTH 41 0
BBX 37 35 2 31
BITMAP
0001FC0000
0003FE0000
0003FE0000
0007FF0000
0007FF0000
0007FF0000
000FFF8000
000FFF8000
001FDFC000
001FDFC000
003FDFE000
003F8FE000
003F8FE000
007F07F000
007F07F000
00FF07F800
00FE03F800
01FE03FC00
01FC01FC00
01FC01FC00
03FC01FE00
03F800FE00
07F800FF00
07F0007F00
0FF0007F80
0FF0007F80
0FE0003F80
1FE0003FC0
1FE0003FC0
3FC0001FE0
3FC0001FE0
7F80000FF0
7F80000FF0
7F80000FF0
FF000007F8
ENDCHAR
STARTCHAR underscore
ENCODING 95
SWIDTH 556 0
DWIDTH 50 0
BBX 52 8 -1 -18
BITMAP
FFFFFFFFFFFFF0
FFFFFFFFFFFFF0
FFFFFFFFFFFFF0
FFFFFFFFFFFFF0
FFFFFFFFFFFFF0
FFFFFFFFFFFFF0
FFFFFFFFFFFFF0
FFFFFFFFFFFFF0
ENDCHAR
STARTCHAR grave
ENCODING 96
SWIDTH 333 0
DWIDTH 30 0
BBX 16 12 4 53
BITMAP
FFC0
7FE0
3FE0
1FF0
0FF0
07F8
07F8
03FC
01FC
00FE
007E
003F
ENDCHAR
STARTCHAR a
ENCODING 97
SWIDTH 556 0
DWIDTH 50 0
BBX 42 49 4 -1
BITMAP
0000FFF00000
000FFFFF0000
007FFFFFC000
01FFFFFFF000
03FFFFFFF800
07FFFFFFFC00
0FFFFFFFFC00
1FFFFFFFFE00
1FFF003FFE00
3FF8000FFE00
3FF00003FF00
3FE00001FF00
7FC00001FF00
7FC00000FF00
07800000FF00
00000000FF00
00000000FF00
00000000FF00
00000003FF00
0000003FFF00
00000FFFFF00
0007FFFFFF00
003FFFFFFF00
01FFFFFFFF00
03FFFFFFFF00
0FFFFFFFFF00
1FFFFFFCFF00
1FFFFFC0FF00
3FFFE000FF00
7FF80000FF00
7FE00000FF00
7F800000FF00
FF800001FF00
FF000001FF00
FF000001FF00
FF000003FF00
FF000007FF00
FF80000FFF00
FFC0003FFF00
7FE0007FFF00
7FF803FFFF00
7FFFFFFFFF00
3FFFFFFFFF80
3FFFFFFCFF80
1FFFFFF8FF80
0FFFFFF07F80
03FFFFC07F80
01FFFF003FC0
001FF8000000
ENDCHAR
STARTCHAR b
ENCODING 98
SWIDTH 556 0
DWIDTH 50 0
BBX 41 66 6 -1
BITMAP
FF0000000000
FF0000000000
FF0000000000
FF0000000000
FF0000000000
FF0000000000
FF0000000000
FF0000000000
FF0000000000
FF0000000000
FF0000000000
FF0000000000
FF0000000000
FF0000000000
FF0000000000
FF0000000000
FF0000000000
FF007FC00000
FF01FFF80000
FF07FFFE0000
FF0FFFFF0000
FF1FFFFFC000
FF3FFFFFE000
FF7FFFFFF000
FFFFFFFFF000
FFFF80FFF800
FFFE003FFC00
FFFC000FFC00
FFF00007FE00
FFE00003FE00
FFE00003FE00
FFC00001FF00
FFC00001FF00
FF800000FF00
FF800000FF00
FF800000FF80
FF0000007F80
FF0000007F80
FF0000007F80
FF0000007F80
FF0000007F80
FF0000007F80
FF0000007F80
FF0000007F80
FF0000007F80
FF0000007F80
FF0000007F80
FF000000FF00
FF800000FF00
FF800000FF00
FF800001FF00
FFC00001FF00
FFC00003FE00
FFE00003FE00
FFF00007FC00
FFF8001FFC00
FFFE003FF800
FFFF80FFF800
FF7FFFFFF000
FF7FFFFFE000
FF3FFFFFC000
FF1FFFFF8000
FF0FFFFF0000
FF07FFFC0000
FF01FFF00000
00007F800000
ENDCHAR
STARTCHAR c
ENCODING 99
SWIDTH 500 0
DWIDTH 45 0
BBX 40 49 4 -1
BITMAP
0000FFC000
0007FFF800
001FFFFE00
007FFFFF00
01FFFFFFC0
03FFFFFFE0
07FFFFFFE0
07FFFFFFF0
0FFF80FFF8
1FFE001FF8
1FF8000FFC
3FF00007FC
3FE00003FC
3FC00003FE
7FC00003FE
7F800001E0
7F80000000
7F80000000
FF80000000
FF00000000
FF00000000
FF00000000
FF00000000
FF00000000
FF00000000
FF00000000
FF00000000
FF00000000
FF00000000
FF00000000
FF80000000
7F800000F0
7F800000FF
7F800001FF
7FC00001FE
3FC00001FE
3FE00003FE
3FF00007FE
1FF8000FFC
1FFC001FFC
0FFF80FFF8
07FFFFFFF0
03FFFFFFF0
03FFFFFFE0
00FFFFFFC0
007FFFFF00
003FFFFE00
0007FFF800
0000FFC000
ENDCHAR
STARTCHAR d
ENCODING 100
SWIDTH 556 0
DWIDTH 50 0
BBX 41 66 3 -1
BITMAP
000000007F80
000000007F80
000000007F80
000000007F80
000000007F80
000000007F80
000000007F80
000000007F80
000000007F80
000000007F80
000000007F80
000000007F80
000000007F80
000000007F80
000000007F80
000000007F80
000000007F80
0001FF007F80
000FFFC07F80
003FFFF07F80
007FFFF87F80
01FFFFFC7F80
03FFFFFE7F80
03FFFFFF7F80
07FFFFFFFF80
0FFF80FFFF80
1FFE003FFF80
1FF8000FFF80
3FF00007FF80
3FE00003FF80
3FC00003FF80
7FC00001FF80
7F800001FF80
7F800000FF80
7F800000FF80
FF800000FF80
FF0000007F80
FF0000007F80
FF0000007F80
FF0000007F80
FF0000007F80
FF0000007F80
FF0000007F80
FF0000007F80
FF0000007F80
FF0000007F80
FF0000007F80
FF800000FF80
7F800000FF80
7F800000FF80
7FC00000FF80
7FC00001FF80
3FE00001FF80
3FE00003FF80
1FF00007FF80
1FF8000FFF80
0FFE003FFF80
0FFF80FFFF80
07FFFFFF7F80
03FFFFFF7F80
01FFFFFE7F80
00FFFFFC7F80
007FFFF87F80
001FFFF07F80
0007FFC07F80
0000FF000000
ENDCHAR
STARTCHAR e
ENCODING 101
SWIDTH 556 0
DWIDTH 50 0
BBX 44 49 3 -1
BITMAP
00007FE00000
0003FFFE0000
001FFFFF8000
003FFFFFC000
00FFFFFFF000
01FFFFFFF800
03FFFFFFFC00
07FFFFFFFE00
07FFC01FFF00
0FFE0007FF00
1FF80001FF80
1FF00000FF80
3FE000007FC0
3FC000003FC0
7F8000001FE0
7F8000001FE0
7F0000001FE0
7F0000000FE0
FF0000000FE0
FFFFFFFFFFF0
FFFFFFFFFFF0
FFFFFFFFFFF0
FFFFFFFFFFF0
FFFFFFFFFFF0
FFFFFFFFFFF0
FFFFFFFFFFF0
FFFFFFFFFFF0
FF0000000000
FF0000000000
FF0000000000
FF8000000000
7F8000000000
7F8000000000
7FC000000000
7FC000000F00
3FE000001FF0
3FF000003FE0
1FF800007FE0
1FFC0000FFC0
0FFF0003FFC0
0FFFE00FFF80
07FFFFFFFF00
03FFFFFFFF00
01FFFFFFFE00
00FFFFFFFC00
003FFFFFF000
001FFFFFE000
0003FFFF0000
00007FF00000
ENDCHAR
STARTCHAR f
ENCODING 102
SWIDTH 277 0
DWIDTH 26 0
BBX 27 66 1 0
BITMAP
0001FFC0
0007FFE0
001FFFE0
003FFFE0
007FFFE0
007FFFE0
00FFFFE0
00FFFFC0
01FFC000
01FF0000
01FF0000
01FE0000
01FE0000
01FE0000
01FE0000
01FE0000
01FE0000
01FE0000
01FE0000
FFFFFF00
FFFFFF00
FFFFFF00
FFFFFF00
FFFFFF00
FFFFFF00
FFFFFF00
FFFFFF00
01FE0000
01FE0000
01FE0000
01FE0000
01FE0000
01FE0000
01FE0000
01FE0000
01FE0000
01FE0000
01FE0000
01FE0000
01FE0000
01FE0000
01FE0000
01FE0000
01FE0000
01FE0000
01FE0000
01FE0000
01FE0000
01FE0000
01FE0000
01FE0000
01FE0000
01FE0000
01FE0000
01FE0000
01FE0000
01FE0000
01FE0000
01FE0000
01FE0000
01FE0000
01FE0000
01FE0000
01FE0000
01FE0000
01FE0000
ENDCHAR
STARTCHAR g
ENCODING 103
SWIDTH 556 0
DWIDTH 50 0
BBX 41 67 3 -19
BITMAP
0001FF000000
000FFFE07F80
003FFFF07F80
007FFFFC7F80
01FFFFFE7F80
03FFFFFF7F80
07FFFFFFFF80
07FFFFFFFF80
0FFF80FFFF80
1FFE003FFF80
1FF8000FFF80
3FF00007FF80
3FE00003FF80
3FC00003FF80
7FC00001FF80
7F800001FF80
7F800000FF80
7F800000FF80
FF800000FF80
FF0000007F80
FF0000007F80
FF0000007F80
FF0000007F80
FF0000007F80
FF0000007F80
FF0000007F80
FF0000007F80
FF0000007F80
FF0000007F80
FF800000FF80
7F800000FF80
7F800000FF80
7F800000FF80
7FC00001FF80
3FC00001FF80
3FE00003FF80
1FF00007FF80
1FF8000FFF80
0FFE003FFF80
0FFF80FFFF80
07FFFFFFFF80
03FFFFFFFF80
03FFFFFFFF80
01FFFFFF7F80
007FFFFC7F80
003FFFF87F80
000FFFE07F80
0001FF007F80
000000007F80
000000007F80
000000007F80
00000000FF00
78000000FF00
7F800000FF00
7F800001FF00
7FC00003FE00
7FE00007FE00
3FF0001FFE00
3FFE007FFC00
1FFFFFFFF800
1FFFFFFFF000
0FFFFFFFF000
07FFFFFFC000
03FFFFFF8000
00FFFFFE0000
003FFFF80000
0003FFC00000
ENDCHAR
STARTCHAR h
ENCODING 104
SWIDTH 556 0
DWIDTH 50 0
BBX 38 65 6 0
BITMAP
FF00000000
FF00000000
FF00000000
FF00000000
FF00000000
FF00000000
FF00000000
FF00000000
FF00000000
FF00000000
FF00000000
FF00000000
FF00000000
FF00000000
FF00000000
FF00000000
FF00000000
FF003FE000
FF01FFFC00
FF07FFFF00
FF0FFFFF80
FF1FFFFFC0
FF3FFFFFE0
FF7FFFFFF0
FFFFFFFFF0
FFFF80FFF8
FFFC003FF8
FFF8001FF8
FFE0000FF8
FFE00007FC
FFC00007FC
FF800007FC
FF800003FC
FF800003FC
FF000003FC
FF000003FC
FF000003FC
FF000003FC
FF000003FC
FF000003FC
FF000003FC
FF000003FC
FF000003FC
FF000003FC
FF000003FC
FF000003FC
FF000003FC
FF000003FC
FF000003FC
FF000003FC
FF000003FC
FF000003FC
FF000003FC
FF000003FC
FF000003FC
FF000003FC
FF000003FC
FF000003FC
FF000003FC
FF000003FC
FF000003FC
FF000003FC
FF000003FC
FF000003FC
FF000003FC
ENDCHAR
STARTCHAR i
ENCODING 105
SWIDTH 222 0
DWIDTH 20 0
BBX 8 65 6 0
BITMAP
FF
FF
FF
FF
FF
FF
FF
FF
00
00
00
00
00
00
00
00
00
00
FF
FF
FF
FF
FF
FF
FF
FF
FF
FF
FF
FF
FF
FF
FF
FF
FF
FF
FF
FF
FF
FF
FF
FF
FF
FF
FF
FF
FF
FF
FF
FF
FF
FF
FF
FF
FF
FF
FF
FF
FF
FF
FF
FF
FF
FF
FF
ENDCHAR
STARTCHAR j
ENCODING 106
SWIDTH 222 0
DWIDTH 20 0
BBX 18 84 -4 -19
BITMAP
003FC0
003FC0
003FC0
003FC0
003FC0
003FC0
003FC0
003FC0
000000
000000
000000
000000
000000
000000
000000
000000
000000
000000
003FC0
003FC0
003FC0
003FC0
003FC0
003FC0
003FC0
003FC0
003FC0
003FC0
003FC0
003FC0
003FC0
003FC0
003FC0
003FC0
003FC0
003FC0
003FC0
003FC0
003FC0
003FC0
003FC0
003FC0
003FC0
003FC0
003FC0
003FC0
003FC0
003FC0
003FC0
003FC0
003FC0
003FC0
003FC0
003FC0
003FC0
003FC0
003FC0
003FC0
003FC0
003FC0
003FC0
003FC0
003FC0
003FC0
003FC0
003FC0
003FC0
003FC0
003FC0
003FC0
003FC0
003FC0
003FC0
007FC0
007F80
01FF80
7FFF80
7FFF80
7FFF00
7FFF00
FFFE00
FFFC00
FFF800
7FC000
ENDCHAR
STARTCHAR k
ENCODING 107
SWIDTH 500 0
DWIDTH 46 0
BBX 39 65 6 0
BITMAP
FF00000000
FF00000000
FF00000000
FF00000000
FF00000000
FF00000000
FF00000000
FF00000000
FF00000000
FF00000000
FF00000000
FF00000000
FF00000000
FF00000000
FF00000000
FF00000000
FF00000000
FF00000000
FF00003FF8
FF00007FF0
FF0000FFE0
FF0001FFC0
FF0003FF80
FF0007FF00
FF000FFE00
FF001FFC00
FF003FF800
FF007FF000
FF00FFE000
FF01FFC000
FF07FF8000
FF0FFF0000
FF1FFE0000
FF3FFC0000
FF7FF00000
FFFFE00000
FFFFF00000
FFFFF00000
FFFFF80000
FFFFFC0000
FFFFFC0000
FFFBFE0000
FFF3FF0000
FFE1FF0000
FFC0FF8000
FF80FFC000
FF007FC000
FF003FE000
FF003FF000
FF001FF800
FF000FF800
FF000FFC00
FF0007FE00
FF0003FE00
FF0003FF00
FF0001FF80
FF0000FF80
FF0000FFC0
FF00007FE0
FF00003FE0
FF00003FF0
FF00001FF8
FF00000FF8
FF000007FC
FF000007FE
ENDCHAR
STARTCHAR l
ENCODING 108
SWIDTH 222 0
DWIDTH 20 0
BBX 8 65 6 0
BITMAP
FF
FF
FF
FF
FF
FF
FF
FF
FF
FF
FF
FF
FF
FF
FF
FF
FF
FF
FF
FF
FF
FF
FF
FF
FF
FF
FF
FF
FF
FF
FF
FF
FF
FF
FF
FF
FF
FF
FF
FF
FF
FF
FF
FF
FF
FF
FF
FF
FF
FF
FF
FF
FF
FF
FF
FF
FF
FF
FF
FF
FF
FF
FF
FF
FF
ENDCHAR
STARTCHAR m
ENCODING 109
SWIDTH 833 0
DWIDTH 76 0
BBX 64 48 6 0
BITMAP
00003FC00007FC00
FF01FFF8001FFF80
FF03FFFC007FFFE0
FF0FFFFE00FFFFF0
FF1FFFFF03FFFFF8
FF3FFFFF83FFFFFC
FF7FFFFFC7FFFFFC
FF7FFFFFCFFFFFFE
FFFF01FFDFF01FFE
FFFC007FFFC007FE
FFF0003FFF0003FE
FFE0001FFE0001FF
FFC0001FFC0001FF
FFC0001FFC0001FF
FF80000FF80000FF
FF80000FF80000FF
FF80000FF80000FF
FF80000FF00000FF
FF00000FF00000FF
FF00000FF00000FF
FF00000FF00000FF
FF00000FF00000FF
FF00000FF00000FF
FF00000FF00000FF
FF00000FF00000FF
FF00000FF00000FF
FF00000FF00000FF
FF00000FF00000FF
FF00000FF00000FF
FF00000FF00000FF
FF00000FF00000FF
FF00000FF00000FF
FF00000FF00000FF
FF00000FF00000FF
FF00000FF00000FF
FF00000FF00000FF
FF00000FF00000FF
FF00000FF00000FF
FF00000FF00000FF
FF00000FF00000FF
FF00000FF00000FF
FF00000FF00000FF
FF00000FF00000FF
FF00000FF00000FF
FF00000FF00000FF
FF00000FF00000FF
FF00000FF00000FF
FF00000FF00000FF
ENDCHAR
STARTCHAR n
ENCODING 110
SWIDTH 556 0
DWIDTH 50 0
BBX 38 48 6 0
BITMAP
00003FE000
FF01FFFC00
FF07FFFF00
FF0FFFFF80
FF1FFFFFC0
FF3FFFFFE0
FF7FFFFFF0
FFFFFFFFF0
FFFF80FFF8
FFFC003FF8
FFF0001FF8
FFE0000FFC
FFC00007FC
FFC00007FC
FF800007FC
FF800003FC
FF800003FC
FF000003FC
FF000003FC
FF000003FC
FF000003FC
FF000003FC
FF000003FC
FF000003FC
FF000003FC
FF000003FC
FF000003FC
FF000003FC
FF000003FC
FF000003FC
FF000003FC
FF000003FC
FF000003FC
FF000003FC
FF000003FC
FF000003FC
FF000003FC
FF000003FC
FF000003FC
FF000003FC
FF000003FC
FF000003FC
FF000003FC
FF000003FC
FF000003FC
FF000003FC
FF000003FC
FF000003FC
ENDCHAR
STARTCHAR o
ENCODING 111
SWIDTH 556 0
DWIDTH 50 0
BBX 42 49 4 -1
BITMAP
0000FFC00000
0007FFF80000
001FFFFE0000
007FFFFF8000
00FFFFFFC000
01FFFFFFE000
03FFFFFFF000
07FFFFFFF800
0FFF807FFC00
1FFE001FFC00
1FF8000FFE00
3FF00003FF00
3FE00001FF00
3FE00001FF00
7FC00000FF80
7FC00000FF80
7F8000007F80
7F8000007F80
FF8000007FC0
FF0000003FC0
FF0000003FC0
FF0000003FC0
FF0000003FC0
FF0000003FC0
FF0000003FC0
FF0000003FC0
FF0000003FC0
FF0000003FC0
FF0000003FC0
FF0000003FC0
FF8000007FC0
7F8000007F80
7F8000007F80
7FC00000FF80
7FC00000FF80
3FE00001FF00
3FE00001FF00
3FF00003FF00
1FF80007FE00
1FFE001FFE00
0FFF807FFC00
07FFFFFFF800
03FFFFFFF000
01FFFFFFE000
00FFFFFFC000
007FFFFF8000
001FFFFE0000
0007FFF80000
0000FFC00000
ENDCHAR
STARTCHAR p
ENCODING 112
SWIDTH 556 0
DWIDTH 50 0
BBX 41 66 6 -18
BITMAP
00007FC00000
FF01FFF80000
FF07FFFE0000
FF0FFFFF0000
FF1FFFFFC000
FF3FFFFFE000
FF7FFFFFF000
FF7FFFFFF000
FFFFC0FFF800
FFFE003FFC00
FFFC000FFC00
FFF80007FE00
FFF00003FE00
FFE00003FE00
FFC00001FF00
FFC00001FF00
FF800000FF00
FF800000FF00
FF800000FF80
FF0000007F80
FF0000007F80
FF0000007F80
FF0000007F80
FF0000007F80
FF0000007F80
FF0000007F80
FF0000007F80
FF0000007F80
FF0000007F80
FF0000007F80
FF000000FF00
FF800000FF00
FF800000FF00
FF800001FF00
FFC00001FE00
FFC00003FE00
FFE00003FE00
FFF00007FC00
FFF8000FFC00
FFFE003FF800
FFFF80FFF000
FFFFFFFFF000
FFFFFFFFE000
FF7FFFFFC000
FF3FFFFF8000
FF1FFFFE0000
FF07FFFC0000
FF03FFF00000
FF007F800000
FF0000000000
FF0000000000
FF0000000000
FF0000000000
FF0000000000
FF0000000000
FF0000000000
FF0000000000
FF0000000000
FF0000000000
FF0000000000
FF0000000000
FF0000000000
FF0000000000
FF0000000000
FF0000000000
FF0000000000
ENDCHAR
STARTCHAR q
ENCODING 113
SWIDTH 556 0
DWIDTH 50 0
BBX 41 66 3 -18
BITMAP
0001FE000000
000FFFC07F80
003FFFF07F80
007FFFF87F80
01FFFFFC7F80
03FFFFFE7F80
07FFFFFE7F80
07FFFFFF7F80
0FFF81FFFF80
1FFE003FFF80
1FF8001FFF80
3FF0000FFF80
3FE00007FF80
3FC00003FF80
7FC00001FF80
7F800001FF80
7F800000FF80
7F800000FF80
FF800000FF80
FF000000FF80
FF0000007F80
FF0000007F80
FF0000007F80
FF0000007F80
FF0000007F80
FF0000007F80
FF0000007F80
FF0000007F80
FF0000007F80
FF0000007F80
7F800000FF80
7F800000FF80
7F800000FF80
7FC00000FF80
3FC00001FF80
3FE00001FF80
3FE00003FF80
1FF00007FF80
1FF8000FFF80
0FFE003FFF80
07FF80FFFF80
07FFFFFFFF80
03FFFFFF7F80
01FFFFFF7F80
00FFFFFE7F80
003FFFFC7F80
001FFFF07F80
0007FFE07F80
0000FF007F80
000000007F80
000000007F80
000000007F80
000000007F80
000000007F80
000000007F80
000000007F80
000000007F80
000000007F80
000000007F80
000000007F80
000000007F80
000000007F80
000000007F80
000000007F80
000000007F80
000000007F80
ENDCHAR
STARTCHAR r
ENCODING 114
SWIDTH 333 0
DWIDTH 30 0
BBX 25 48 6 0
BITMAP
0003F800
FE0FFE00
FE1FFF80
FE3FFF80
FE7FFF00
FEFFFF00
FEFFFF00
FFFFFE00
FFFC0E00
FFF00000
FFE00000
FFC00000
FFC00000
FF800000
FF800000
FF800000
FF800000
FF000000
FF000000
FF000000
FF000000
FF000000
FF000000
FF000000
FF000000
FF000000
FF000000
FF000000
FF000000
FF000000
FF000000
FF000000
FF000000
FF000000
FF000000
FF000000
FF000000
FF000000
FF000000
FF000000
FF000000
FF000000
FF000000
FF000000
FF000000
FF000000
FF000000
FF000000
ENDCHAR
STARTCHAR s
ENCODING 115
SWIDTH 500 0
DWIDTH 45 0
BBX 39 49 3 -1
BITMAP
0007FF0000
003FFFF000
00FFFFFC00
03FFFFFF00
07FFFFFF80
0FFFFFFFC0
1FFFFFFFE0
1FFFFFFFE0
3FFC01FFF0
3FE0003FF0
7FC0001FF0
7F80000FF8
7F800007F8
7F80000780
7F80000000
7FC0000000
7FE0000000
3FFC000000
3FFFC00000
3FFFFC0000
1FFFFFC000
0FFFFFF800
07FFFFFE00
03FFFFFF80
01FFFFFFE0
007FFFFFF0
000FFFFFF8
0001FFFFF8
00001FFFFC
000001FFFC
0000001FFE
00000007FE
00000003FE
0F000001FE
FF000001FE
FF800001FE
7F800001FE
7FC00003FC
7FE00007FC
3FF8000FFC
3FFE007FF8
1FFFFFFFF8
1FFFFFFFF0
0FFFFFFFE0
07FFFFFFC0
03FFFFFF80
00FFFFFE00
003FFFF800
0003FF8000
ENDCHAR
STARTCHAR t
ENCODING 116
SWIDTH 277 0
DWIDTH 25 0
BBX 23 64 1 -1
BITMAP
000400
001C00
007C00
00FC00
03FC00
03FC00
03FC00
03FC00
03FC00
03FC00
03FC00
03FC00
03FC00
03FC00
03FC00
03FC00
FFFFFC
FFFFFC
FFFFFC
FFFFFC
FFFFFC
FFFFFC
FFFFFC
FFFFFC
03FC00
03FC00
03FC00
03FC00
03FC00
03FC00
03FC00
03FC00
03FC00
03FC00
03FC00
03FC00
03FC00
03FC00
03FC00
03FC00
03FC00
03FC00
03FC00
03FC00
03FC00
03FC00
03FC00
03FC00
03FC00
03FC00
03FC00
03FC00
03FC00
03FC00
03FE00
03FF00
03FFFC
03FFFC
01FFFC
01FFFC
00FFFE
007FFE
003FFE
0007FC
ENDCHAR
STARTCHAR u
ENCODING 117
SWIDTH 556 0
DWIDTH 50 0
BBX 38 48 6 -1
BITMAP
FF000003FC
FF000003FC
FF000003FC
FF000003FC
FF000003FC
FF000003FC
FF000003FC
FF000003FC
FF000003FC
FF000003FC
FF000003FC
FF000003FC
FF000003FC
FF000003FC
FF000003FC
FF000003FC
FF000003FC
FF000003FC
FF000003FC
FF000003FC
FF000003FC
FF000003FC
FF000003FC
FF000003FC
FF000003FC
FF000003FC
FF000003FC
FF000003FC
FF000003FC
FF000003FC
FF000003FC
FF000007FC
FF000007FC
FF000007FC
FF80000FFC
FF80001FFC
FFC0001FFC
7FE0007FFC
7FF000FFFC
7FFC07FFFC
3FFFFFFBFC
3FFFFFF3FC
1FFFFFE3FC
0FFFFFC3FC
07FFFF83FC
03FFFF03FC
00FFFC03FC
001FF00000
ENDCHAR
STARTCHAR v
ENCODING 118
SWIDTH 500 0
DWIDTH 45 0
BBX 43 47 1 0
BITMAP
FF8000003FE0
7F8000003FC0
7F8000003FC0
7FC000007FC0
3FC000007F80
3FC000007F80
3FE00000FF80
1FE00000FF00
1FE00000FF00
1FF00001FF00
0FF00001FE00
0FF80003FE00
0FF80003FE00
07F80003FC00
07FC0007FC00
07FC0007FC00
03FC0007F800
03FE000FF800
01FE000FF800
01FE000FF000
01FF001FF000
00FF001FE000
00FF001FE000
00FF803FE000
007F803FC000
007FC03FC000
007FC07FC000
003FC07F8000
003FE07F8000
003FE0FF8000
001FE0FF0000
001FF1FF0000
001FF1FF0000
000FF1FE0000
000FFBFE0000
0007FBFE0000
0007FBFC0000
0007FBFC0000
0003FFFC0000
0003FFF80000
0003FFF80000
0001FFF80000
0001FFF00000
0001FFF00000
0000FFE00000
0000FFE00000
0000FFE00000
ENDCHAR
STARTCHAR w
ENCODING 119
SWIDTH 722 0
DWIDTH 63 0
BBX 63 47 0 0
BITMAP
FF00001FF00001FE
FF00003FF80001FE
FF80003FF80003FE
7F80003FF80003FC
7F80003FF80003FC
7F80003FFC0007FC
7FC0007FFC0007FC
3FC0007FFC0007F8
3FC0007FFC0007F8
3FE0007FFE000FF8
1FE000FFFE000FF0
1FE000FEFE000FF0
1FF000FEFE001FF0
0FF000FEFE001FE0
0FF001FEFF001FE0
0FF001FCFF001FE0
07F801FC7F003FC0
07F801FC7F003FC0
07F803FC7F803FC0
07FC03FC7F807FC0
03FC03F83F807F80
03FC03F83F807F80
03FE03F83FC0FF80
01FE07F83FC0FF00
01FE07F83FC0FF00
01FE07F01FC0FF00
00FF07F01FC1FE00
00FF0FF01FE1FE00
00FF0FF01FE1FE00
00FF0FE00FE3FC00
007F8FE00FE3FC00
007F8FE00FF3FC00
007F9FE00FF3FC00
003F9FE00FF7F800
003FDFC007F7F800
003FDFC007F7F800
001FFFC007FFF000
001FFFC007FFF000
001FFF8003FFF000
000FFF8003FFE000
000FFF8003FFE000
000FFF8003FFE000
000FFF8003FFC000
0007FF0001FFC000
0007FF0001FFC000
0007FF0001FFC000
0003FF0001FF8000
ENDCHAR
STARTCHAR x
ENCODING 120
SWIDTH 500 0
DWIDTH 45 0
BBX 43 47 1 0
BITMAP
7FE000003FE0
3FF000007FE0
1FF00000FFC0
1FF80001FF80
0FFC0001FF00
07FC0003FF00
07FE0007FE00
03FF0007FC00
01FF000FF800
00FF801FF800
00FFC03FF000
007FE03FE000
003FE07FE000
003FF0FFC000
001FF9FF8000
000FF9FF0000
000FFFFF0000
0007FFFE0000
0003FFFC0000
0003FFFC0000
0001FFF80000
0000FFF00000
0000FFE00000
00007FE00000
0000FFF00000
0000FFF00000
0001FFF80000
0003FFFC0000
0007FFFC0000
0007FFFE0000
000FFFFF0000
001FF9FF0000
003FF1FF8000
003FE0FFC000
007FE07FC000
00FFC07FE000
00FF803FF000
01FF801FF000
03FF000FF800
07FE000FFC00
07FC0007FE00
0FFC0003FE00
1FF80003FF00
1FF00001FF80
3FE00000FF80
7FE00000FFC0
FFC000007FE0
ENDCHAR
STARTCHAR y
ENCODING 121
SWIDTH 500 0
DWIDTH 43 0
BBX 41 66 1 -19
BITMAP
FF8000007F80
7F800000FF80
7F800000FF80
7FC00000FF00
3FC00001FF00
3FC00001FF00
3FE00001FE00
1FE00003FE00
1FE00003FE00
1FF00003FC00
0FF00007FC00
0FF00007F800
07F80007F800
07F8000FF800
07F8000FF000
03FC000FF000
03FC001FF000
03FC001FE000
01FE001FE000
01FE003FE000
01FF003FC000
00FF003FC000
00FF007FC000
007F807F8000
007F807F8000
007F80FF8000
003FC0FF0000
003FC0FF0000
003FC1FF0000
001FE1FE0000
001FE1FE0000
001FE3FE0000
000FE3FC0000
000FF3FC0000
0007F7FC0000
0007F7F80000
0007FFF80000
0003FFF80000
0003FFF00000
0003FFF00000
0001FFF00000
0001FFE00000
0001FFE00000
0000FFE00000
0000FFC00000
00007FC00000
00007FC00000
00007F800000
0000FF800000
0000FF800000
0000FF000000
0001FF000000
0001FE000000
0001FE000000
0003FE000000
0003FC000000
0007FC000000
081FF8000000
0FFFF8000000
0FFFF0000000
0FFFF0000000
07FFE0000000
07FFC0000000
07FF80000000
07FF00000000
03F800000000
ENDCHAR
STARTCHAR z
ENCODING 122
SWIDTH 500 0
DWIDTH 44 0
BBX 41 47 1 0
BITMAP
3FFFFFFFFF00
3FFFFFFFFF00
3FFFFFFFFF00
3FFFFFFFFF00
3FFFFFFFFF00
3FFFFFFFFF00
3FFFFFFFFF00
3FFFFFFFFE00
0000000FFC00
0000001FFC00
0000003FF800
0000007FF000
000000FFE000
000001FFC000
000001FF8000
000003FF0000
000007FE0000
00000FFC0000
00001FF80000
00003FF80000
00007FF00000
0000FFE00000
0001FFC00000
0003FF800000
0007FF000000
0007FE000000
000FFC000000
001FF8000000
003FF0000000
007FF0000000
00FFE0000000
01FFC0000000
03FF80000000
07FF00000000
0FFE00000000
0FFC00000000
1FF800000000
3FF000000000
7FE000000000
FFFFFFFFFF80
FFFFFFFFFF80
FFFFFFFFFF80
FFFFFFFFFF80
FFFFFFFFFF80
FFFFFFFFFF80
FFFFFFFFFF80
FFFFFFFFFF80
ENDCHAR
STARTCHAR braceleft
ENCODING 123
SWIDTH 333 0
DWIDTH 30 0
BBX 26 85 2 -19
BITMAP
00007FC0
0001FFC0
0007FFC0
000FFFC0
001FFFC0
001FFFC0
003FFFC0
003FFFC0
003FF800
007FE000
007FC000
007FC000
007F8000
007F8000
007F8000
007F8000
007F8000
007F8000
007F8000
007F8000
007F8000
007F8000
007F8000
007F8000
007F8000
007F8000
007F8000
007F8000
007F8000
007F8000
00FF8000
00FF0000
00FF0000
00FF0000
01FE0000
03FE0000
07FC0000
1FFC0000
FFF80000
FFF00000
FFC00000
FF000000
FF000000
FFC00000
FFF00000
FFF80000
1FFC0000
07FC0000
03FE0000
01FE0000
00FF0000
00FF0000
00FF0000
00FF0000
007F8000
007F8000
007F8000
007F8000
007F8000
007F8000
007F8000
007F8000
007F8000
007F8000
007F8000
007F8000
007F8000
007F8000
007F8000
007F8000
007F8000
007F8000
007F8000
007F8000
007FC000
003FC000
003FF000
003FFFC0
001FFFC0
001FFFC0
000FFFC0
0007FFC0
0003FFC0
0001FFC0
00003FC0
ENDCHAR
STARTCHAR bar
ENCODING 124
SWIDTH 259 0
DWIDTH 23 0
BBX 7 84 8 -19
BITMAP
FE
FE
FE
FE
FE
FE
FE
FE
FE
FE
FE
FE
FE
FE
FE
FE
FE
FE
FE
FE
FE
FE
FE
FE
FE
FE
FE
FE
FE
FE
FE
FE
FE
FE
FE
FE
FE
FE
FE
FE
FE
FE
FE
FE
FE
FE
FE
FE
FE
FE
FE
FE
FE
FE
FE
FE
FE
FE
FE
FE
FE
FE
FE
FE
FE
FE
FE
FE
FE
FE
FE
FE
FE
FE
FE
FE
FE
FE
FE
FE
FE
FE
FE
FE
ENDCHAR
STARTCHAR braceright
ENCODING 125
SWIDTH 333 0
DWIDTH 30 0
BBX 26 85 2 -19
BITMAP
FF000000
FFE00000
FFF00000
FFFC0000
FFFC0000
FFFE0000
FFFF0000
FFFF0000
03FF0000
00FF0000
00FF8000
007F8000
007F8000
007F8000
007F8000
007F8000
007F8000
007F8000
007F8000
007F8000
007F8000
007F8000
007F8000
007F8000
007F8000
007F8000
007F8000
007F8000
007F8000
007F8000
007F8000
003FC000
003FC000
003FC000
001FE000
001FF000
000FF800
000FFE00
0007FFC0
0003FFC0
0000FFC0
00003FC0
00003FC0
0000FFC0
0003FFC0
0007FFC0
000FFE00
001FF800
001FF000
003FE000
003FC000
003FC000
007FC000
007FC000
007F8000
007F8000
007F8000
007F8000
007F8000
007F8000
007F8000
007F8000
007F8000
007F8000
007F8000
007F8000
007F8000
007F8000
007F8000
007F8000
007F8000
007F8000
007F8000
00FF8000
00FF8000
01FF8000
07FF0000
FFFF0000
FFFF0000
FFFE0000
FFFC0000
FFFC0000
FFF80000
FFE00000
FF000000
ENDCHAR
STARTCHAR asciitilde
ENCODING 126
SWIDTH 583 0
DWIDTH 53 0
BBX 46 17 3 22
BITMAP
007F00000000
03FFE0000004
07FFFC00000C
0FFFFF00001C
1FFFFF80003C
3FFFFFE0007C
7FFFFFF801FC
FFFFFFFE07FC
FFFFFFFFFFFC
FF81FFFFFFFC
FE007FFFFFF8
F8001FFFFFF0
F00007FFFFE0
E00001FFFFC0
C000007FFF80
8000001FFF00
00000007F800
ENDCHAR
STARTCHAR space.dup1
ENCODING 160
SWIDTH 277 0
DWIDTH 25 0
BBX 1 1 0 0
BITMAP
00
ENDCHAR
STARTCHAR exclamdown
ENCODING 161
SWIDTH 333 0
DWIDTH 28 0
BBX 8 65 10 -18
BITMAP
FF
FF
FF
FF
FF
FF
FF
FF
00
00
00
00
00
00
00
3C
3C
3C
3C
3C
3C
3C
3C
3C
7E
7E
7E
7E
7E
7E
7E
7E
7E
7E
7E
7E
7E
7E
7E
7E
7E
FF
FF
FF
FF
FF
FF
FF
FF
FF
FF
FF
FF
FF
FF
FF
FF
FF
FF
FF
FF
FF
FF
FF
FF
ENDCHAR
STARTCHAR cent
ENCODING 162
SWIDTH 556 0
DWIDTH 50 0
BBX 40 83 4 -18
BITMAP
0000000600
00000007C0
00000007C0
0000000F80
0000000F80
0000000F80
0000001F80
0000001F00
0000001F00
0000001F00
0000003F00
0000003E00
0000003E00
0000007E00
0000007C00
0000007C00
0000007C00
0000FFFC00
0007FFF800
001FFFFC00
007FFFFF00
00FFFFFF80
03FFFFFFC0
07FFFFFFE0
07FFFFFFF0
0FFF83FFF8
1FFE03FFF8
1FF803EFFC
3FF007C7FC
3FE007C7FC
3FC007C3FE
7FC00FC3FE
7F800F81FE
7F800F81E0
7F800F8000
FF801F0000
FF001F0000
FF001F0000
FF003F0000
FF003E0000
FF003E0000
FF003E0000
FF007E0000
FF007C0000
FF007C0000
FF00FC0000
FF00F80000
FF80F80000
7F80F800F0
7F81F800FF
7F81F001FF
7FC1F001FE
3FC3F001FE
3FE3E003FE
3FF3E007FC
1FFBE00FFC
0FFFE01FF8
0FFFC0FFF8
07FFFFFFF0
03FFFFFFE0
01FFFFFFC0
00FFFFFF80
007FFFFF00
003FFFFC00
001FFFF000
001FFF8000
001F000000
003E000000
003E000000
003E000000
007E000000
007C000000
007C000000
007C000000
00F8000000
00F8000000
00F8000000
01F8000000
01F0000000
01F0000000
01F0000000
03E0000000
0060000000
ENDCHAR
STARTCHAR sterling
ENCODING 163
SWIDTH 556 0
DWIDTH 50 0
BBX 46 67 1 -1
BITMAP
00000FFC0000
00007FFF8000
0001FFFFE000
0007FFFFF800
000FFFFFFC00
001FFFFFFE00
003FFFFFFF00
007FFFFFFF80
007FF80FFF80
00FFE001FFC0
00FFC000FFC0
01FF80007FE0
01FF00003FE0
01FE00001FE0
03FE00001FF0
03FC00000FF0
03FC00000F00
03FC00000000
03FC00000000
03FC00000000
03FC00000000
03FC00000000
03FC00000000
01FE00000000
01FE00000000
01FE00000000
01FE00000000
00FF00000000
00FF00000000
00FF00000000
7FFFFFFE0000
7FFFFFFE0000
7FFFFFFE0000
7FFFFFFE0000
7FFFFFFE0000
7FFFFFFE0000
7FFFFFFE0000
7FFFFFFE0000
003FC0000000
001FE0000000
001FE0000000
001FE0000000
001FE0000000
001FE0000000
001FE0000000
001FC0000000
001FC0000000
003FC0000000
003F80000000
003F80000000
007F00000000
007F00000000
00FE00000000
01FC00000000
03F800000000
07F800000000
0FF7FE000020
1FFFFFE000F0
7FFFFFFE03F0
FFFFFFFFFFF0
7FFFFFFFFFF8
7FFFFFFFFFF8
3FFFFFFFFFF8
3FF007FFFFFC
3F80007FFFF8
1C00000FFFE0
10000001FF00
ENDCHAR
STARTCHAR currency
ENCODING 164
SWIDTH 556 0
DWIDTH 50 0
BBX 44 40 2 10
BITMAP
020000000400
070000000E00
1F803FC01F80
3FC0FFF03FC0
7FE3FFFC7FE0
FFF7FFFEFFF0
3FFFFFFFFFC0
1FFFFFFFFF80
07FFFFFFFE00
03FFFFFFFC00
00FFE07FF000
01FF801FF800
03FE0007FC00
03FC0003FC00
07FC0003FE00
07F80001FE00
07F80001FE00
0FF00000FF00
0FF00000FF00
0FF00000FF00
0FF00000FF00
0FF00000FF00
0FF00000FF00
0FF80001FE00
07F80001FE00
07FC0003FE00
03FC0003FC00
03FE0007FC00
01FF801FF800
00FFE07FF000
03FFFFFFFC00
07FFFFFFFE00
0FFFFFFFFF00
3FFFFFFFFFC0
7FF7FFFEFFE0
FFE3FFFC7FF0
3FC0FFF03FC0
1F803FC01F80
070000000E00
020000000400
ENDCHAR
STARTCHAR yen
ENCODING 165
SWIDTH 556 0
DWIDTH 50 0
BBX 50 65 -1 0
BITMAP
FF000000003FC0
7F800000007F80
7F800000007F80
3FC0000000FF00
3FE0000001FF00
1FE0000001FE00
1FF0000003FE00
0FF0000003FC00
0FF8000007FC00
07F800000FF800
03FC00000FF000
03FE00001FF000
01FE00001FE000
01FF00003FE000
00FF00003FC000
00FF80007FC000
007F8000FF8000
007FC000FF8000
003FC001FF0000
003FE001FF0000
001FF003FE0000
001FF003FE0000
000FF807FC0000
000FF80FFC0000
0007FC0FF80000
0007FC1FF80000
0003FE1FF00000
0003FF3FF00000
0001FF7FE00000
0001FFFFE00000
0000FFFFC00000
00007FFF800000
3FFFFFFFFFFF00
3FFFFFFFFFFF00
3FFFFFFFFFFF00
3FFFFFFFFFFF00
3FFFFFFFFFFF00
3FFFFFFFFFFF00
3FFFFFFFFFFF00
3FFFFFFFFFFF00
000007F8000000
000007F8000000
000007F8000000
000007F8000000
000007F8000000
000007F8000000
000007F8000000
3FFFFFFFFFFF00
3FFFFFFFFFFF00
3FFFFFFFFFFF00
3FFFFFFFFFFF00
3FFFFFFFFFFF00
3FFFFFFFFFFF00
3FFFFFFFFFFF00
3FFFFFFFFFFF00
000007F8000000
000007F8000000
000007F8000000
000007F8000000
000007F8000000
000007F8000000
000007F8000000
000007F8000000
000007F8000000
000007F8000000
ENDCHAR
STARTCHAR brokenbar
ENCODING 166
SWIDTH 259 0
DWIDTH 23 0
BBX 7 84 8 -19
BITMAP
FE
FE
FE
FE
FE
FE
FE
FE
FE
FE
FE
FE
FE
FE
FE
FE
FE
FE
FE
FE
FE
FE
FE
FE
FE
FE
FE
FE
FE
FE
FE
FE
FE
FE
00
00
00
00
00
00
00
00
00
00
00
00
00
00
00
FE
FE
FE
FE
FE
FE
FE
FE
FE
FE
FE
FE
FE
FE
FE
FE
FE
FE
FE
FE
FE
FE
FE
FE
FE
FE
FE
FE
FE
FE
FE
FE
FE
FE
FE
ENDCHAR
STARTCHAR section
ENCODING 167
SWIDTH 556 0
DWIDTH 50 0
BBX 42 85 4 -19
BITMAP
0001FF800000
000FFFF80000
003FFFFE0000
007FFFFF0000
00FFFFFF8000
01FFFFFFC000
03FFFFFFE000
03FFFFFFF000
07FF80FFF000
07FE003FF800
0FFC000FF800
0FF8000FF800
0FF00007FC00
0FF00007FC00
0FF00003FC00
0FF00003C000
0FF800000000
07F800000000
07FC00000000
03FE00000000
03FF00000000
01FFC0000000
00FFE0000000
007FF8000000
003FFC000000
00FFFF000000
03FFFF800000
07FFFFE00000
0FF1FFF00000
1FE0FFFC0000
3FC07FFE0000
7F801FFF8000
7F800FFFC000
FF0003FFF000
FF0001FFF800
FF00007FFC00
FF00003FFE00
FF00001FFF00
FF000007FF00
FF800003FF80
7F800001FF80
7FC00000FFC0
7FE000007FC0
3FF000007FC0
3FF800003FC0
1FFC00003FC0
0FFF00003FC0
07FF80003FC0
03FFE0007F80
01FFF0007F80
007FFC00FF80
003FFE01FF00
001FFF83FE00
0007FFC7FC00
0003FFFFF800
0000FFFFE000
00007FFF8000
00001FFE0000
00000FFF0000
000003FFC000
000001FFC000
000000FFE000
0000007FF000
0000001FF000
0000000FF800
00000007F800
00000007FC00
03C00003FC00
3FC00003FC00
3FE00003FC00
3FE00003FC00
1FE00003FC00
1FF00007FC00
1FF80007FC00
0FF8000FF800
0FFE001FF800
07FF80FFF000
07FFFFFFF000
03FFFFFFE000
01FFFFFFC000
00FFFFFFC000
007FFFFF0000
003FFFFE0000
000FFFF80000
0000FF800000
ENDCHAR
STARTCHAR dieresis
ENCODING 168
SWIDTH 333 0
DWIDTH 30 0
BBX 24 8 3 57
BITMAP
FF00FF
FF00FF
FF00FF
FF00FF
FF00FF
FF00FF
FF00FF
FF00FF
ENDCHAR
STARTCHAR copyright
ENCODING 169
SWIDTH 736 0
DWIDTH 66 0
BBX 66 67 0 -1
BITMAP
0000001FFE00000000
000001FFFFE0000000
000007FFFFF8000000
00003FFFFFFF000000
0000FFFFFFFFC00000
0001FFFFFFFFE00000
0007FFF003FFF80000
000FFF00003FFC0000
001FFC00000FFE0000
003FF0000003FF0000
007FC0000000FF8000
00FF800000007FC000
01FE000000003FE000
03FC000000000FF000
03F80007FC0007F000
07F8003FFF8007F800
07F000FFFFE003F800
0FE003FFFFF001FC00
1FC007FFFFF800FC00
1FC00FFFFFFC00FE00
1F800FF80FFC007E00
3F801FE001FE007F00
3F003FC000FE003F00
3F003F80007F003F00
7F007F000038003F80
7E007F000000001F80
7E007E000000001F80
7E007E000000001F80
FC00FE000000000FC0
FC00FC000000000FC0
FC00FC000000000FC0
FC00FC000000000FC0
FC00FC000000000FC0
FC00FC000000000FC0
FC00FC000000000FC0
FC00FC000000000FC0
FC00FC000000000FC0
FC00FC000000000FC0
FC00FC000000000FC0
7E007E000000001F80
7E007E00001C001F80
7E007F00003F801F80
7E007F00003F803F80
3F003F80007F003F00
3F003FC000FF003F00
3F801FE001FE007F00
1F800FF80FFE007E00
1FC00FFFFFFC00FE00
1FC007FFFFF800FC00
0FE001FFFFF001FC00
07F000FFFFC003F800
07F8003FFF8007F800
03F80007FC0007F000
03FC000000000FF000
01FF000000001FE000
00FF800000007FC000
007FC0000000FF8000
003FF0000003FF0000
001FFC00000FFE0000
000FFF00003FFC0000
0007FFF003FFF80000
0001FFFFFFFFE00000
0000FFFFFFFFC00000
00003FFFFFFF000000
00000FFFFFFC000000
000001FFFFE0000000
0000001FFE00000000
ENDCHAR
STARTCHAR ordfeminine
ENCODING 170
SWIDTH 370 0
DWIDTH 33 0
BBX 29 33 2 33
BITMAP
003FE000
01FFFC00
07FFFF00
0FFFFF80
1FFFFF80
1FFFFFC0
3FF07FC0
3FC03FE0
7FC01FE0
7F801FE0
07801FE0
00001FE0
00003FE0
0003FFE0
007FFFE0
07FFFFE0
1FFFFFE0
3FFFDFE0
7FFC1FE0
7FC01FE0
FF801FE0
FF001FE0
FF001FE0
FF003FE0
FF007FE0
FF80FFE0
FFC1FFE0
7FFFFFE0
7FFFFFE0
3FFFEFE0
1FFFCFF0
0FFF0FF0
03FC07F8
ENDCHAR
STARTCHAR guillemotleft
ENCODING 171
SWIDTH 556 0
DWIDTH 50 0
BBX 39 40 6 3
BITMAP
0003FC01FE
0007F803FC
000FF007F8
000FF007F8
001FE00FF0
003FC01FE0
007FC03FE0
007F803FC0
00FF007F80
01FF00FF80
01FE00FF00
03FE01FF00
07FC03FE00
07F803FC00
0FF807FC00
1FF00FF800
3FE01FF000
3FE01FF000
7FC03FE000
FF807FC000
FF807FC000
7FC03FE000
3FE01FF000
3FE01FF000
1FF00FF800
0FF807FC00
07F803FC00
07FC03FE00
03FE01FF00
01FE00FF00
01FF00FF80
00FF007F80
007F803FC0
007FC03FE0
003FC01FE0
001FE00FF0
000FF007F8
000FF007F8
0007F803FC
0003FC01FE
ENDCHAR
STARTCHAR logicalnot
ENCODING 172
SWIDTH 583 0
DWIDTH 53 0
BBX 43 26 5 19
BITMAP
FFFFFFFFFFE0
FFFFFFFFFFE0
FFFFFFFFFFE0
FFFFFFFFFFE0
FFFFFFFFFFE0
FFFFFFFFFFE0
FFFFFFFFFFE0
FFFFFFFFFFE0
000000001FE0
000000001FE0
000000001FE0
000000001FE0
000000001FE0
000000001FE0
000000001FE0
000000001FE0
000000001FE0
000000001FE0
000000001FE0
000000001FE0
000000001FE0
000000001FE0
000000001FE0
000000001FE0
000000001FE0
000000001FE0
ENDCHAR
STARTCHAR hyphen.dup2
ENCODING 173
SWIDTH 333 0
DWIDTH 30 0
BBX 25 8 2 19
BITMAP
FFFFFF80
FFFFFF80
FFFFFF80
FFFFFF80
FFFFFF80
FFFFFF80
FFFFFF80
FFFFFF80
ENDCHAR
STARTCHAR registered
ENCODING 174
SWIDTH 736 0
DWIDTH 66 0
BBX 66 67 0 -1
BITMAP
0000001FFE00000000
000001FFFFE0000000
000007FFFFF8000000
00003FFFFFFF000000
0000FFFFFFFFC00000
0001FFFFFFFFE00000
0007FFF003FFF80000
000FFF00003FFC0000
001FFC00000FFE0000
003FF0000003FF0000
007FC0000000FF8000
00FF800000007FC000
01FE000000003FE000
03FC000000000FF000
03F81FFFFC0007F000
07F81FFFFFC007F800
07F01FFFFFE003F800
0FE01FFFFFF001FC00
1FC01FFFFFF800FC00
1FC01FFFFFFC00FE00
1F801F8007FC007E00
3F801F8001FC007F00
3F001F8000FE003F00
3F001F80007E003F00
7F001F80007E003F80
7E001F80007E001F80
7E001F80007E001F80
7E001F80007E001F80
FC001F8000FC000FC0
FC001F8001FC000FC0
FC001F8007F8000FC0
FC001FFFFFF8000FC0
FC001FFFFFF0000FC0
FC001FFFFFE0000FC0
FC001FFFFFC0000FC0
FC001FFFFE00000FC0
FC001FFFF800000FC0
FC001F80FE00000FC0
FC001F807F00000FC0
7E001F803F80001F80
7E001F801F80001F80
7E001F801FC0001F80
7E001F800FE0003F80
3F001F8007E0003F00
3F001F8007F0003F00
3F801F8003F8007F00
1F801F8001F8007E00
1FC01F8001FC00FE00
1FC01F8000FC00FC00
0FE01F8000FE01FC00
07F01F80007F03F800
07F81F80007F07F800
03F81F80003F87F000
03FC000000000FF000
01FF000000001FE000
00FF800000007FC000
007FC0000000FF8000
003FF0000003FF0000
001FFC00000FFE0000
000FFF00003FFC0000
0007FFF003FFF80000
0001FFFFFFFFE00000
0000FFFFFFFFC00000
00003FFFFFFF000000
00000FFFFFFC000000
000001FFFFE0000000
0000001FFE00000000
ENDCHAR
STARTCHAR overscore
ENCODING 175
SWIDTH 552 0
DWIDTH 50 0
BBX 53 8 -2 69
BITMAP
FFFFFFFFFFFFF8
FFFFFFFFFFFFF8
FFFFFFFFFFFFF8
FFFFFFFFFFFFF8
FFFFFFFFFFFFF8
FFFFFFFFFFFFF8
FFFFFFFFFFFFF8
FFFFFFFFFFFFF8
ENDCHAR
STARTCHAR degree
ENCODING 176
SWIDTH 399 0
DWIDTH 36 0
BBX 24 24 6 42
BITMAP
00FF00
03FFC0
07FFE0
0FFFF8
1FFFF8
3F81FC
7F00FE
7E007E
FC003F
F8001F
F8001F
F8001F
F8001F
F8001F
F8001F
FC003E
7E007E
7F00FE
3F81FC
1FFFF8
0FFFF0
07FFE0
03FFC0
00FE00
ENDCHAR
STARTCHAR plusminus
ENCODING 177
SWIDTH 548 0
DWIDTH 49 0
BBX 44 54 3 0
BITMAP
00003FC00000
00003FC00000
00003FC00000
00003FC00000
00003FC00000
00003FC00000
00003FC00000
00003FC00000
00003FC00000
00003FC00000
00003FC00000
00003FC00000
00003FC00000
00003FC00000
00003FC00000
00003FC00000
00003FC00000
00003FC00000
FFFFFFFFFFF0
FFFFFFFFFFF0
FFFFFFFFFFF0
FFFFFFFFFFF0
FFFFFFFFFFF0
FFFFFFFFFFF0
FFFFFFFFFFF0
FFFFFFFFFFF0
00003FC00000
00003FC00000
00003FC00000
00003FC00000
00003FC00000
00003FC00000
00003FC00000
00003FC00000
00003FC00000
00003FC00000
00003FC00000
00003FC00000
00003FC00000
00003FC00000
00003FC00000
00003FC00000
00003FC00000
00003FC00000
000000000000
000000000000
FFFFFFFFFFF0
FFFFFFFFFFF0
FFFFFFFFFFF0
FFFFFFFFFFF0
FFFFFFFFFFF0
FFFFFFFFFFF0
FFFFFFFFFFF0
FFFFFFFFFFF0
ENDCHAR
STARTCHAR twosuperior
ENCODING 178
SWIDTH 333 0
DWIDTH 30 0
BBX 27 33 1 33
BITMAP
007FE000
01FFFC00
07FFFF00
0FFFFF80
1FFFFFC0
3FF07FC0
3FC03FE0
7FC03FE0
7F801FE0
07801FE0
00001FE0
00001FE0
00003FC0
00003FC0
00007FC0
0001FF80
0003FF00
0007FE00
000FFC00
003FF800
007FF000
00FFC000
01FF8000
03FF0000
07FE0000
0FFC0000
1FF80000
3FF00000
3FFFFFE0
7FFFFFE0
7FFFFFE0
FFFFFFE0
FFFFFFE0
ENDCHAR
STARTCHAR threesuperior
ENCODING 179
SWIDTH 333 0
DWIDTH 30 0
BBX 27 33 1 33
BITMAP
007FE000
03FFFC00
07FFFE00
0FFFFF00
1FFFFF80
1FF0FFC0
3FE07FC0
3FC03FC0
7FC03FC0
07803FC0
00003F80
00007F80
0001FF00
001FFE00
001FF800
003FF000
003FFE00
003FFF00
0000FF80
00003FC0
00001FC0
00001FE0
00001FE0
0F001FE0
FF001FE0
FF803FE0
7FC07FC0
7FE0FFC0
3FFFFF80
1FFFFF00
0FFFFE00
03FFF800
007FE000
ENDCHAR
STARTCHAR acute
ENCODING 180
SWIDTH 333 0
DWIDTH 30 0
BBX 16 12 10 52
BITMAP
03FF
07FE
07FC
0FF8
0FF0
1FE0
1FE0
3FC0
3F80
7F00
7E00
FC00
ENDCHAR
STARTCHAR mu1
ENCODING 181
SWIDTH 576 0
DWIDTH 52 0
BBX 39 65 7 -18
BITMAP
FF000001FE
FF000001FE
FF000001FE
FF000001FE
FF000001FE
FF000001FE
FF000001FE
FF000001FE
FF000001FE
FF000001FE
FF000001FE
FF000001FE
FF000001FE
FF000001FE
FF000001FE
FF000001FE
FF000001FE
FF000001FE
FF000001FE
FF000001FE
FF000001FE
FF000001FE
FF000001FE
FF000001FE
FF000001FE
FF000001FE
FF000001FE
FF000001FE
FF000001FE
FF000001FE
FF800003FE
FF800003FE
FF800003FE
FF800003FE
FFC00007FE
FFC00007FE
FFE0000FFE
FFF0001FFE
FFFC007FFE
FFFF01FFFE
FFFFFFFFFE
FFFFFFFDFE
FF7FFFFDFE
FF7FFFF9FE
FF3FFFF1FE
FF1FFFE1FE
FF07FFC1FE
FF01FE0000
FF00000000
FF00000000
FF00000000
FF00000000
FF00000000
FF00000000
FF00000000
FF00000000
FF00000000
FF00000000
FF00000000
FF00000000
FF00000000
FF00000000
FF00000000
FF00000000
FF00000000
ENDCHAR
STARTCHAR paragraph
ENCODING 182
SWIDTH 537 0
DWIDTH 48 0
BBX 48 82 0 -17
BITMAP
0001FFFFFFFF
001FFFFFFFFF
007FFFFFFFFF
01FFFFFFFFFF
03FFFFFFFFFF
07FFFFFFFFFF
0FFFFFFFFFFF
1FFFFFFFFFFF
3FFFFF803FC0
3FFFFF803FC0
7FFFFF803FC0
7FFFFF803FC0
7FFFFF803FC0
FFFFFF803FC0
FFFFFF803FC0
FFFFFF803FC0
FFFFFF803FC0
FFFFFF803FC0
FFFFFF803FC0
FFFFFF803FC0
FFFFFF803FC0
FFFFFF803FC0
FFFFFF803FC0
7FFFFF803FC0
7FFFFF803FC0
7FFFFF803FC0
3FFFFF803FC0
3FFFFF803FC0
1FFFFF803FC0
1FFFFF803FC0
0FFFFF803FC0
07FFFF803FC0
01FFFF803FC0
00FFFF803FC0
003FFF803FC0
0007FF803FC0
00007F803FC0
00007F803FC0
00007F803FC0
00007F803FC0
00007F803FC0
00007F803FC0
00007F803FC0
00007F803FC0
00007F803FC0
00007F803FC0
00007F803FC0
00007F803FC0
00007F803FC0
00007F803FC0
00007F803FC0
00007F803FC0
00007F803FC0
00007F803FC0
00007F803FC0
00007F803FC0
00007F803FC0
00007F803FC0
00007F803FC0
00007F803FC0
00007F803FC0
00007F803FC0
00007F803FC0
00007F803FC0
00007F803FC0
00007F803FC0
00007F803FC0
00007F803FC0
00007F803FC0
00007F803FC0
00007F803FC0
00007F803FC0
00007F803FC0
00007F803FC0
00007F803FC0
00007F803FC0
00007F803FC0
00007F803FC0
00007F803FC0
00007F803FC0
00007F803FC0
00007F803FC0
ENDCHAR
STARTCHAR middot
ENCODING 183
SWIDTH 333 0
DWIDTH 30 0
BBX 8 8 10 28
BITMAP
FF
FF
FF
FF
FF
FF
FF
FF
ENDCHAR
STARTCHAR cedilla
ENCODING 184
SWIDTH 333 0
DWIDTH 30 0
BBX 19 18 4 -18
BITMAP
01F000
01F000
03E000
03E000
03F000
07FE00
07FF80
07FFC0
003FE0
000FE0
000FE0
001FE0
003FE0
FFFFC0
FFFF80
FFFF00
FFFE00
FFE000
ENDCHAR
STARTCHAR onesuperior
ENCODING 185
SWIDTH 333 0
DWIDTH 30 0
BBX 18 33 5 33
BITMAP
000FC0
001FC0
003FC0
00FFC0
01FFC0
07FFC0
0FFFC0
7FFFC0
FFFFC0
FFBFC0
FF3FC0
FE3FC0
FC3FC0
F83FC0
E03FC0
803FC0
003FC0
003FC0
003FC0
003FC0
003FC0
003FC0
003FC0
003FC0
003FC0
003FC0
003FC0
003FC0
003FC0
003FC0
003FC0
003FC0
003FC0
ENDCHAR
STARTCHAR ordmasculine
ENCODING 186
SWIDTH 365 0
DWIDTH 33 0
BBX 29 33 2 33
BITMAP
001FE000
00FFF800
03FFFE00
07FFFF00
0FFFFF80
1FFFFFC0
3FF07FE0
3FE03FE0
7FC01FF0
7F800FF0
7F800FF0
FF000FF0
FF0007F8
FF0007F8
FF0007F8
FF0007F8
FF0007F8
FF0007F8
FF0007F8
FF0007F8
FF0007F8
FF800FF8
7F800FF0
7F800FF0
7FC01FF0
3FE03FE0
3FF07FE0
1FFFFFC0
0FFFFF80
07FFFF00
03FFFE00
00FFF800
003FC000
ENDCHAR
STARTCHAR guillemotright
ENCODING 187
SWIDTH 556 0
DWIDTH 50 0
BBX 39 40 5 3
BITMAP
FF007F8000
7F803FC000
3FC01FE000
3FC01FE000
1FE00FF000
0FF007F800
0FF807FC00
07F803FC00
03FC01FE00
03FE01FF00
01FE00FF00
01FF00FF80
00FF807FC0
007F803FC0
007FC03FE0
003FE01FF0
001FF00FF8
001FF00FF8
000FF807FC
0007FC03FE
0007FC03FE
000FF807FC
001FF00FF8
001FF00FF8
003FE01FF0
007FC03FE0
007F803FC0
00FF807FC0
01FF00FF80
01FE00FF00
03FE01FF00
03FC01FE00
07F803FC00
0FF807FC00
0FF007F800
1FE00FF000
3FC01FE000
3FC01FE000
7F803FC000
FF007F8000
ENDCHAR
STARTCHAR onequarter
ENCODING 188
SWIDTH 833 0
DWIDTH 75 0
BBX 69 68 5 -2
BITMAP
000FC000000007F800
001FC00000000FF000
003FC00000001FF000
00FFC00000003FE000
01FFC00000003FC000
07FFC00000007F8000
0FFFC0000000FF8000
7FFFC0000000FF0000
FFFFC0000001FE0000
FFBFC0000003FE0000
FF3FC0000007FC0000
FE3FC0000007F80000
FC3FC000000FF00000
F83FC000001FF00000
E03FC000001FE00000
803FC000003FC00000
003FC000007FC00000
003FC00000FF800000
003FC00000FF000000
003FC00001FE000000
003FC00003FE000000
003FC00003FC000000
003FC00007F8000000
003FC0000FF8000000
003FC0000FF0000000
003FC0001FE0000000
003FC0003FC0000000
003FC0007FC0000000
003FC0007F80000000
003FC000FF00000000
003FC001FF00000000
003FC001FE00000000
003FC003FC00000000
00000007FC00000000
0000000FF800007F00
0000000FF00000FF00
0000001FE00001FF00
0000003FE00001FF00
0000003FC00003FF00
0000007F800007FF00
000000FF80000FFF00
000001FF00001FFF00
000001FE00001FFF00
000003FC00003FFF00
000007FC00007FFF00
000007F80000FEFF00
00000FF00000FCFF00
00001FF00001F8FF00
00003FE00003F8FF00
00003FC00007F0FF00
00007F800007E0FF00
0000FF80000FC0FF00
0000FF00001FC0FF00
0001FE00003F80FF00
0003FE00003F00FF00
0007FC00007E00FF00
0007F800007FFFFFF8
000FF000007FFFFFF8
001FF000007FFFFFF8
001FE000007FFFFFF8
003FC000000000FF00
007FC000000000FF00
00FF8000000000FF00
00FF0000000000FF00
01FE0000000000FF00
03FE0000000000FF00
03FC0000000000FF00
07F800000000000000
ENDCHAR
STARTCHAR onehalf
ENCODING 189
SWIDTH 833 0
DWIDTH 75 0
BBX 68 67 5 -1
BITMAP
000FC000000007F800
001FC00000000FF800
003FC00000000FF000
00FFC00000001FE000
01FFC00000003FE000
07FFC00000007FC000
0FFFC00000007F8000
7FFFC0000000FF0000
FFFFC0000001FF0000
FFBFC0000003FE0000
FF3FC0000003FC0000
FE3FC0000007F80000
FC3FC000000FF80000
F83FC000000FF00000
E03FC000001FE00000
803FC000003FE00000
003FC000007FC00000
003FC000007F800000
003FC00000FF000000
003FC00001FF000000
003FC00001FE000000
003FC00003FC000000
003FC00007FC000000
003FC0000FF8000000
003FC0000FF0000000
003FC0001FE0000000
003FC0003FE0000000
003FC0007FC0000000
003FC0007F80000000
003FC000FF00000000
003FC001FF00000000
003FC001FE00000000
003FC003FC00000000
00000007FC001FF000
0000000FF800FFFE00
0000000FF003FFFF80
0000001FE007FFFFC0
0000003FE00FFFFFE0
0000003FC00FF07FE0
0000007F801FE01FF0
000000FF801FC01FF0
000001FF003F800FF0
000001FE000F800FF0
000003FC0000000FF0
000007FC0000000FF0
000007F80000001FE0
00000FF00000001FE0
00001FE00000003FE0
00003FE00000007FC0
00003FC0000001FF80
00007F80000003FF00
0000FF80000007FE00
0001FF0000000FFC00
0001FE0000001FF800
0003FC0000007FF000
0007FC000000FFC000
0007F8000001FF8000
000FF0000003FF0000
001FF0000007FC0000
003FE000000FF80000
003FC000000FF00000
007F8000001FFFFFF0
00FF8000003FFFFFF0
00FF0000003FFFFFF0
01FE0000007FFFFFF0
03FC0000007FFFFFF0
07FC00000000000000
ENDCHAR
STARTCHAR threequarters
ENCODING 190
SWIDTH 833 0
DWIDTH 75 0
BBX 73 68 1 -2
BITMAP
007FE0000000003FC000
01FFFC000000007FC000
07FFFE000000007F8000
0FFFFF00000000FF0000
0FFFFF80000001FF0000
1FF0FFC0000003FE0000
3FE07FC0000003FC0000
3FC03FC0000007F80000
3FC03FC000000FF80000
7F803FC000000FF00000
07803F8000001FE00000
00007F8000003FE00000
0001FF0000003FC00000
001FFE0000007F800000
001FF8000000FF000000
003FF0000001FF000000
003FFE000001FE000000
003FFF000003FC000000
0000FF800007FC000000
00003FC00007F8000000
00001FC0000FF0000000
00001FE0001FE0000000
07001FE0003FE0000000
FF001FE0003FC0000000
FF801FE0007F80000000
7F803FE000FF80000000
7FC07FC000FF00000000
3FE0FFC001FE00000000
3FFFFF8003FE00000000
1FFFFF0007FC00000000
0FFFFE0007F800000000
03FFF8000FF000000000
007FE0001FF000000000
000000001FE000000000
000000003FC00007F000
000000007FC0000FF000
00000000FF80001FF000
00000000FF00003FF000
00000001FE00003FF000
00000003FE00007FF000
00000003FC0000FFF000
00000007F80001FFF000
0000000FF80001FFF000
0000001FF00003FFF000
0000001FE00007FFF000
0000003FC0000FEFF000
0000007FC0001FCFF000
0000007F80001FCFF000
000000FF00003F8FF000
000001FF00007F8FF000
000003FE0000FF0FF000
000003FC0001FF0FF000
000007F80001FE0FF000
00000FF80003FC0FF000
00000FF00007FC0FF000
00001FE00007F80FF000
00003FE00007FFFFFF80
00003FC00007FFFFFF80
00007F800007FFFFFF80
0000FF000007FFFFFF80
0001FF000000000FF000
0001FE000000000FF000
0003FC000000000FF000
0007FC000000000FF000
0007F8000000000FF000
000FF0000000000FF000
001FE0000000000FF000
003FE000000000000000
ENDCHAR
STARTCHAR questiondown
ENCODING 191
SWIDTH 610 0
DWIDTH 55 0
BBX 41 66 7 -19
BITMAP
00007F800000
00007F800000
00007F800000
00007F800000
00007F800000
00007F800000
00007F800000
00007F800000
000000000000
000000000000
000000000000
000000000000
000000000000
000000000000
000000000000
00007F800000
00007F800000
00007F800000
00007F800000
00007F800000
00007F800000
0000FF800000
0000FF800000
0000FF000000
0001FF000000
0001FF000000
0003FE000000
0007FE000000
000FFC000000
001FFC000000
003FF8000000
007FF0000000
00FFE0000000
01FFC0000000
03FF80000000
07FF00000000
0FFE00000000
0FFC00000000
1FF800000000
3FF000000000
3FE000000000
7FC000000000
7F8000000000
7F8000000000
FF0000000000
FF0000000000
FF0000007800
FF0000007F80
FF000000FF80
FF000000FF80
FF800000FF00
FF800001FF00
7FC00001FF00
7FC00003FE00
7FE00007FE00
3FF8000FFE00
3FFC001FFC00
1FFF80FFFC00
1FFFFFFFF800
0FFFFFFFF000
07FFFFFFE000
03FFFFFFC000
00FFFFFF8000
007FFFFE0000
001FFFF80000
0001FFC00000
ENDCHAR
STARTCHAR Agrave
ENCODING 192
SWIDTH 666 0
DWIDTH 60 0
BBX 61 80 -1 0
BITMAP
000007FE00000000
000003FF00000000
000001FF00000000
000000FF80000000
0000007F80000000
0000003FC0000000
0000003FC0000000
0000001FE0000000
0000000FE0000000
00000007F0000000
00000003F0000000
00000001F8000000
0000000000000000
0000000000000000
0000000000000000
0000003FE0000000
0000007FF0000000
0000007FF0000000
0000007FF0000000
000000FFF8000000
000000FFF8000000
000001FFFC000000
000001FFFC000000
000001FDFC000000
000003FDFE000000
000003FDFE000000
000007F8FF000000
000007F8FF000000
000007F07F000000
00000FF07F800000
00000FF07F800000
00001FE03FC00000
00001FE03FC00000
00001FE03FC00000
00003FC01FE00000
00003FC01FE00000
00007F800FF00000
00007F800FF00000
0000FF800FF80000
0000FF0007F80000
0000FF0007F80000
0001FF0007FC0000
0001FE0003FC0000
0003FE0003FE0000
0003FC0001FE0000
0003FC0001FE0000
0007FC0001FF0000
0007F80000FF0000
000FF80000FF8000
000FF80000FF8000
000FF000007F8000
001FF000007FC000
001FFFFFFFFFC000
003FFFFFFFFFE000
003FFFFFFFFFE000
007FFFFFFFFFE000
007FFFFFFFFFF000
007FFFFFFFFFF000
00FFFFFFFFFFF800
00FFFFFFFFFFF800
01FF00000007FC00
01FF00000007FC00
01FF00000007FC00
03FE00000003FE00
03FE00000003FE00
07FC00000001FF00
07FC00000001FF00
07FC00000001FF00
0FF800000000FF80
0FF800000000FF80
1FF800000000FFC0
1FF0000000007FC0
1FF0000000007FC0
3FE0000000003FE0
3FE0000000003FE0
7FE0000000003FF0
7FC0000000001FF0
FFC0000000001FF8
FFC0000000001FF8
FF80000000000FF8
ENDCHAR
STARTCHAR Aacute
ENCODING 193
SWIDTH 666 0
DWIDTH 60 0
BBX 61 80 -1 0
BITMAP
00000001FF800000
00000003FF000000
00000003FE000000
00000007FC000000
00000007F8000000
0000000FF0000000
0000000FF0000000
0000001FE0000000
0000001FC0000000
0000003F80000000
0000003F00000000
0000007E00000000
0000000000000000
0000000000000000
0000000000000000
0000003FE0000000
0000007FF0000000
0000007FF0000000
0000007FF0000000
000000FFF8000000
000000FFF8000000
000001FFFC000000
000001FFFC000000
000001FDFC000000
000003FDFE000000
000003FDFE000000
000007F8FF000000
000007F8FF000000
000007F07F000000
00000FF07F800000
00000FF07F800000
00001FE03FC00000
00001FE03FC00000
00001FE03FC00000
00003FC01FE00000
00003FC01FE00000
00007F800FF00000
00007F800FF00000
0000FF800FF80000
0000FF0007F80000
0000FF0007F80000
0001FF0007FC0000
0001FE0003FC0000
0003FE0003FE0000
0003FC0001FE0000
0003FC0001FE0000
0007FC0001FF0000
0007F80000FF0000
000FF80000FF8000
000FF80000FF8000
000FF000007F8000
001FF000007FC000
001FFFFFFFFFC000
003FFFFFFFFFE000
003FFFFFFFFFE000
007FFFFFFFFFE000
007FFFFFFFFFF000
007FFFFFFFFFF000
00FFFFFFFFFFF800
00FFFFFFFFFFF800
01FF00000007FC00
01FF00000007FC00
01FF00000007FC00
03FE00000003FE00
03FE00000003FE00
07FC00000001FF00
07FC00000001FF00
07FC00000001FF00
0FF800000000FF80
0FF800000000FF80
1FF800000000FFC0
1FF0000000007FC0
1FF0000000007FC0
3FE0000000003FE0
3FE0000000003FE0
7FE0000000003FF0
7FC0000000001FF0
FFC0000000001FF8
FFC0000000001FF8
FF80000000000FF8
ENDCHAR
STARTCHAR Acircumflex
ENCODING 194
SWIDTH 666 0
DWIDTH 60 0
BBX 61 80 -1 0
BITMAP
0000003FC0000000
0000007FE0000000
000000FFF0000000
000000FFF8000000
000001FFFC000000
000003F9FC000000
000007F8FE000000
000007F0FF000000
00000FF07F800000
00001FE03FC00000
00001FC01FC00000
00003FC01FE00000
0000000000000000
0000000000000000
0000000000000000
0000003FE0000000
0000007FF0000000
0000007FF0000000
0000007FF0000000
000000FFF8000000
000000FFF8000000
000001FFFC000000
000001FFFC000000
000001FDFC000000
000003FDFE000000
000003FDFE000000
000007F8FF000000
000007F8FF000000
000007F07F000000
00000FF07F800000
00000FF07F800000
00001FE03FC00000
00001FE03FC00000
00001FE03FC00000
00003FC01FE00000
00003FC01FE00000
00007F800FF00000
00007F800FF00000
0000FF800FF80000
0000FF0007F80000
0000FF0007F80000
0001FF0007FC0000
0001FE0003FC0000
0003FE0003FE0000
0003FC0001FE0000
0003FC0001FE0000
0007FC0001FF0000
0007F80000FF0000
000FF80000FF8000
000FF80000FF8000
000FF000007F8000
001FF000007FC000
001FFFFFFFFFC000
003FFFFFFFFFE000
003FFFFFFFFFE000
007FFFFFFFFFE000
007FFFFFFFFFF000
007FFFFFFFFFF000
00FFFFFFFFFFF800
00FFFFFFFFFFF800
01FF00000007FC00
01FF00000007FC00
01FF00000007FC00
03FE00000003FE00
03FE00000003FE00
07FC00000001FF00
07FC00000001FF00
07FC00000001FF00
0FF800000000FF80
0FF800000000FF80
1FF800000000FFC0
1FF0000000007FC0
1FF0000000007FC0
3FE0000000003FE0
3FE0000000003FE0
7FE0000000003FF0
7FC0000000001FF0
FFC0000000001FF8
FFC0000000001FF8
FF80000000000FF8
ENDCHAR
STARTCHAR Atilde
ENCODING 195
SWIDTH 666 0
DWIDTH 60 0
BBX 61 80 -1 0
BITMAP
000001F003F80000
000007FE03F80000
00000FFF07F80000
00001FFFC7F80000
00001FFFFFF00000
00003FFFFFF00000
00003FFFFFF00000
00007FFFFFE00000
00007F8FFFE00000
00007F03FFC00000
00007F01FF800000
00007F003E000000
0000000000000000
0000000000000000
0000000000000000
0000003FE0000000
0000007FF0000000
0000007FF0000000
0000007FF0000000
000000FFF8000000
000000FFF8000000
000001FFFC000000
000001FFFC000000
000001FDFC000000
000003FDFE000000
000003FDFE000000
000007F8FF000000
000007F8FF000000
000007F07F000000
00000FF07F800000
00000FF07F800000
00001FE03FC00000
00001FE03FC00000
00001FE03FC00000
00003FC01FE00000
00003FC01FE00000
00007F800FF00000
00007F800FF00000
0000FF800FF80000
0000FF0007F80000
0000FF0007F80000
0001FF0007FC0000
0001FE0003FC0000
0003FE0003FE0000
0003FC0001FE0000
0003FC0001FE0000
0007FC0001FF0000
0007F80000FF0000
000FF80000FF8000
000FF80000FF8000
000FF000007F8000
001FF000007FC000
001FFFFFFFFFC000
003FFFFFFFFFE000
003FFFFFFFFFE000
007FFFFFFFFFE000
007FFFFFFFFFF000
007FFFFFFFFFF000
00FFFFFFFFFFF800
00FFFFFFFFFFF800
01FF00000007FC00
01FF00000007FC00
01FF00000007FC00
03FE00000003FE00
03FE00000003FE00
07FC00000001FF00
07FC00000001FF00
07FC00000001FF00
0FF800000000FF80
0FF800000000FF80
1FF800000000FFC0
1FF0000000007FC0
1FF0000000007FC0
3FE0000000003FE0
3FE0000000003FE0
7FE0000000003FF0
7FC0000000001FF0
FFC0000000001FF8
FFC0000000001FF8
FF80000000000FF8
ENDCHAR
STARTCHAR Adieresis
ENCODING 196
SWIDTH 666 0
DWIDTH 60 0
BBX 61 76 -1 0
BITMAP
00001FE01FE00000
00001FE01FE00000
00001FE01FE00000
00001FE01FE00000
00001FE01FE00000
00001FE01FE00000
00001FE01FE00000
00001FE01FE00000
0000000000000000
0000000000000000
0000000000000000
0000003FE0000000
0000007FF0000000
0000007FF0000000
0000007FF0000000
000000FFF8000000
000000FFF8000000
000001FFFC000000
000001FFFC000000
000001FDFC000000
000003FDFE000000
000003FDFE000000
000007F8FF000000
000007F8FF000000
000007F07F000000
00000FF07F800000
00000FF07F800000
00001FE03FC00000
00001FE03FC00000
00001FE03FC00000
00003FC01FE00000
00003FC01FE00000
00007F800FF00000
00007F800FF00000
0000FF800FF80000
0000FF0007F80000
0000FF0007F80000
0001FF0007FC0000
0001FE0003FC0000
0003FE0003FE0000
0003FC0001FE0000
0003FC0001FE0000
0007FC0001FF0000
0007F80000FF0000
000FF80000FF8000
000FF80000FF8000
000FF000007F8000
001FF000007FC000
001FFFFFFFFFC000
003FFFFFFFFFE000
003FFFFFFFFFE000
007FFFFFFFFFE000
007FFFFFFFFFF000
007FFFFFFFFFF000
00FFFFFFFFFFF800
00FFFFFFFFFFF800
01FF00000007FC00
01FF00000007FC00
01FF00000007FC00
03FE00000003FE00
03FE00000003FE00
07FC00000001FF00
07FC00000001FF00
07FC00000001FF00
0FF800000000FF80
0FF800000000FF80
1FF800000000FFC0
1FF0000000007FC0
1FF0000000007FC0
3FE0000000003FE0
3FE0000000003FE0
7FE0000000003FF0
7FC0000000001FF0
FFC0000000001FF8
FFC0000000001FF8
FF80000000000FF8
ENDCHAR
STARTCHAR Aring
ENCODING 197
SWIDTH 666 0
DWIDTH 60 0
BBX 61 77 -1 0
BITMAP
0000000F80000000
0000003FE0000000
0000007FF0000000
000000F078000000
000000E038000000
000001C01C000000
000001C01C000000
000001C01C000000
000001C01C000000
000001C01C000000
000000E038000000
000000F078000000
0000007FF0000000
0000007FF0000000
0000007FF0000000
0000007FF0000000
000000FFF8000000
000000FFF8000000
000001FFFC000000
000001FFFC000000
000001FDFC000000
000003FDFE000000
000003FDFE000000
000007F8FF000000
000007F8FF000000
000007F07F000000
00000FF07F800000
00000FF07F800000
00001FE03FC00000
00001FE03FC00000
00001FE03FC00000
00003FC01FE00000
00003FC01FE00000
00007F800FF00000
00007F800FF00000
0000FF800FF80000
0000FF0007F80000
0000FF0007F80000
0001FF0007FC0000
0001FE0003FC0000
0003FE0003FE0000
0003FC0001FE0000
0003FC0001FE0000
0007FC0001FF0000
0007F80000FF0000
000FF80000FF8000
000FF80000FF8000
000FF000007F8000
001FF000007FC000
001FFFFFFFFFC000
003FFFFFFFFFE000
003FFFFFFFFFE000
007FFFFFFFFFE000
007FFFFFFFFFF000
007FFFFFFFFFF000
00FFFFFFFFFFF800
00FFFFFFFFFFF800
01FF00000007FC00
01FF00000007FC00
01FF00000007FC00
03FE00000003FE00
03FE00000003FE00
07FC00000001FF00
07FC00000001FF00
07FC00000001FF00
0FF800000000FF80
0FF800000000FF80
1FF800000000FFC0
1FF0000000007FC0
1FF0000000007FC0
3FE0000000003FE0
3FE0000000003FE0
7FE0000000003FF0
7FC0000000001FF0
FFC0000000001FF8
FFC0000000001FF8
FF80000000000FF8
ENDCHAR
STARTCHAR AE
ENCODING 198
SWIDTH 1000 0
DWIDTH 90 0
BBX 85 65 0 0
BITMAP
00000001FFFFFFFFFFFFE0
00000003FFFFFFFFFFFFE0
00000003FFFFFFFFFFFFE0
00000007FFFFFFFFFFFFE0
00000007FFFFFFFFFFFFE0
0000000FFFFFFFFFFFFFE0
0000000FFFFFFFFFFFFFE0
0000001FFFFFFFFFFFFFE0
0000001FF81FF000000000
0000003FF01FF000000000
0000003FF01FF000000000
0000007FE01FF000000000
0000007FE01FF000000000
000000FFC01FF000000000
000000FFC01FF000000000
000001FF801FF000000000
000001FF801FF000000000
000003FF001FF000000000
000003FF001FF000000000
000007FE001FF000000000
000007FE001FF000000000
000007FC001FF000000000
00000FFC001FF000000000
00000FF8001FF000000000
00001FF8001FF000000000
00001FF0001FF000000000
00003FF0001FF000000000
00003FF0001FFFFFFFFF80
00007FE0001FFFFFFFFF80
00007FE0001FFFFFFFFF80
0000FFC0001FFFFFFFFF80
0000FFC0001FFFFFFFFF80
0001FF80001FFFFFFFFF80
0001FF80001FFFFFFFFF80
0003FF00001FFFFFFFFF80
0003FF00001FF000000000
0007FE00001FF000000000
0007FE00001FF000000000
000FFC00001FF000000000
000FFFFFFFFFF000000000
001FFFFFFFFFF000000000
001FFFFFFFFFF000000000
003FFFFFFFFFF000000000
003FFFFFFFFFF000000000
007FFFFFFFFFF000000000
007FFFFFFFFFF000000000
00FFFFFFFFFFF000000000
00FFC000001FF000000000
01FF8000001FF000000000
01FF8000001FF000000000
03FF0000001FF000000000
03FF0000001FF000000000
03FE0000001FF000000000
07FE0000001FF000000000
07FC0000001FF000000000
0FFC0000001FF000000000
0FFC0000001FF000000000
1FF80000001FFFFFFFFFF8
1FF80000001FFFFFFFFFF8
3FF00000001FFFFFFFFFF8
3FF00000001FFFFFFFFFF8
7FE00000001FFFFFFFFFF8
7FE00000001FFFFFFFFFF8
FFC00000001FFFFFFFFFF8
FFC00000001FFFFFFFFFF8
ENDCHAR
STARTCHAR Ccedilla
ENCODING 199
SWIDTH 722 0
DWIDTH 65 0
BBX 57 84 4 -18
BITMAP
000000FFF0000000
00000FFFFE000000
00007FFFFFC00000
0001FFFFFFF00000
0003FFFFFFF80000
000FFFFFFFFE0000
001FFFFFFFFF0000
003FFFFFFFFF8000
007FFF803FFFC000
00FFF80007FFC000
01FFE00001FFE000
03FFC00000FFF000
07FF0000007FF000
07FE0000003FF800
0FFC0000001FF800
0FFC0000000FFC00
1FF80000000FFC00
1FF000000007FC00
3FF000000007FE00
3FE000000007FC00
3FE0000000038000
7FE0000000000000
7FC0000000000000
7FC0000000000000
7FC0000000000000
7FC0000000000000
FFC0000000000000
FF80000000000000
FF80000000000000
FF80000000000000
FF80000000000000
FF80000000000000
FF80000000000000
FF80000000000000
FF80000000000000
FF80000000000000
FF80000000000000
FF80000000000000
FF80000000000000
FF80000000000000
7FC0000000000000
7FC0000000000000
7FC0000000000000
7FC000000000C000
7FC000000000FE00
3FE000000001FF80
3FE000000001FF80
3FF000000001FF00
1FF000000003FF00
1FF000000003FF00
1FF800000007FE00
0FFC0000000FFE00
0FFE0000000FFC00
07FE0000001FFC00
07FF8000003FF800
03FFC000007FF800
01FFF00001FFF000
00FFFC0007FFE000
00FFFF803FFFC000
007FFFFFFFFF8000
003FFFFFFFFF0000
000FFFFFFFFE0000
0007FFFFFFFC0000
0001FFFFFFF00000
00007FFFFFC00000
00001FFFFF000000
000001FFF0000000
0000007C00000000
000000F800000000
000000F800000000
000000FC00000000
000001FF80000000
000001FFE0000000
000001FFF0000000
0000000FF8000000
00000003F8000000
00000003F8000000
00000007F8000000
0000000FF8000000
00003FFFF0000000
00003FFFE0000000
00003FFFC0000000
00003FFF80000000
00003FF800000000
ENDCHAR
STARTCHAR Egrave
ENCODING 200
SWIDTH 666 0
DWIDTH 60 0
BBX 48 80 7 0
BITMAP
0007FE000000
0003FF000000
0001FF000000
0000FF800000
00007F800000
00003FC00000
00003FC00000
00001FE00000
00000FE00000
000007F00000
000003F00000
000001F80000
000000000000
000000000000
000000000000
FFFFFFFFFFFC
FFFFFFFFFFFC
FFFFFFFFFFFC
FFFFFFFFFFFC
FFFFFFFFFFFC
FFFFFFFFFFFC
FFFFFFFFFFFC
FFFFFFFFFFFC
FF8000000000
FF8000000000
FF8000000000
FF8000000000
FF8000000000
FF8000000000
FF8000000000
FF8000000000
FF8000000000
FF8000000000
FF8000000000
FF8000000000
FF8000000000
FF8000000000
FF8000000000
FF8000000000
FF8000000000
FF8000000000
FF8000000000
FFFFFFFFFFF0
FFFFFFFFFFF0
FFFFFFFFFFF0
FFFFFFFFFFF0
FFFFFFFFFFF0
FFFFFFFFFFF0
FFFFFFFFFFF0
FFFFFFFFFFF0
FF8000000000
FF8000000000
FF8000000000
FF8000000000
FF8000000000
FF8000000000
FF8000000000
FF8000000000
FF8000000000
FF8000000000
FF8000000000
FF8000000000
FF8000000000
FF8000000000
FF8000000000
FF8000000000
FF8000000000
FF8000000000
FF8000000000
FF8000000000
FF8000000000
FF8000000000
FFFFFFFFFFFF
FFFFFFFFFFFF
FFFFFFFFFFFF
FFFFFFFFFFFF
FFFFFFFFFFFF
FFFFFFFFFFFF
FFFFFFFFFFFF
FFFFFFFFFFFF
ENDCHAR
STARTCHAR Eacute
ENCODING 201
SWIDTH 666 0
DWIDTH 60 0
BBX 48 80 7 0
BITMAP
000000FFC000
000001FF8000
000001FF0000
000003FE0000
000003FC0000
000007F80000
000007F80000
00000FF00000
00000FE00000
00001FC00000
00001F800000
00003F000000
000000000000
000000000000
000000000000
FFFFFFFFFFFC
FFFFFFFFFFFC
FFFFFFFFFFFC
FFFFFFFFFFFC
FFFFFFFFFFFC
FFFFFFFFFFFC
FFFFFFFFFFFC
FFFFFFFFFFFC
FF8000000000
FF8000000000
FF8000000000
FF8000000000
FF8000000000
FF8000000000
FF8000000000
FF8000000000
FF8000000000
FF8000000000
FF8000000000
FF8000000000
FF8000000000
FF8000000000
FF8000000000
FF8000000000
FF8000000000
FF8000000000
FF8000000000
FFFFFFFFFFF0
FFFFFFFFFFF0
FFFFFFFFFFF0
FFFFFFFFFFF0
FFFFFFFFFFF0
FFFFFFFFFFF0
FFFFFFFFFFF0
FFFFFFFFFFF0
FF8000000000
FF8000000000
FF8000000000
FF8000000000
FF8000000000
FF8000000000
FF8000000000
FF8000000000
FF8000000000
FF8000000000
FF8000000000
FF8000000000
FF8000000000
FF8000000000
FF8000000000
FF8000000000
FF8000000000
FF8000000000
FF8000000000
FF8000000000
FF8000000000
FF8000000000
FFFFFFFFFFFF
FFFFFFFFFFFF
FFFFFFFFFFFF
FFFFFFFFFFFF
FFFFFFFFFFFF
FFFFFFFFFFFF
FFFFFFFFFFFF
FFFFFFFFFFFF
ENDCHAR
STARTCHAR Ecircumflex
ENCODING 202
SWIDTH 666 0
DWIDTH 60 0
BBX 48 80 7 0
BITMAP
00001FE00000
00003FF00000
00007FF80000
00007FFC0000
0000FFFE0000
0001FCFE0000
0003FC7F0000
0003F87F8000
0007F03FC000
000FF01FE000
000FE01FE000
001FE00FF000
000000000000
000000000000
000000000000
FFFFFFFFFFFC
FFFFFFFFFFFC
FFFFFFFFFFFC
FFFFFFFFFFFC
FFFFFFFFFFFC
FFFFFFFFFFFC
FFFFFFFFFFFC
FFFFFFFFFFFC
FF8000000000
FF8000000000
FF8000000000
FF8000000000
FF8000000000
FF8000000000
FF8000000000
FF8000000000
FF8000000000
FF8000000000
FF8000000000
FF8000000000
FF8000000000
FF8000000000
FF8000000000
FF8000000000
FF8000000000
FF8000000000
FF8000000000
FFFFFFFFFFF0
FFFFFFFFFFF0
FFFFFFFFFFF0
FFFFFFFFFFF0
FFFFFFFFFFF0
FFFFFFFFFFF0
FFFFFFFFFFF0
FFFFFFFFFFF0
FF8000000000
FF8000000000
FF8000000000
FF8000000000
FF8000000000
FF8000000000
FF8000000000
FF8000000000
FF8000000000
FF8000000000
FF8000000000
FF8000000000
FF8000000000
FF8000000000
FF8000000000
FF8000000000
FF8000000000
FF8000000000
FF8000000000
FF8000000000
FF8000000000
FF8000000000
FFFFFFFFFFFF
FFFFFFFFFFFF
FFFFFFFFFFFF
FFFFFFFFFFFF
FFFFFFFFFFFF
FFFFFFFFFFFF
FFFFFFFFFFFF
FFFFFFFFFFFF
ENDCHAR
STARTCHAR Edieresis
ENCODING 203
SWIDTH 666 0
DWIDTH 60 0
BBX 48 76 7 0
BITMAP
0007F807F800
0007F807F800
0007F807F800
0007F807F800
0007F807F800
0007F807F800
0007F807F800
0007F807F800
000000000000
000000000000
000000000000
FFFFFFFFFFFC
FFFFFFFFFFFC
FFFFFFFFFFFC
FFFFFFFFFFFC
FFFFFFFFFFFC
FFFFFFFFFFFC
FFFFFFFFFFFC
FFFFFFFFFFFC
FF8000000000
FF8000000000
FF8000000000
FF8000000000
FF8000000000
FF8000000000
FF8000000000
FF8000000000
FF8000000000
FF8000000000
FF8000000000
FF8000000000
FF8000000000
FF8000000000
FF8000000000
FF8000000000
FF8000000000
FF8000000000
FF8000000000
FFFFFFFFFFF0
FFFFFFFFFFF0
FFFFFFFFFFF0
FFFFFFFFFFF0
FFFFFFFFFFF0
FFFFFFFFFFF0
FFFFFFFFFFF0
FFFFFFFFFFF0
FF8000000000
FF8000000000
FF8000000000
FF8000000000
FF8000000000
FF8000000000
FF8000000000
FF8000000000
FF8000000000
FF8000000000
FF8000000000
FF8000000000
FF8000000000
FF8000000000
FF8000000000
FF8000000000
FF8000000000
FF8000000000
FF8000000000
FF8000000000
FF8000000000
FF8000000000
FFFFFFFFFFFF
FFFFFFFFFFFF
FFFFFFFFFFFF
FFFFFFFFFFFF
FFFFFFFFFFFF
FFFFFFFFFFFF
FFFFFFFFFFFF
FFFFFFFFFFFF
ENDCHAR
STARTCHAR Igrave
ENCODING 204
SWIDTH 277 0
DWIDTH 25 0
BBX 16 80 3 0
BITMAP
FFC0
7FE0
3FE0
1FF0
0FF0
07F8
07F8
03FC
01FC
00FE
007E
003F
0000
0000
0000
07FC
07FC
07FC
07FC
07FC
07FC
07FC
07FC
07FC
07FC
07FC
07FC
07FC
07FC
07FC
07FC
07FC
07FC
07FC
07FC
07FC
07FC
07FC
07FC
07FC
07FC
07FC
07FC
07FC
07FC
07FC
07FC
07FC
07FC
07FC
07FC
07FC
07FC
07FC
07FC
07FC
07FC
07FC
07FC
07FC
07FC
07FC
07FC
07FC
07FC
07FC
07FC
07FC
07FC
07FC
07FC
07FC
07FC
07FC
07FC
07FC
07FC
07FC
07FC
07FC
ENDCHAR
STARTCHAR Iacute
ENCODING 205
SWIDTH 277 0
DWIDTH 25 0
BBX 16 80 6 0
BITMAP
03FF
07FE
07FC
0FF8
0FF0
1FE0
1FE0
3FC0
3F80
7F00
7E00
FC00
0000
0000
0000
3FE0
3FE0
3FE0
3FE0
3FE0
3FE0
3FE0
3FE0
3FE0
3FE0
3FE0
3FE0
3FE0
3FE0
3FE0
3FE0
3FE0
3FE0
3FE0
3FE0
3FE0
3FE0
3FE0
3FE0
3FE0
3FE0
3FE0
3FE0
3FE0
3FE0
3FE0
3FE0
3FE0
3FE0
3FE0
3FE0
3FE0
3FE0
3FE0
3FE0
3FE0
3FE0
3FE0
3FE0
3FE0
3FE0
3FE0
3FE0
3FE0
3FE0
3FE0
3FE0
3FE0
3FE0
3FE0
3FE0
3FE0
3FE0
3FE0
3FE0
3FE0
3FE0
3FE0
3FE0
3FE0
ENDCHAR
STARTCHAR Icircumflex
ENCODING 206
SWIDTH 277 0
DWIDTH 25 0
BBX 25 80 0 0
BITMAP
00FF0000
01FF8000
03FFC000
03FFE000
07FFF000
0FE7F000
1FE3F800
1FC3FC00
3F81FE00
7F80FF00
7F00FF00
FF007F80
00000000
00000000
00000000
00FF8000
00FF8000
00FF8000
00FF8000
00FF8000
00FF8000
00FF8000
00FF8000
00FF8000
00FF8000
00FF8000
00FF8000
00FF8000
00FF8000
00FF8000
00FF8000
00FF8000
00FF8000
00FF8000
00FF8000
00FF8000
00FF8000
00FF8000
00FF8000
00FF8000
00FF8000
00FF8000
00FF8000
00FF8000
00FF8000
00FF8000
00FF8000
00FF8000
00FF8000
00FF8000
00FF8000
00FF8000
00FF8000
00FF8000
00FF8000
00FF8000
00FF8000
00FF8000
00FF8000
00FF8000
00FF8000
00FF8000
00FF8000
00FF8000
00FF8000
00FF8000
00FF8000
00FF8000
00FF8000
00FF8000
00FF8000
00FF8000
00FF8000
00FF8000
00FF8000
00FF8000
00FF8000
00FF8000
00FF8000
00FF8000
ENDCHAR
STARTCHAR Idieresis
ENCODING 207
SWIDTH 277 0
DWIDTH 25 0
BBX 24 76 1 0
BITMAP
FF00FF
FF00FF
FF00FF
FF00FF
FF00FF
FF00FF
FF00FF
FF00FF
000000
000000
000000
01FF00
01FF00
01FF00
01FF00
01FF00
01FF00
01FF00
01FF00
01FF00
01FF00
01FF00
01FF00
01FF00
01FF00
01FF00
01FF00
01FF00
01FF00
01FF00
01FF00
01FF00
01FF00
01FF00
01FF00
01FF00
01FF00
01FF00
01FF00
01FF00
01FF00
01FF00
01FF00
01FF00
01FF00
01FF00
01FF00
01FF00
01FF00
01FF00
01FF00
01FF00
01FF00
01FF00
01FF00
01FF00
01FF00
01FF00
01FF00
01FF00
01FF00
01FF00
01FF00
01FF00
01FF00
01FF00
01FF00
01FF00
01FF00
01FF00
01FF00
01FF00
01FF00
01FF00
01FF00
01FF00
ENDCHAR
STARTCHAR Eth
ENCODING 208
SWIDTH 722 0
DWIDTH 65 0
BBX 60 65 0 0
BITMAP
01FFFFFFFC000000
01FFFFFFFFE00000
01FFFFFFFFF80000
01FFFFFFFFFE0000
01FFFFFFFFFF8000
01FFFFFFFFFFC000
01FFFFFFFFFFE000
01FFFFFFFFFFF000
01FF000007FFF800
01FF000000FFFC00
01FF0000003FFC00
01FF0000000FFE00
01FF00000007FF00
01FF00000003FF00
01FF00000003FF80
01FF00000001FF80
01FF00000000FF80
01FF00000000FFC0
01FF000000007FC0
01FF000000007FC0
01FF000000007FE0
01FF000000003FE0
01FF000000003FE0
01FF000000003FE0
01FF000000003FE0
01FF000000001FF0
01FF000000001FF0
FFFFFFFF80001FF0
FFFFFFFF80001FF0
FFFFFFFF80001FF0
FFFFFFFF80001FF0
FFFFFFFF80001FF0
FFFFFFFF80001FF0
FFFFFFFF80001FF0
FFFFFFFF80001FF0
01FF000000001FF0
01FF000000001FF0
01FF000000001FF0
01FF000000001FF0
01FF000000003FF0
01FF000000003FE0
01FF000000003FE0
01FF000000003FE0
01FF000000003FE0
01FF000000007FE0
01FF000000007FC0
01FF000000007FC0
01FF00000000FFC0
01FF00000000FF80
01FF00000001FF80
01FF00000003FF00
01FF00000003FF00
01FF00000007FE00
01FF0000000FFE00
01FF0000003FFC00
01FF000000FFF800
01FF00000FFFF800
01FFFFFFFFFFF000
01FFFFFFFFFFE000
01FFFFFFFFFFC000
01FFFFFFFFFF0000
01FFFFFFFFFE0000
01FFFFFFFFF80000
01FFFFFFFFC00000
01FFFFFFFC000000
ENDCHAR
STARTCHAR Ntilde
ENCODING 209
SWIDTH 722 0
DWIDTH 65 0
BBX 51 80 7 0
BITMAP
00003E007F0000
0000FFC07F0000
0001FFE0FF0000
0003FFF8FF0000
0003FFFFFE0000
0007FFFFFE0000
0007FFFFFE0000
000FFFFFFC0000
000FF1FFFC0000
000FE07FF80000
000FE03FF00000
000FE007C00000
00000000000000
00000000000000
00000000000000
FFC00000003FE0
FFE00000003FE0
FFE00000003FE0
FFF00000003FE0
FFF80000003FE0
FFF80000003FE0
FFFC0000003FE0
FFFC0000003FE0
FFFE0000003FE0
FFFF0000003FE0
FFFF0000003FE0
FFFF8000003FE0
FFFFC000003FE0
FFFFC000003FE0
FFFFE000003FE0
FFFFF000003FE0
FFBFF000003FE0
FFBFF800003FE0
FF9FFC00003FE0
FF8FFC00003FE0
FF8FFE00003FE0
FF87FF00003FE0
FF83FF00003FE0
FF83FF80003FE0
FF81FFC0003FE0
FF81FFC0003FE0
FF80FFE0003FE0
FF807FF0003FE0
FF807FF0003FE0
FF803FF8003FE0
FF801FFC003FE0
FF801FFC003FE0
FF800FFE003FE0
FF8007FF003FE0
FF8007FF003FE0
FF8003FF803FE0
FF8001FFC03FE0
FF8001FFC03FE0
FF8000FFE03FE0
FF80007FF03FE0
FF80007FF03FE0
FF80003FF83FE0
FF80001FF83FE0
FF80001FFC3FE0
FF80000FFE3FE0
FF800007FE3FE0
FF800007FF3FE0
FF800003FFBFE0
FF800001FFBFE0
FF800001FFFFE0
FF800000FFFFE0
FF8000007FFFE0
FF8000007FFFE0
FF8000003FFFE0
FF8000001FFFE0
FF8000001FFFE0
FF8000000FFFE0
FF80000007FFE0
FF80000007FFE0
FF80000003FFE0
FF80000003FFE0
FF80000001FFE0
FF80000000FFE0
FF80000000FFE0
FF800000007FE0
ENDCHAR
STARTCHAR Ograve
ENCODING 210
SWIDTH 777 0
DWIDTH 70 0
BBX 62 81 4 -1
BITMAP
000007FE00000000
000003FF00000000
000001FF00000000
000000FF80000000
0000007F80000000
0000003FC0000000
0000003FC0000000
0000001FE0000000
0000000FE0000000
00000007F0000000
00000003F0000000
00000001F8000000
0000000000000000
0000000000000000
0000007FF8000000
000007FFFF800000
00003FFFFFF00000
0000FFFFFFFC0000
0003FFFFFFFF0000
0007FFFFFFFF8000
001FFFFFFFFFC000
003FFFFFFFFFF000
007FFFC00FFFF800
00FFFE0001FFFC00
01FFF800007FFE00
01FFE000001FFE00
03FF8000000FFF00
07FF00000003FF80
07FE00000001FF80
0FFC00000001FFC0
0FF800000000FFC0
1FF8000000007FE0
1FF0000000003FE0
3FF0000000003FF0
3FE0000000001FF0
3FE0000000001FF0
7FE0000000001FF8
7FC0000000000FF8
7FC0000000000FF8
7FC0000000000FF8
7FC0000000000FF8
FF800000000007FC
FF800000000007FC
FF800000000007FC
FF800000000007FC
FF800000000007FC
FF800000000007FC
FF800000000007FC
FF800000000007FC
FF800000000007FC
FF800000000007FC
FF800000000007FC
FF800000000007FC
FF800000000007FC
FF80000000000FF8
7FC0000000000FF8
7FC0000000000FF8
7FC0000000000FF8
7FE0000000001FF8
3FE0000000001FF0
3FE0000000001FF0
3FF0000000003FF0
1FF0000000003FE0
1FF8000000007FE0
0FFC00000000FFC0
0FFC00000000FFC0
07FE00000001FF80
07FF00000003FF80
03FF8000000FFF00
01FFE000001FFE00
00FFF800007FFE00
00FFFE0001FFFC00
007FFFC00FFFF800
003FFFFFFFFFF000
000FFFFFFFFFC000
0007FFFFFFFF8000
0003FFFFFFFF0000
0000FFFFFFFC0000
00003FFFFFF00000
000007FFFF800000
0000007FF8000000
ENDCHAR
STARTCHAR Oacute
ENCODING 211
SWIDTH 777 0
DWIDTH 70 0
BBX 62 81 4 -1
BITMAP
00000001FF800000
00000003FF000000
00000003FE000000
00000007FC000000
00000007F8000000
0000000FF0000000
0000000FF0000000
0000001FE0000000
0000001FC0000000
0000003F80000000
0000003F00000000
0000007E00000000
0000000000000000
0000000000000000
0000007FF8000000
000007FFFF800000
00003FFFFFF00000
0000FFFFFFFC0000
0003FFFFFFFF0000
0007FFFFFFFF8000
001FFFFFFFFFC000
003FFFFFFFFFF000
007FFFC00FFFF800
00FFFE0001FFFC00
01FFF800007FFE00
01FFE000001FFE00
03FF8000000FFF00
07FF00000003FF80
07FE00000001FF80
0FFC00000001FFC0
0FF800000000FFC0
1FF8000000007FE0
1FF0000000003FE0
3FF0000000003FF0
3FE0000000001FF0
3FE0000000001FF0
7FE0000000001FF8
7FC0000000000FF8
7FC0000000000FF8
7FC0000000000FF8
7FC0000000000FF8
FF800000000007FC
FF800000000007FC
FF800000000007FC
FF800000000007FC
FF800000000007FC
FF800000000007FC
FF800000000007FC
FF800000000007FC
FF800000000007FC
FF800000000007FC
FF800000000007FC
FF800000000007FC
FF800000000007FC
FF80000000000FF8
7FC0000000000FF8
7FC0000000000FF8
7FC0000000000FF8
7FE0000000001FF8
3FE0000000001FF0
3FE0000000001FF0
3FF0000000003FF0
1FF0000000003FE0
1FF8000000007FE0
0FFC00000000FFC0
0FFC00000000FFC0
07FE00000001FF80
07FF00000003FF80
03FF8000000FFF00
01FFE000001FFE00
00FFF800007FFE00
00FFFE0001FFFC00
007FFFC00FFFF800
003FFFFFFFFFF000
000FFFFFFFFFC000
0007FFFFFFFF8000
0003FFFFFFFF0000
0000FFFFFFFC0000
00003FFFFFF00000
000007FFFF800000
0000007FF8000000
ENDCHAR
STARTCHAR Ocircumflex
ENCODING 212
SWIDTH 777 0
DWIDTH 70 0
BBX 62 81 4 -1
BITMAP
0000001FE0000000
0000003FF0000000
0000007FF8000000
000000FFFC000000
000000FFFE000000
000001FCFE000000
000003FC7F000000
000003F87F800000
000007F03FC00000
00000FF01FC00000
00000FE01FE00000
00001FE00FF00000
0000000000000000
0000000000000000
0000007FF8000000
000007FFFF800000
00003FFFFFF00000
0000FFFFFFFC0000
0003FFFFFFFF0000
0007FFFFFFFF8000
001FFFFFFFFFC000
003FFFFFFFFFF000
007FFFC00FFFF800
00FFFE0001FFFC00
01FFF800007FFE00
01FFE000001FFE00
03FF8000000FFF00
07FF00000003FF80
07FE00000001FF80
0FFC00000001FFC0
0FF800000000FFC0
1FF8000000007FE0
1FF0000000003FE0
3FF0000000003FF0
3FE0000000001FF0
3FE0000000001FF0
7FE0000000001FF8
7FC0000000000FF8
7FC0000000000FF8
7FC0000000000FF8
7FC0000000000FF8
FF800000000007FC
FF800000000007FC
FF800000000007FC
FF800000000007FC
FF800000000007FC
FF800000000007FC
FF800000000007FC
FF800000000007FC
FF800000000007FC
FF800000000007FC
FF800000000007FC
FF800000000007FC
FF800000000007FC
FF80000000000FF8
7FC0000000000FF8
7FC0000000000FF8
7FC0000000000FF8
7FE0000000001FF8
3FE0000000001FF0
3FE0000000001FF0
3FF0000000003FF0
1FF0000000003FE0
1FF8000000007FE0
0FFC00000000FFC0
0FFC00000000FFC0
07FE00000001FF80
07FF00000003FF80
03FF8000000FFF00
01FFE000001FFE00
00FFF800007FFE00
00FFFE0001FFFC00
007FFFC00FFFF800
003FFFFFFFFFF000
000FFFFFFFFFC000
0007FFFFFFFF8000
0003FFFFFFFF0000
0000FFFFFFFC0000
00003FFFFFF00000
000007FFFF800000
0000007FF8000000
ENDCHAR
STARTCHAR Otilde
ENCODING 213
SWIDTH 777 0
DWIDTH 70 0
BBX 62 81 4 -1
BITMAP
000001F003F80000
000007FE03F80000
00000FFF07F80000
00001FFFC7F80000
00001FFFFFF00000
00003FFFFFF00000
00003FFFFFF00000
00007FFFFFE00000
00007F8FFFE00000
00007F03FFC00000
00007F01FF800000
00007F003E000000
0000000000000000
0000000000000000
0000007FF8000000
000007FFFF800000
00003FFFFFF00000
0000FFFFFFFC0000
0003FFFFFFFF0000
0007FFFFFFFF8000
001FFFFFFFFFC000
003FFFFFFFFFF000
007FFFC00FFFF800
00FFFE0001FFFC00
01FFF800007FFE00
01FFE000001FFE00
03FF8000000FFF00
07FF00000003FF80
07FE00000001FF80
0FFC00000001FFC0
0FF800000000FFC0
1FF8000000007FE0
1FF0000000003FE0
3FF0000000003FF0
3FE0000000001FF0
3FE0000000001FF0
7FE0000000001FF8
7FC0000000000FF8
7FC0000000000FF8
7FC0000000000FF8
7FC0000000000FF8
FF800000000007FC
FF800000000007FC
FF800000000007FC
FF800000000007FC
FF800000000007FC
FF800000000007FC
FF800000000007FC
FF800000000007FC
FF800000000007FC
FF800000000007FC
FF800000000007FC
FF800000000007FC
FF800000000007FC
FF80000000000FF8
7FC0000000000FF8
7FC0000000000FF8
7FC0000000000FF8
7FE0000000001FF8
3FE0000000001FF0
3FE0000000001FF0
3FF0000000003FF0
1FF0000000003FE0
1FF8000000007FE0
0FFC00000000FFC0
0FFC00000000FFC0
07FE00000001FF80
07FF00000003FF80
03FF8000000FFF00
01FFE000001FFE00
00FFF800007FFE00
00FFFE0001FFFC00
007FFFC00FFFF800
003FFFFFFFFFF000
000FFFFFFFFFC000
0007FFFFFFFF8000
0003FFFFFFFF0000
0000FFFFFFFC0000
00003FFFFFF00000
000007FFFF800000
0000007FF8000000
ENDCHAR
STARTCHAR Odieresis
ENCODING 214
SWIDTH 777 0
DWIDTH 70 0
BBX 62 77 4 -1
BITMAP
00001FE01FE00000
00001FE01FE00000
00001FE01FE00000
00001FE01FE00000
00001FE01FE00000
00001FE01FE00000
00001FE01FE00000
00001FE01FE00000
0000000000000000
0000000000000000
0000007FF8000000
000007FFFF800000
00003FFFFFF00000
0000FFFFFFFC0000
0003FFFFFFFF0000
0007FFFFFFFF8000
001FFFFFFFFFC000
003FFFFFFFFFF000
007FFFC00FFFF800
00FFFE0001FFFC00
01FFF800007FFE00
01FFE000001FFE00
03FF8000000FFF00
07FF00000003FF80
07FE00000001FF80
0FFC00000001FFC0
0FF800000000FFC0
1FF8000000007FE0
1FF0000000003FE0
3FF0000000003FF0
3FE0000000001FF0
3FE0000000001FF0
7FE0000000001FF8
7FC0000000000FF8
7FC0000000000FF8
7FC0000000000FF8
7FC0000000000FF8
FF800000000007FC
FF800000000007FC
FF800000000007FC
FF800000000007FC
FF800000000007FC
FF800000000007FC
FF800000000007FC
FF800000000007FC
FF800000000007FC
FF800000000007FC
FF800000000007FC
FF800000000007FC
FF800000000007FC
FF80000000000FF8
7FC0000000000FF8
7FC0000000000FF8
7FC0000000000FF8
7FE0000000001FF8
3FE0000000001FF0
3FE0000000001FF0
3FF0000000003FF0
1FF0000000003FE0
1FF8000000007FE0
0FFC00000000FFC0
0FFC00000000FFC0
07FE00000001FF80
07FF00000003FF80
03FF8000000FFF00
01FFE000001FFE00
00FFF800007FFE00
00FFFE0001FFFC00
007FFFC00FFFF800
003FFFFFFFFFF000
000FFFFFFFFFC000
0007FFFFFFFF8000
0003FFFFFFFF0000
0000FFFFFFFC0000
00003FFFFFF00000
000007FFFF800000
0000007FF8000000
ENDCHAR
STARTCHAR multiply
ENCODING 215
SWIDTH 583 0
DWIDTH 53 0
BBX 37 41 7 11
BITMAP
0800000100
0C00000180
1E000003C0
1F000007E0
3F80000FE0
7FC0001FF0
FFE0003FF8
7FF0007FF8
7FF800FFF0
3FFC01FFE0
1FFE03FFC0
0FFF07FF80
07FF8FFF00
03FFDFFE00
01FFFFFC00
00FFFFF800
007FFFF000
003FFFE000
001FFFC000
000FFF8000
0007FF0000
000FFF8000
001FFFC000
003FFFE000
007FFFF000
00FFFFF800
01FFFFFC00
03FFDFFE00
07FF8FFF00
0FFF07FF80
1FFE03FFC0
3FFC01FFE0
7FF800FFF0
7FF0007FF8
FFE0003FF8
7FC0001FF0
3F80000FE0
1F000007E0
1E000003C0
0C00000180
0800000100
ENDCHAR
STARTCHAR Oslash
ENCODING 216
SWIDTH 777 0
DWIDTH 70 0
BBX 64 70 4 -4
BITMAP
0000007FF8000000
000007FFFF800060
00003FFFFFE000F8
0000FFFFFFF801FC
0003FFFFFFFE03FF
0007FFFFFFFF07FE
001FFFFFFFFFCFFC
003FFFFFFFFFFFF8
007FFFC00FFFFFF0
00FFFE0001FFFFE0
01FFF800007FFFC0
01FFE000001FFF80
03FF8000000FFF80
07FF00000007FF80
07FE0000000FFF80
0FFC0000000FFFC0
0FF80000001FFFC0
1FF80000003FFFE0
1FF00000007FFFE0
3FF0000000FFDFF0
3FE0000001FFDFF0
3FE0000003FF9FF0
7FE0000007FF0FF8
7FC0000007FE0FF8
7FC000000FFC0FF8
7FC000001FF80FF8
7FC000003FF007F8
FF8000007FE007FC
FF800000FFC007FC
FF800001FFC007FC
FF800003FF8007FC
FF800007FF0007FC
FF800007FE0007FC
FF80000FFC0007FC
FF80001FF80007FC
FF80003FF00007FC
FF80007FE00007FC
FF8000FFE00007FC
FF8001FFC00007FC
FF8003FF800007FC
FFC003FF00000FFC
7FC007FE00000FF8
7FC00FFC00000FF8
7FC01FF800000FF8
7FE03FF000001FF8
3FE07FE000001FF8
3FF0FFE000001FF0
3FF1FFC000003FF0
1FFBFF8000003FF0
1FFBFF0000007FE0
0FFFFE000000FFE0
0FFFFC000000FFC0
07FFF8000001FFC0
03FFF0000003FF80
03FFF000000FFF00
01FFE000001FFF00
01FFF000007FFE00
01FFFE0001FFFC00
03FFFFC00FFFF800
07FFFFFFFFFFF000
0FFFFFFFFFFFE000
1FFFFFFFFFFFC000
3FF3FFFFFFFF0000
7FF0FFFFFFFE0000
FFE03FFFFFF00000
7FC007FFFFC00000
3F80003FFC000000
1F00000000000000
0E00000000000000
0400000000000000
ENDCHAR
STARTCHAR Ugrave
ENCODING 217
SWIDTH 722 0
DWIDTH 65 0
BBX 51 81 7 -1
BITMAP
0001FF80000000
0000FFC0000000
00007FC0000000
00003FE0000000
00001FE0000000
00000FF0000000
00000FF0000000
000007F8000000
000003F8000000
000001FC000000
000000FC000000
0000007E000000
00000000000000
00000000000000
00000000000000
FF800000003FE0
FF800000003FE0
FF800000003FE0
FF800000003FE0
FF800000003FE0
FF800000003FE0
FF800000003FE0
FF800000003FE0
FF800000003FE0
FF800000003FE0
FF800000003FE0
FF800000003FE0
FF800000003FE0
FF800000003FE0
FF800000003FE0
FF800000003FE0
FF800000003FE0
FF800000003FE0
FF800000003FE0
FF800000003FE0
FF800000003FE0
FF800000003FE0
FF800000003FE0
FF800000003FE0
FF800000003FE0
FF800000003FE0
FF800000003FE0
FF800000003FE0
FF800000003FE0
FF800000003FE0
FF800000003FE0
FF800000003FE0
FF800000003FE0
FF800000003FE0
FF800000003FE0
FF800000003FE0
FF800000003FE0
FF800000003FE0
FF800000003FE0
FF800000003FE0
FF800000003FE0
FF800000003FE0
FF800000003FE0
FF800000003FE0
FF800000003FE0
FF800000007FE0
7FC00000007FC0
7FC00000007FC0
7FC00000007FC0
7FC0000000FFC0
7FE0000000FFC0
3FE0000000FF80
3FF0000001FF80
3FF8000003FF80
1FFC000007FF00
1FFE00000FFF00
0FFF80003FFE00
07FFF001FFFC00
07FFFFFFFFF800
03FFFFFFFFF000
01FFFFFFFFE000
007FFFFFFFC000
003FFFFFFF8000
000FFFFFFE0000
0001FFFFF00000
00001FFF000000
ENDCHAR
STARTCHAR Uacute
ENCODING 218
SWIDTH 722 0
DWIDTH 65 0
BBX 51 81 7 -1
BITMAP
0000007FE00000
000000FFC00000
000000FF800000
000001FF000000
000001FE000000
000003FC000000
000003FC000000
000007F8000000
000007F0000000
00000FE0000000
00000FC0000000
00001F80000000
00000000000000
00000000000000
00000000000000
FF800000003FE0
FF800000003FE0
FF800000003FE0
FF800000003FE0
FF800000003FE0
FF800000003FE0
FF800000003FE0
FF800000003FE0
FF800000003FE0
FF800000003FE0
FF800000003FE0
FF800000003FE0
FF800000003FE0
FF800000003FE0
FF800000003FE0
FF800000003FE0
FF800000003FE0
FF800000003FE0
FF800000003FE0
FF800000003FE0
FF800000003FE0
FF800000003FE0
FF800000003FE0
FF800000003FE0
FF800000003FE0
FF800000003FE0
FF800000003FE0
FF800000003FE0
FF800000003FE0
FF800000003FE0
FF800000003FE0
FF800000003FE0
FF800000003FE0
FF800000003FE0
FF800000003FE0
FF800000003FE0
FF800000003FE0
FF800000003FE0
FF800000003FE0
FF800000003FE0
FF800000003FE0
FF800000003FE0
FF800000003FE0
FF800000003FE0
FF800000003FE0
FF800000007FE0
7FC00000007FC0
7FC00000007FC0
7FC00000007FC0
7FC0000000FFC0
7FE0000000FFC0
3FE0000000FF80
3FF0000001FF80
3FF8000003FF80
1FFC000007FF00
1FFE00000FFF00
0FFF80003FFE00
07FFF001FFFC00
07FFFFFFFFF800
03FFFFFFFFF000
01FFFFFFFFE000
007FFFFFFFC000
003FFFFFFF8000
000FFFFFFE0000
0001FFFFF00000
00001FFF000000
ENDCHAR
STARTCHAR Ucircumflex
ENCODING 219
SWIDTH 722 0
DWIDTH 65 0
BBX 51 81 7 -1
BITMAP
000003FC000000
000007FE000000
00000FFF000000
00000FFF800000
00001FFFC00000
00003F9FC00000
00007F8FE00000
00007F0FF00000
0000FE07F80000
0001FE03FC0000
0001FC03FC0000
0003FC01FE0000
00000000000000
00000000000000
00000000000000
FF800000003FE0
FF800000003FE0
FF800000003FE0
FF800000003FE0
FF800000003FE0
FF800000003FE0
FF800000003FE0
FF800000003FE0
FF800000003FE0
FF800000003FE0
FF800000003FE0
FF800000003FE0
FF800000003FE0
FF800000003FE0
FF800000003FE0
FF800000003FE0
FF800000003FE0
FF800000003FE0
FF800000003FE0
FF800000003FE0
FF800000003FE0
FF800000003FE0
FF800000003FE0
FF800000003FE0
FF800000003FE0
FF800000003FE0
FF800000003FE0
FF800000003FE0
FF800000003FE0
FF800000003FE0
FF800000003FE0
FF800000003FE0
FF800000003FE0
FF800000003FE0
FF800000003FE0
FF800000003FE0
FF800000003FE0
FF800000003FE0
FF800000003FE0
FF800000003FE0
FF800000003FE0
FF800000003FE0
FF800000003FE0
FF800000003FE0
FF800000003FE0
FF800000007FE0
7FC00000007FC0
7FC00000007FC0
7FC00000007FC0
7FC0000000FFC0
7FE0000000FFC0
3FE0000000FF80
3FF0000001FF80
3FF8000003FF80
1FFC000007FF00
1FFE00000FFF00
0FFF80003FFE00
07FFF001FFFC00
07FFFFFFFFF800
03FFFFFFFFF000
01FFFFFFFFE000
007FFFFFFFC000
003FFFFFFF8000
000FFFFFFE0000
0001FFFFF00000
00001FFF000000
ENDCHAR
STARTCHAR Udieresis
ENCODING 220
SWIDTH 722 0
DWIDTH 65 0
BBX 51 77 7 -1
BITMAP
0007F807F80000
0007F807F80000
0007F807F80000
0007F807F80000
0007F807F80000
0007F807F80000
0007F807F80000
0007F807F80000
00000000000000
00000000000000
00000000000000
FF800000003FE0
FF800000003FE0
FF800000003FE0
FF800000003FE0
FF800000003FE0
FF800000003FE0
FF800000003FE0
FF800000003FE0
FF800000003FE0
FF800000003FE0
FF800000003FE0
FF800000003FE0
FF800000003FE0
FF800000003FE0
FF800000003FE0
FF800000003FE0
FF800000003FE0
FF800000003FE0
FF800000003FE0
FF800000003FE0
FF800000003FE0
FF800000003FE0
FF800000003FE0
FF800000003FE0
FF800000003FE0
FF800000003FE0
FF800000003FE0
FF800000003FE0
FF800000003FE0
FF800000003FE0
FF800000003FE0
FF800000003FE0
FF800000003FE0
FF800000003FE0
FF800000003FE0
FF800000003FE0
FF800000003FE0
FF800000003FE0
FF800000003FE0
FF800000003FE0
FF800000003FE0
FF800000003FE0
FF800000003FE0
FF800000003FE0
FF800000003FE0
FF800000007FE0
7FC00000007FC0
7FC00000007FC0
7FC00000007FC0
7FC0000000FFC0
7FE0000000FFC0
3FE0000000FF80
3FF0000001FF80
3FF8000003FF80
1FFC000007FF00
1FFE00000FFF00
0FFF80003FFE00
07FFF001FFFC00
07FFFFFFFFF800
03FFFFFFFFF000
01FFFFFFFFE000
007FFFFFFFC000
003FFFFFFF8000
000FFFFFFE0000
0001FFFFF00000
00001FFF000000
ENDCHAR
STARTCHAR Yacute
ENCODING 221
SWIDTH 666 0
DWIDTH 59 0
BBX 59 80 0 0
BITMAP
00000001FF800000
00000003FF000000
00000003FE000000
00000007FC000000
00000007F8000000
0000000FF0000000
0000000FF0000000
0000001FE0000000
0000001FC0000000
0000003F80000000
0000003F00000000
0000007E00000000
0000000000000000
0000000000000000
0000000000000000
FFE000000000FFE0
7FF000000001FFC0
3FF000000001FF80
3FF800000003FF80
1FFC00000003FF00
0FFC00000007FE00
0FFE0000000FFE00
07FF0000000FFC00
03FF0000001FF800
03FF8000003FF800
01FFC000003FF000
00FFC000007FE000
00FFE000007FE000
007FF00000FFC000
003FF00001FF8000
003FF80001FF8000
001FFC0003FF0000
000FFC0007FE0000
000FFE0007FE0000
0007FF000FFC0000
0003FF000FF80000
0003FF801FF80000
0001FFC03FF00000
0000FFC03FE00000
0000FFE07FE00000
00007FF0FFC00000
00003FF0FF800000
00003FF9FF800000
00001FFDFF000000
00000FFFFE000000
00000FFFFE000000
000007FFFC000000
000003FFF8000000
000003FFF8000000
000001FFF0000000
000000FFE0000000
000000FFE0000000
0000007FC0000000
0000007FC0000000
0000007FC0000000
0000007FC0000000
0000007FC0000000
0000007FC0000000
0000007FC0000000
0000007FC0000000
0000007FC0000000
0000007FC0000000
0000007FC0000000
0000007FC0000000
0000007FC0000000
0000007FC0000000
0000007FC0000000
0000007FC0000000
0000007FC0000000
0000007FC0000000
0000007FC0000000
0000007FC0000000
0000007FC0000000
0000007FC0000000
0000007FC0000000
0000007FC0000000
0000007FC0000000
0000007FC0000000
0000007FC0000000
0000007FC0000000
ENDCHAR
STARTCHAR Thorn
ENCODING 222
SWIDTH 666 0
DWIDTH 60 0
BBX 49 65 7 0
BITMAP
FF800000000000
FF800000000000
FF800000000000
FF800000000000
FF800000000000
FF800000000000
FF800000000000
FF800000000000
FF800000000000
FF800000000000
FF800000000000
FF800000000000
FFFFFFFF800000
FFFFFFFFF80000
FFFFFFFFFF0000
FFFFFFFFFF8000
FFFFFFFFFFE000
FFFFFFFFFFF000
FFFFFFFFFFF800
FFFFFFFFFFF800
FF800000FFFC00
FF8000001FFE00
FF8000000FFE00
FF80000007FE00
FF80000003FF00
FF80000003FF00
FF80000001FF00
FF80000001FF80
FF80000000FF80
FF80000000FF80
FF80000000FF80
FF80000000FF80
FF80000000FF80
FF80000000FF80
FF80000000FF80
FF80000000FF80
FF80000001FF80
FF80000001FF00
FF80000001FF00
FF80000003FF00
FF80000003FF00
FF80000007FE00
FF8000000FFE00
FF8000003FFC00
FF800001FFFC00
FFFFFFFFFFF800
FFFFFFFFFFF000
FFFFFFFFFFE000
FFFFFFFFFFC000
FFFFFFFFFF8000
FFFFFFFFFE0000
FFFFFFFFF80000
FFFFFFFF000000
FF800000000000
FF800000000000
FF800000000000
FF800000000000
FF800000000000
FF800000000000
FF800000000000
FF800000000000
FF800000000000
FF800000000000
FF800000000000
FF800000000000
ENDCHAR
STARTCHAR germandbls
ENCODING 223
SWIDTH 610 0
DWIDTH 55 0
BBX 45 67 7 -1
BITMAP
0003FE000000
003FFFE00000
00FFFFF80000
01FFFFFC0000
07FFFFFE0000
0FFFFFFF0000
0FFFFFFF8000
1FFFFFFF8000
3FFE03FFC000
3FF800FFC000
7FE0007FE000
7FC0003FE000
7FC0001FE000
7F80001FE000
FF80001FE000
FF80001FE000
FF00001FE000
FF00001FC000
FF00003FC000
FF00003FC000
FF00007F8000
FF00007F8000
FF0000FF0000
FF0001FF0000
FF0001FE0000
FF0003FC0000
FF0003FC0000
FF0007F80000
FF0007F80000
FF000FF00000
FF000FF00000
FF000FF00000
FF000FF00000
FF000FF80000
FF000FFC0000
FF0007FE0000
FF0007FF8000
FF0003FFC000
FF0001FFF000
FF0000FFF800
FF00007FFE00
FF00003FFF00
FF00000FFF80
FF000003FFC0
FF000001FFE0
FF0000007FE0
FF0000003FF0
FF0000001FF0
FF0000000FF8
FF00000007F8
FF00000007F8
FF00000007F8
FF00100007F8
FF00F00007F8
FF07F8000FF8
FF1FF8000FF8
FF0FFC001FF0
FF0FFE003FF0
FF07FF81FFE0
FF03FFFFFFE0
FF03FFFFFFC0
FF01FFFFFF80
FF00FFFFFF80
FF003FFFFE00
FF001FFFFC00
FF0007FFF000
000000FF8000
ENDCHAR
STARTCHAR agrave
ENCODING 224
SWIDTH 556 0
DWIDTH 50 0
BBX 42 65 4 -1
BITMAP
000FFC000000
0007FE000000
0003FE000000
0001FF000000
0000FF000000
00007F800000
00007F800000
00003FC00000
00001FC00000
00000FE00000
000007E00000
000003F00000
000000000000
000000000000
000000000000
000000000000
0000FFF00000
000FFFFF0000
007FFFFFC000
01FFFFFFF000
03FFFFFFF800
07FFFFFFFC00
0FFFFFFFFC00
1FFFFFFFFE00
1FFF003FFE00
3FF8000FFE00
3FF00003FF00
3FE00001FF00
7FC00001FF00
7FC00000FF00
07800000FF00
00000000FF00
00000000FF00
00000000FF00
00000003FF00
0000003FFF00
00000FFFFF00
0007FFFFFF00
003FFFFFFF00
01FFFFFFFF00
03FFFFFFFF00
0FFFFFFFFF00
1FFFFFFCFF00
1FFFFFC0FF00
3FFFE000FF00
7FF80000FF00
7FE00000FF00
7F800000FF00
FF800001FF00
FF000001FF00
FF000001FF00
FF000003FF00
FF000007FF00
FF80000FFF00
FFC0003FFF00
7FE0007FFF00
7FF803FFFF00
7FFFFFFFFF00
3FFFFFFFFF80
3FFFFFFCFF80
1FFFFFF8FF80
0FFFFFF07F80
03FFFFC07F80
01FFFF003FC0
001FF8000000
ENDCHAR
STARTCHAR aacute
ENCODING 225
SWIDTH 556 0
DWIDTH 50 0
BBX 42 65 4 -1
BITMAP
000003FF0000
000007FE0000
000007FC0000
00000FF80000
00000FF00000
00001FE00000
00001FE00000
00003FC00000
00003F800000
00007F000000
00007E000000
0000FC000000
000000000000
000000000000
000000000000
000000000000
0000FFF00000
000FFFFF0000
007FFFFFC000
01FFFFFFF000
03FFFFFFF800
07FFFFFFFC00
0FFFFFFFFC00
1FFFFFFFFE00
1FFF003FFE00
3FF8000FFE00
3FF00003FF00
3FE00001FF00
7FC00001FF00
7FC00000FF00
07800000FF00
00000000FF00
00000000FF00
00000000FF00
00000003FF00
0000003FFF00
00000FFFFF00
0007FFFFFF00
003FFFFFFF00
01FFFFFFFF00
03FFFFFFFF00
0FFFFFFFFF00
1FFFFFFCFF00
1FFFFFC0FF00
3FFFE000FF00
7FF80000FF00
7FE00000FF00
7F800000FF00
FF800001FF00
FF000001FF00
FF000001FF00
FF000003FF00
FF000007FF00
FF80000FFF00
FFC0003FFF00
7FE0007FFF00
7FF803FFFF00
7FFFFFFFFF00
3FFFFFFFFF80
3FFFFFFCFF80
1FFFFFF8FF80
0FFFFFF07F80
03FFFFC07F80
01FFFF003FC0
001FF8000000
ENDCHAR
STARTCHAR acircumflex
ENCODING 226
SWIDTH 556 0
DWIDTH 50 0
BBX 42 65 4 -1
BITMAP
0000FF800000
0000FFC00000
0001FFE00000
0003FFF00000
0003F7F00000
0007F3F80000
000FE3FC0000
001FE1FE0000
001FC0FE0000
003FC07F0000
007F807F8000
007F803FC000
000000000000
000000000000
000000000000
000000000000
0000FFF00000
000FFFFF0000
007FFFFFC000
01FFFFFFF000
03FFFFFFF800
07FFFFFFFC00
0FFFFFFFFC00
1FFFFFFFFE00
1FFF003FFE00
3FF8000FFE00
3FF00003FF00
3FE00001FF00
7FC00001FF00
7FC00000FF00
07800000FF00
00000000FF00
00000000FF00
00000000FF00
00000003FF00
0000003FFF00
00000FFFFF00
0007FFFFFF00
003FFFFFFF00
01FFFFFFFF00
03FFFFFFFF00
0FFFFFFFFF00
1FFFFFFCFF00
1FFFFFC0FF00
3FFFE000FF00
7FF80000FF00
7FE00000FF00
7F800000FF00
FF800001FF00
FF000001FF00
FF000001FF00
FF000003FF00
FF000007FF00
FF80000FFF00
FFC0003FFF00
7FE0007FFF00
7FF803FFFF00
7FFFFFFFFF00
3FFFFFFFFF80
3FFFFFFCFF80
1FFFFFF8FF80
0FFFFFF07F80
03FFFFC07F80
01FFFF003FC0
001FF8000000
ENDCHAR
STARTCHAR atilde
ENCODING 227
SWIDTH 556 0
DWIDTH 50 0
BBX 42 65 4 -1
BITMAP
0007C00FE000
001FF80FE000
003FFC1FE000
007FFF1FE000
007FFFFFC000
00FFFFFFC000
00FFFFFFC000
01FFFFFF8000
01FE3FFF8000
01FC0FFF0000
01FC07FE0000
01FC00F80000
000000000000
000000000000
000000000000
000000000000
0000FFF00000
000FFFFF0000
007FFFFFC000
01FFFFFFF000
03FFFFFFF800
07FFFFFFFC00
0FFFFFFFFC00
1FFFFFFFFE00
1FFF003FFE00
3FF8000FFE00
3FF00003FF00
3FE00001FF00
7FC00001FF00
7FC00000FF00
07800000FF00
00000000FF00
00000000FF00
00000000FF00
00000003FF00
0000003FFF00
00000FFFFF00
0007FFFFFF00
003FFFFFFF00
01FFFFFFFF00
03FFFFFFFF00
0FFFFFFFFF00
1FFFFFFCFF00
1FFFFFC0FF00
3FFFE000FF00
7FF80000FF00
7FE00000FF00
7F800000FF00
FF800001FF00
FF000001FF00
FF000001FF00
FF000003FF00
FF000007FF00
FF80000FFF00
FFC0003FFF00
7FE0007FFF00
7FF803FFFF00
7FFFFFFFFF00
3FFFFFFFFF80
3FFFFFFCFF80
1FFFFFF8FF80
0FFFFFF07F80
03FFFFC07F80
01FFFF003FC0
001FF8000000
ENDCHAR
STARTCHAR adieresis
ENCODING 228
SWIDTH 556 0
DWIDTH 50 0
BBX 42 61 4 -1
BITMAP
003FC03FC000
003FC03FC000
003FC03FC000
003FC03FC000
003FC03FC000
003FC03FC000
003FC03FC000
003FC03FC000
000000000000
000000000000
000000000000
000000000000
0000FFF00000
000FFFFF0000
007FFFFFC000
01FFFFFFF000
03FFFFFFF800
07FFFFFFFC00
0FFFFFFFFC00
1FFFFFFFFE00
1FFF003FFE00
3FF8000FFE00
3FF00003FF00
3FE00001FF00
7FC00001FF00
7FC00000FF00
07800000FF00
00000000FF00
00000000FF00
00000000FF00
00000003FF00
0000003FFF00
00000FFFFF00
0007FFFFFF00
003FFFFFFF00
01FFFFFFFF00
03FFFFFFFF00
0FFFFFFFFF00
1FFFFFFCFF00
1FFFFFC0FF00
3FFFE000FF00
7FF80000FF00
7FE00000FF00
7F800000FF00
FF800001FF00
FF000001FF00
FF000001FF00
FF000003FF00
FF000007FF00
FF80000FFF00
FFC0003FFF00
7FE0007FFF00
7FF803FFFF00
7FFFFFFFFF00
3FFFFFFFFF80
3FFFFFFCFF80
1FFFFFF8FF80
0FFFFFF07F80
03FFFFC07F80
01FFFF003FC0
001FF8000000
ENDCHAR
STARTCHAR aring
ENCODING 229
SWIDTH 556 0
DWIDTH 50 0
BBX 42 68 4 -1
BITMAP
00001F000000
00007FC00000
0000FFE00000
0001E1F00000
0001C0700000
000380780000
000380380000
000380380000
000380380000
000380780000
0001C0700000
0001E1F00000
0000FFE00000
00007FC00000
00001F000000
000000000000
000000000000
000000000000
000000000000
0000FFF00000
000FFFFF0000
007FFFFFC000
01FFFFFFF000
03FFFFFFF800
07FFFFFFFC00
0FFFFFFFFC00
1FFFFFFFFE00
1FFF003FFE00
3FF8000FFE00
3FF00003FF00
3FE00001FF00
7FC00001FF00
7FC00000FF00
07800000FF00
00000000FF00
00000000FF00
00000000FF00
00000003FF00
0000003FFF00
00000FFFFF00
0007FFFFFF00
003FFFFFFF00
01FFFFFFFF00
03FFFFFFFF00
0FFFFFFFFF00
1FFFFFFCFF00
1FFFFFC0FF00
3FFFE000FF00
7FF80000FF00
7FE00000FF00
7F800000FF00
FF800001FF00
FF000001FF00
FF000001FF00
FF000003FF00
FF000007FF00
FF80000FFF00
FFC0003FFF00
7FE0007FFF00
7FF803FFFF00
7FFFFFFFFF00
3FFFFFFFFF80
3FFFFFFCFF80
1FFFFFF8FF80
0FFFFFF07F80
03FFFFC07F80
01FFFF003FC0
001FF8000000
ENDCHAR
STARTCHAR ae
ENCODING 230
SWIDTH 889 0
DWIDTH 80 0
BBX 73 49 3 -1
BITMAP
0001FFF00001FF800000
000FFFFE000FFFF80000
007FFFFFC03FFFFE0000
01FFFFFFE0FFFFFF0000
03FFFFFFF1FFFFFF8000
07FFFFFFFBFFFFFFC000
0FFFFFFFFFFFFFFFE000
0FFFFFFFFFFFFFFFF000
1FFE007FFFFE00FFF800
1FF0000FFFF0001FF800
3FE00007FFC00007FC00
3FC00007FF800003FC00
7FC00003FF000001FE00
7F800003FE000000FE00
07800003FE000000FF00
00000003FC000000FF00
0000000FFC0000007F00
000000FFFC0000007F00
00003FFFFFFFFFFFFF80
0007FFFFFFFFFFFFFF80
003FFFFFFFFFFFFFFF80
00FFFFFFFFFFFFFFFF80
03FFFFFFFFFFFFFFFF80
07FFFFFFFFFFFFFFFF80
0FFFFFFBFFFFFFFFFF80
1FFFFF83FFFFFFFFFF80
3FFFF003FC0000000000
3FFC0003FC0000000000
7FE00003FC0000000000
7FC00003FC0000000000
7F800003FC0000000000
FF800003FE0000000000
FF000007FE0000000000
FF000007FE0000007800
FF000007FF000000FF80
FF00000FFF000000FF00
FF00001FFF800001FF00
FF80003FFFC00003FF00
FFC0007FFFE00007FE00
7FE001FFFFF8001FFE00
7FF807FFFFFF007FFC00
3FFFFFFFCFFFFFFFF800
3FFFFFFF87FFFFFFF000
1FFFFFFE03FFFFFFE000
0FFFFFFC01FFFFFFC000
07FFFFF800FFFFFF8000
03FFFFE0003FFFFE0000
00FFFF00000FFFF80000
001FF8000001FFC00000
ENDCHAR
STARTCHAR ccedilla
ENCODING 231
SWIDTH 500 0
DWIDTH 45 0
BBX 40 66 4 -18
BITMAP
0000FFC000
0007FFF800
001FFFFE00
007FFFFF00
01FFFFFFC0
03FFFFFFE0
07FFFFFFE0
07FFFFFFF0
0FFF80FFF8
1FFE001FF8
1FF8000FFC
3FF00007FC
3FE00003FC
3FC00003FE
7FC00003FE
7F800001E0
7F80000000
7F80000000
FF80000000
FF00000000
FF00000000
FF00000000
FF00000000
FF00000000
FF00000000
FF00000000
FF00000000
FF00000000
FF00000000
FF00000000
FF80000000
7F800000F0
7F800000FF
7F800001FF
7FC00001FE
3FC00001FE
3FE00003FE
3FF00007FE
1FF8000FFC
1FFC001FFC
0FFF80FFF8
07FFFFFFF0
03FFFFFFF0
03FFFFFFE0
00FFFFFFC0
007FFFFF00
003FFFFE00
0007FFF800
0000FFC000
0000F80000
0001F00000
0001F00000
0001F80000
0003FF0000
0003FFC000
0003FFE000
00001FF000
000007F000
000007F000
00000FF000
00001FF000
007FFFE000
007FFFC000
007FFF8000
007FFF0000
007FF00000
ENDCHAR
STARTCHAR egrave
ENCODING 232
SWIDTH 556 0
DWIDTH 50 0
BBX 44 65 3 -1
BITMAP
000FFC000000
0007FE000000
0003FE000000
0001FF000000
0000FF000000
00007F800000
00007F800000
00003FC00000
00001FC00000
00000FE00000
000007E00000
000003F00000
000000000000
000000000000
000000000000
000000000000
00007FE00000
0003FFFE0000
001FFFFF8000
003FFFFFC000
00FFFFFFF000
01FFFFFFF800
03FFFFFFFC00
07FFFFFFFE00
07FFC01FFF00
0FFE0007FF00
1FF80001FF80
1FF00000FF80
3FE000007FC0
3FC000003FC0
7F8000001FE0
7F8000001FE0
7F0000001FE0
7F0000000FE0
FF0000000FE0
FFFFFFFFFFF0
FFFFFFFFFFF0
FFFFFFFFFFF0
FFFFFFFFFFF0
FFFFFFFFFFF0
FFFFFFFFFFF0
FFFFFFFFFFF0
FFFFFFFFFFF0
FF0000000000
FF0000000000
FF0000000000
FF8000000000
7F8000000000
7F8000000000
7FC000000000
7FC000000F00
3FE000001FF0
3FF000003FE0
1FF800007FE0
1FFC0000FFC0
0FFF0003FFC0
0FFFE00FFF80
07FFFFFFFF00
03FFFFFFFF00
01FFFFFFFE00
00FFFFFFFC00
003FFFFFF000
001FFFFFE000
0003FFFF0000
00007FF00000
ENDCHAR
STARTCHAR eacute
ENCODING 233
SWIDTH 556 0
DWIDTH 50 0
BBX 44 65 3 -1
BITMAP
000003FF0000
000007FE0000
000007FC0000
00000FF80000
00000FF00000
00001FE00000
00001FE00000
00003FC00000
00003F800000
00007F000000
00007E000000
0000FC000000
000000000000
000000000000
000000000000
000000000000
00007FE00000
0003FFFE0000
001FFFFF8000
003FFFFFC000
00FFFFFFF000
01FFFFFFF800
03FFFFFFFC00
07FFFFFFFE00
07FFC01FFF00
0FFE0007FF00
1FF80001FF80
1FF00000FF80
3FE000007FC0
3FC000003FC0
7F8000001FE0
7F8000001FE0
7F0000001FE0
7F0000000FE0
FF0000000FE0
FFFFFFFFFFF0
FFFFFFFFFFF0
FFFFFFFFFFF0
FFFFFFFFFFF0
FFFFFFFFFFF0
FFFFFFFFFFF0
FFFFFFFFFFF0
FFFFFFFFFFF0
FF0000000000
FF0000000000
FF0000000000
FF8000000000
7F8000000000
7F8000000000
7FC000000000
7FC000000F00
3FE000001FF0
3FF000003FE0
1FF800007FE0
1FFC0000FFC0
0FFF0003FFC0
0FFFE00FFF80
07FFFFFFFF00
03FFFFFFFF00
01FFFFFFFE00
00FFFFFFFC00
003FFFFFF000
001FFFFFE000
0003FFFF0000
00007FF00000
ENDCHAR
STARTCHAR ecircumflex
ENCODING 234
SWIDTH 556 0
DWIDTH 50 0
BBX 44 65 3 -1
BITMAP
00007FC00000
00007FE00000
0000FFF00000
0001FFF80000
0001FFF80000
0003F9FC0000
0007F0FE0000
000FF0FF0000
000FE07F8000
001FE03F8000
003FC03FC000
003FC01FE000
000000000000
000000000000
000000000000
000000000000
00007FE00000
0003FFFE0000
001FFFFF8000
003FFFFFC000
00FFFFFFF000
01FFFFFFF800
03FFFFFFFC00
07FFFFFFFE00
07FFC01FFF00
0FFE0007FF00
1FF80001FF80
1FF00000FF80
3FE000007FC0
3FC000003FC0
7F8000001FE0
7F8000001FE0
7F0000001FE0
7F0000000FE0
FF0000000FE0
FFFFFFFFFFF0
FFFFFFFFFFF0
FFFFFFFFFFF0
FFFFFFFFFFF0
FFFFFFFFFFF0
FFFFFFFFFFF0
FFFFFFFFFFF0
FFFFFFFFFFF0
FF0000000000
FF0000000000
FF0000000000
FF8000000000
7F8000000000
7F8000000000
7FC000000000
7FC000000F00
3FE000001FF0
3FF000003FE0
1FF800007FE0
1FFC0000FFC0
0FFF0003FFC0
0FFFE00FFF80
07FFFFFFFF00
03FFFFFFFF00
01FFFFFFFE00
00FFFFFFFC00
003FFFFFF000
001FFFFFE000
0003FFFF0000
00007FF00000
ENDCHAR
STARTCHAR edieresis
ENCODING 235
SWIDTH 556 0
DWIDTH 50 0
BBX 44 61 3 -1
BITMAP
001FE01FE000
001FE01FE000
001FE01FE000
001FE01FE000
001FE01FE000
001FE01FE000
001FE01FE000
001FE01FE000
000000000000
000000000000
000000000000
000000000000
00007FE00000
0003FFFE0000
001FFFFF8000
003FFFFFC000
00FFFFFFF000
01FFFFFFF800
03FFFFFFFC00
07FFFFFFFE00
07FFC01FFF00
0FFE0007FF00
1FF80001FF80
1FF00000FF80
3FE000007FC0
3FC000003FC0
7F8000001FE0
7F8000001FE0
7F0000001FE0
7F0000000FE0
FF0000000FE0
FFFFFFFFFFF0
FFFFFFFFFFF0
FFFFFFFFFFF0
FFFFFFFFFFF0
FFFFFFFFFFF0
FFFFFFFFFFF0
FFFFFFFFFFF0
FFFFFFFFFFF0
FF0000000000
FF0000000000
FF0000000000
FF8000000000
7F8000000000
7F8000000000
7FC000000000
7FC000000F00
3FE000001FF0
3FF000003FE0
1FF800007FE0
1FFC0000FFC0
0FFF0003FFC0
0FFFE00FFF80
07FFFFFFFF00
03FFFFFFFF00
01FFFFFFFE00
00FFFFFFFC00
003FFFFFF000
001FFFFFE000
0003FFFF0000
00007FF00000
ENDCHAR
STARTCHAR igrave
ENCODING 236
SWIDTH 277 0
DWIDTH 24 0
BBX 16 64 2 0
BITMAP
FFC0
7FE0
3FE0
1FF0
0FF0
07F8
07F8
03FC
01FC
00FE
007E
003F
0000
0000
0000
0000
0000
03FC
03FC
03FC
03FC
03FC
03FC
03FC
03FC
03FC
03FC
03FC
03FC
03FC
03FC
03FC
03FC
03FC
03FC
03FC
03FC
03FC
03FC
03FC
03FC
03FC
03FC
03FC
03FC
03FC
03FC
03FC
03FC
03FC
03FC
03FC
03FC
03FC
03FC
03FC
03FC
03FC
03FC
03FC
03FC
03FC
03FC
03FC
ENDCHAR
STARTCHAR iacute
ENCODING 237
SWIDTH 277 0
DWIDTH 24 0
BBX 16 64 6 0
BITMAP
03FF
07FE
07FC
0FF8
0FF0
1FE0
1FE0
3FC0
3F80
7F00
7E00
FC00
0000
0000
0000
0000
0000
3FC0
3FC0
3FC0
3FC0
3FC0
3FC0
3FC0
3FC0
3FC0
3FC0
3FC0
3FC0
3FC0
3FC0
3FC0
3FC0
3FC0
3FC0
3FC0
3FC0
3FC0
3FC0
3FC0
3FC0
3FC0
3FC0
3FC0
3FC0
3FC0
3FC0
3FC0
3FC0
3FC0
3FC0
3FC0
3FC0
3FC0
3FC0
3FC0
3FC0
3FC0
3FC0
3FC0
3FC0
3FC0
3FC0
3FC0
ENDCHAR
STARTCHAR icircumflex
ENCODING 238
SWIDTH 277 0
DWIDTH 24 0
BBX 25 64 0 0
BITMAP
00FF8000
01FF8000
03FFC000
03FFE000
07FFF000
0FE7F800
0FE3F800
1FC1FC00
3FC1FE00
7F80FF00
7F807F00
FF007F80
00000000
00000000
00000000
00000000
00000000
00FF0000
00FF0000
00FF0000
00FF0000
00FF0000
00FF0000
00FF0000
00FF0000
00FF0000
00FF0000
00FF0000
00FF0000
00FF0000
00FF0000
00FF0000
00FF0000
00FF0000
00FF0000
00FF0000
00FF0000
00FF0000
00FF0000
00FF0000
00FF0000
00FF0000
00FF0000
00FF0000
00FF0000
00FF0000
00FF0000
00FF0000
00FF0000
00FF0000
00FF0000
00FF0000
00FF0000
00FF0000
00FF0000
00FF0000
00FF0000
00FF0000
00FF0000
00FF0000
00FF0000
00FF0000
00FF0000
00FF0000
ENDCHAR
STARTCHAR idieresis
ENCODING 239
SWIDTH 277 0
DWIDTH 24 0
BBX 24 60 0 0
BITMAP
FF00FF
FF00FF
FF00FF
FF00FF
FF00FF
FF00FF
FF00FF
FF00FF
000000
000000
000000
000000
000000
00FF00
00FF00
00FF00
00FF00
00FF00
00FF00
00FF00
00FF00
00FF00
00FF00
00FF00
00FF00
00FF00
00FF00
00FF00
00FF00
00FF00
00FF00
00FF00
00FF00
00FF00
00FF00
00FF00
00FF00
00FF00
00FF00
00FF00
00FF00
00FF00
00FF00
00FF00
00FF00
00FF00
00FF00
00FF00
00FF00
00FF00
00FF00
00FF00
00FF00
00FF00
00FF00
00FF00
00FF00
00FF00
00FF00
00FF00
ENDCHAR
STARTCHAR eth
ENCODING 240
SWIDTH 556 0
DWIDTH 50 0
BBX 44 66 3 -1
BITMAP
001FF8001000
000FFC00F000
0007FE03F800
0001FF8FF800
0000FFFFFC00
00007FFFF000
00001FFFC000
00001FFE0000
00007FFC0000
0001FFFE0000
0007FFFF0000
001FFEFF8000
007FF8FF8000
007FC07FC000
003F003FE000
003C001FE000
0010001FF000
0000000FF800
0000FF0FF800
0007FFE7FC00
001FFFFFFC00
007FFFFFFE00
00FFFFFFFE00
01FFFFFFFF00
03FFFFFFFF00
07FFFFFFFF80
0FFFC03FFF80
1FFE000FFF80
1FFC0003FFC0
3FF00001FFC0
3FE00000FFC0
3FE000007FE0
7FC000003FE0
7FC000003FE0
7F8000001FE0
7F8000001FF0
FF8000001FF0
FF0000000FF0
FF0000000FF0
FF0000000FF0
FF0000000FF0
FF0000000FF0
FF0000000FF0
FF0000000FF0
FF0000000FF0
FF0000000FF0
FF0000000FF0
FF8000001FF0
7F8000001FE0
7F8000001FE0
7FC000003FE0
7FC000003FE0
3FE000007FC0
3FE00000FFC0
3FF00001FF80
1FFC0003FF80
1FFE000FFF00
0FFFC03FFE00
07FFFFFFFE00
03FFFFFFFC00
01FFFFFFF800
00FFFFFFF000
007FFFFFC000
001FFFFF8000
0007FFFC0000
00007FE00000
ENDCHAR
STARTCHAR ntilde
ENCODING 241
SWIDTH 556 0
DWIDTH 50 0
BBX 38 64 6 0
BITMAP
000F801FC0
003FF01FC0
007FF83FC0
00FFFE3FC0
00FFFFFF80
01FFFFFF80
01FFFFFF80
03FFFFFF00
03FC7FFF00
03F81FFE00
03F80FFC00
03F801F000
0000000000
0000000000
0000000000
0000000000
00003FE000
FF01FFFC00
FF07FFFF00
FF0FFFFF80
FF1FFFFFC0
FF3FFFFFE0
FF7FFFFFF0
FFFFFFFFF0
FFFF80FFF8
FFFC003FF8
FFF0001FF8
FFE0000FFC
FFC00007FC
FFC00007FC
FF800007FC
FF800003FC
FF800003FC
FF000003FC
FF000003FC
FF000003FC
FF000003FC
FF000003FC
FF000003FC
FF000003FC
FF000003FC
FF000003FC
FF000003FC
FF000003FC
FF000003FC
FF000003FC
FF000003FC
FF000003FC
FF000003FC
FF000003FC
FF000003FC
FF000003FC
FF000003FC
FF000003FC
FF000003FC
FF000003FC
FF000003FC
FF000003FC
FF000003FC
FF000003FC
FF000003FC
FF000003FC
FF000003FC
FF000003FC
ENDCHAR
STARTCHAR ograve
ENCODING 242
SWIDTH 556 0
DWIDTH 50 0
BBX 42 65 4 -1
BITMAP
001FF8000000
000FFC000000
0007FC000000
0003FE000000
0001FE000000
0000FF000000
0000FF000000
00007F800000
00003F800000
00001FC00000
00000FC00000
000007E00000
000000000000
000000000000
000000000000
000000000000
0000FFC00000
0007FFF80000
001FFFFE0000
007FFFFF8000
00FFFFFFC000
01FFFFFFE000
03FFFFFFF000
07FFFFFFF800
0FFF807FFC00
1FFE001FFC00
1FF8000FFE00
3FF00003FF00
3FE00001FF00
3FE00001FF00
7FC00000FF80
7FC00000FF80
7F8000007F80
7F8000007F80
FF8000007FC0
FF0000003FC0
FF0000003FC0
FF0000003FC0
FF0000003FC0
FF0000003FC0
FF0000003FC0
FF0000003FC0
FF0000003FC0
FF0000003FC0
FF0000003FC0
FF0000003FC0
FF8000007FC0
7F8000007F80
7F8000007F80
7FC00000FF80
7FC00000FF80
3FE00001FF00
3FE00001FF00
3FF00003FF00
1FF80007FE00
1FFE001FFE00
0FFF807FFC00
07FFFFFFF800
03FFFFFFF000
01FFFFFFE000
00FFFFFFC000
007FFFFF8000
001FFFFE0000
0007FFF80000
0000FFC00000
ENDCHAR
STARTCHAR oacute
ENCODING 243
SWIDTH 556 0
DWIDTH 50 0
BBX 42 65 4 -1
BITMAP
000007FE0000
00000FFC0000
00000FF80000
00001FF00000
00001FE00000
00003FC00000
00003FC00000
00007F800000
00007F000000
0000FE000000
0000FC000000
0001F8000000
000000000000
000000000000
000000000000
000000000000
0000FFC00000
0007FFF80000
001FFFFE0000
007FFFFF8000
00FFFFFFC000
01FFFFFFE000
03FFFFFFF000
07FFFFFFF800
0FFF807FFC00
1FFE001FFC00
1FF8000FFE00
3FF00003FF00
3FE00001FF00
3FE00001FF00
7FC00000FF80
7FC00000FF80
7F8000007F80
7F8000007F80
FF8000007FC0
FF0000003FC0
FF0000003FC0
FF0000003FC0
FF0000003FC0
FF0000003FC0
FF0000003FC0
FF0000003FC0
FF0000003FC0
FF0000003FC0
FF0000003FC0
FF0000003FC0
FF8000007FC0
7F8000007F80
7F8000007F80
7FC00000FF80
7FC00000FF80
3FE00001FF00
3FE00001FF00
3FF00003FF00
1FF80007FE00
1FFE001FFE00
0FFF807FFC00
07FFFFFFF800
03FFFFFFF000
01FFFFFFE000
00FFFFFFC000
007FFFFF8000
001FFFFE0000
0007FFF80000
0000FFC00000
ENDCHAR
STARTCHAR ocircumflex
ENCODING 244
SWIDTH 556 0
DWIDTH 50 0
BBX 42 65 4 -1
BITMAP
0000FF800000
0000FFC00000
0001FFE00000
0003FFF00000
0003FFF00000
0007F3F80000
000FE1FC0000
000FE1FE0000
001FC0FF0000
003FC07F0000
007F807F8000
007F803FC000
000000000000
000000000000
000000000000
000000000000
0000FFC00000
0007FFF80000
001FFFFE0000
007FFFFF8000
00FFFFFFC000
01FFFFFFE000
03FFFFFFF000
07FFFFFFF800
0FFF807FFC00
1FFE001FFC00
1FF8000FFE00
3FF00003FF00
3FE00001FF00
3FE00001FF00
7FC00000FF80
7FC00000FF80
7F8000007F80
7F8000007F80
FF8000007FC0
FF0000003FC0
FF0000003FC0
FF0000003FC0
FF0000003FC0
FF0000003FC0
FF0000003FC0
FF0000003FC0
FF0000003FC0
FF0000003FC0
FF0000003FC0
FF0000003FC0
FF8000007FC0
7F8000007F80
7F8000007F80
7FC00000FF80
7FC00000FF80
3FE00001FF00
3FE00001FF00
3FF00003FF00
1FF80007FE00
1FFE001FFE00
0FFF807FFC00
07FFFFFFF800
03FFFFFFF000
01FFFFFFE000
00FFFFFFC000
007FFFFF8000
001FFFFE0000
0007FFF80000
0000FFC00000
ENDCHAR
STARTCHAR otilde
ENCODING 245
SWIDTH 556 0
DWIDTH 50 0
BBX 42 65 4 -1
BITMAP
0007C00FE000
001FF80FE000
003FFC1FE000
007FFF1FE000
007FFFFFC000
00FFFFFFC000
00FFFFFFC000
01FFFFFF8000
01FE3FFF8000
01FC0FFF0000
01FC07FE0000
01FC00F80000
000000000000
000000000000
000000000000
000000000000
0000FFC00000
0007FFF80000
001FFFFE0000
007FFFFF8000
00FFFFFFC000
01FFFFFFE000
03FFFFFFF000
07FFFFFFF800
0FFF807FFC00
1FFE001FFC00
1FF8000FFE00
3FF00003FF00
3FE00001FF00
3FE00001FF00
7FC00000FF80
7FC00000FF80
7F8000007F80
7F8000007F80
FF8000007FC0
FF0000003FC0
FF0000003FC0
FF0000003FC0
FF0000003FC0
FF0000003FC0
FF0000003FC0
FF0000003FC0
FF0000003FC0
FF0000003FC0
FF0000003FC0
FF0000003FC0
FF8000007FC0
7F8000007F80
7F8000007F80
7FC00000FF80
7FC00000FF80
3FE00001FF00
3FE00001FF00
3FF00003FF00
1FF80007FE00
1FFE001FFE00
0FFF807FFC00
07FFFFFFF800
03FFFFFFF000
01FFFFFFE000
00FFFFFFC000
007FFFFF8000
001FFFFE0000
0007FFF80000
0000FFC00000
ENDCHAR
STARTCHAR odieresis
ENCODING 246
SWIDTH 556 0
DWIDTH 50 0
BBX 42 61 4 -1
BITMAP
003FC03FC000
003FC03FC000
003FC03FC000
003FC03FC000
003FC03FC000
003FC03FC000
003FC03FC000
003FC03FC000
000000000000
000000000000
000000000000
000000000000
0000FFC00000
0007FFF80000
001FFFFE0000
007FFFFF8000
00FFFFFFC000
01FFFFFFE000
03FFFFFFF000
07FFFFFFF800
0FFF807FFC00
1FFE001FFC00
1FF8000FFE00
3FF00003FF00
3FE00001FF00
3FE00001FF00
7FC00000FF80
7FC00000FF80
7F8000007F80
7F8000007F80
FF8000007FC0
FF0000003FC0
FF0000003FC0
FF0000003FC0
FF0000003FC0
FF0000003FC0
FF0000003FC0
FF0000003FC0
FF0000003FC0
FF0000003FC0
FF0000003FC0
FF0000003FC0
FF8000007FC0
7F8000007F80
7F8000007F80
7FC00000FF80
7FC00000FF80
3FE00001FF00
3FE00001FF00
3FF00003FF00
1FF80007FE00
1FFE001FFE00
0FFF807FFC00
07FFFFFFF800
03FFFFFFF000
01FFFFFFE000
00FFFFFFC000
007FFFFF8000
001FFFFE0000
0007FFF80000
0000FFC00000
ENDCHAR
STARTCHAR divide
ENCODING 247
SWIDTH 548 0
DWIDTH 49 0
BBX 44 34 4 16
BITMAP
00003FC00000
00003FC00000
00003FC00000
00003FC00000
00003FC00000
00003FC00000
00003FC00000
00003FC00000
000000000000
000000000000
000000000000
000000000000
000000000000
FFFFFFFFFFF0
FFFFFFFFFFF0
FFFFFFFFFFF0
FFFFFFFFFFF0
FFFFFFFFFFF0
FFFFFFFFFFF0
FFFFFFFFFFF0
FFFFFFFFFFF0
000000000000
000000000000
000000000000
000000000000
000000000000
00003FC00000
00003FC00000
00003FC00000
00003FC00000
00003FC00000
00003FC00000
00003FC00000
00003FC00000
ENDCHAR
STARTCHAR oslash
ENCODING 248
SWIDTH 610 0
DWIDTH 55 0
BBX 44 52 5 -3
BITMAP
000000000180
00007FC003E0
0003FFF807E0
001FFFFF0FC0
003FFFFF8FC0
00FFFFFFFF80
01FFFFFFFF00
03FFFFFFFE00
07FFFFFFFE00
0FFFC03FFE00
0FFF0003FF00
1FFC0003FF80
1FF80007FF80
3FF00007FFC0
3FE0000FFFC0
7FC0001FBFE0
7FC0003F3FE0
7F80003F1FE0
7F80007E1FE0
FF8000FC1FF0
FF8001F80FF0
FF0003F00FF0
FF0003F00FF0
FF0007E00FF0
FF000FC00FF0
FF001F800FF0
FF001F800FF0
FF003F000FF0
FF007E000FF0
FF00FC000FF0
FF01F8001FF0
FF81F8001FF0
FF83F0001FE0
7F87E0001FE0
7F8FC0003FE0
7FCFC0003FE0
3FDF80007FC0
3FFF0000FFC0
3FFE0001FF80
1FFC0003FF80
1FFC000FFF00
0FFF803FFF00
07FFFFFFFE00
07FFFFFFFC00
07FFFFFFF800
0FFFFFFFF000
1FBFFFFFC000
3F0FFFFF8000
7E03FFFE0000
7E007FE00000
1C0000000000
080000000000
ENDCHAR
STARTCHAR ugrave
ENCODING 249
SWIDTH 556 0
DWIDTH 50 0
BBX 38 65 6 -1
BITMAP
00FFC00000
007FE00000
003FE00000
001FF00000
000FF00000
0007F80000
0007F80000
0003FC0000
0001FC0000
0000FE0000
00007E0000
00003F0000
0000000000
0000000000
0000000000
0000000000
0000000000
FF000003FC
FF000003FC
FF000003FC
FF000003FC
FF000003FC
FF000003FC
FF000003FC
FF000003FC
FF000003FC
FF000003FC
FF000003FC
FF000003FC
FF000003FC
FF000003FC
FF000003FC
FF000003FC
FF000003FC
FF000003FC
FF000003FC
FF000003FC
FF000003FC
FF000003FC
FF000003FC
FF000003FC
FF000003FC
FF000003FC
FF000003FC
FF000003FC
FF000003FC
FF000003FC
FF000003FC
FF000007FC
FF000007FC
FF000007FC
FF80000FFC
FF80001FFC
FFC0001FFC
7FE0007FFC
7FF000FFFC
7FFC07FFFC
3FFFFFFBFC
3FFFFFF3FC
1FFFFFE3FC
0FFFFFC3FC
07FFFF83FC
03FFFF03FC
00FFFC03FC
001FF00000
ENDCHAR
STARTCHAR uacute
ENCODING 250
SWIDTH 556 0
DWIDTH 50 0
BBX 38 65 6 -1
BITMAP
00000FFC00
00001FF800
00001FF000
00003FE000
00003FC000
00007F8000
00007F8000
0000FF0000
0000FE0000
0001FC0000
0001F80000
0003F00000
0000000000
0000000000
0000000000
0000000000
0000000000
FF000003FC
FF000003FC
FF000003FC
FF000003FC
FF000003FC
FF000003FC
FF000003FC
FF000003FC
FF000003FC
FF000003FC
FF000003FC
FF000003FC
FF000003FC
FF000003FC
FF000003FC
FF000003FC
FF000003FC
FF000003FC
FF000003FC
FF000003FC
FF000003FC
FF000003FC
FF000003FC
FF000003FC
FF000003FC
FF000003FC
FF000003FC
FF000003FC
FF000003FC
FF000003FC
FF000003FC
FF000007FC
FF000007FC
FF000007FC
FF80000FFC
FF80001FFC
FFC0001FFC
7FE0007FFC
7FF000FFFC
7FFC07FFFC
3FFFFFFBFC
3FFFFFF3FC
1FFFFFE3FC
0FFFFFC3FC
07FFFF83FC
03FFFF03FC
00FFFC03FC
001FF00000
ENDCHAR
STARTCHAR ucircumflex
ENCODING 251
SWIDTH 556 0
DWIDTH 50 0
BBX 38 65 6 -1
BITMAP
0001FE0000
0003FF0000
0007FF8000
0007FFC000
000FFFE000
001FCFE000
003FC7F000
003F87F800
007F03FC00
00FF01FE00
00FE01FE00
01FE00FF00
0000000000
0000000000
0000000000
0000000000
0000000000
FF000003FC
FF000003FC
FF000003FC
FF000003FC
FF000003FC
FF000003FC
FF000003FC
FF000003FC
FF000003FC
FF000003FC
FF000003FC
FF000003FC
FF000003FC
FF000003FC
FF000003FC
FF000003FC
FF000003FC
FF000003FC
FF000003FC
FF000003FC
FF000003FC
FF000003FC
FF000003FC
FF000003FC
FF000003FC
FF000003FC
FF000003FC
FF000003FC
FF000003FC
FF000003FC
FF000003FC
FF000007FC
FF000007FC
FF000007FC
FF80000FFC
FF80001FFC
FFC0001FFC
7FE0007FFC
7FF000FFFC
7FFC07FFFC
3FFFFFFBFC
3FFFFFF3FC
1FFFFFE3FC
0FFFFFC3FC
07FFFF83FC
03FFFF03FC
00FFFC03FC
001FF00000
ENDCHAR
STARTCHAR udieresis
ENCODING 252
SWIDTH 556 0
DWIDTH 50 0
BBX 38 61 6 -1
BITMAP
03FC03FC00
03FC03FC00
03FC03FC00
03FC03FC00
03FC03FC00
03FC03FC00
03FC03FC00
03FC03FC00
0000000000
0000000000
0000000000
0000000000
0000000000
FF000003FC
FF000003FC
FF000003FC
FF000003FC
FF000003FC
FF000003FC
FF000003FC
FF000003FC
FF000003FC
FF000003FC
FF000003FC
FF000003FC
FF000003FC
FF000003FC
FF000003FC
FF000003FC
FF000003FC
FF000003FC
FF000003FC
FF000003FC
FF000003FC
FF000003FC
FF000003FC
FF000003FC
FF000003FC
FF000003FC
FF000003FC
FF000003FC
FF000003FC
FF000003FC
FF000003FC
FF000007FC
FF000007FC
FF000007FC
FF80000FFC
FF80001FFC
FFC0001FFC
7FE0007FFC
7FF000FFFC
7FFC07FFFC
3FFFFFFBFC
3FFFFFF3FC
1FFFFFE3FC
0FFFFFC3FC
07FFFF83FC
03FFFF03FC
00FFFC03FC
001FF00000
ENDCHAR
STARTCHAR yacute
ENCODING 253
SWIDTH 500 0
DWIDTH 43 0
BBX 41 83 1 -19
BITMAP
000003FF0000
000007FE0000
000007FC0000
00000FF80000
00000FF00000
00001FE00000
00001FE00000
00003FC00000
00003F800000
00007F000000
00007E000000
0000FC000000
000000000000
000000000000
000000000000
000000000000
000000000000
FF8000007F80
7F800000FF80
7F800000FF80
7FC00000FF00
3FC00001FF00
3FC00001FF00
3FE00001FE00
1FE00003FE00
1FE00003FE00
1FF00003FC00
0FF00007FC00
0FF00007F800
07F80007F800
07F8000FF800
07F8000FF000
03FC000FF000
03FC001FF000
03FC001FE000
01FE001FE000
01FE003FE000
01FF003FC000
00FF003FC000
00FF007FC000
007F807F8000
007F807F8000
007F80FF8000
003FC0FF0000
003FC0FF0000
003FC1FF0000
001FE1FE0000
001FE1FE0000
001FE3FE0000
000FE3FC0000
000FF3FC0000
0007F7FC0000
0007F7F80000
0007FFF80000
0003FFF80000
0003FFF00000
0003FFF00000
0001FFF00000
0001FFE00000
0001FFE00000
0000FFE00000
0000FFC00000
00007FC00000
00007FC00000
00007F800000
0000FF800000
0000FF800000
0000FF000000
0001FF000000
0001FE000000
0001FE000000
0003FE000000
0003FC000000
0007FC000000
081FF8000000
0FFFF8000000
0FFFF0000000
0FFFF0000000
07FFE0000000
07FFC0000000
07FF80000000
07FF00000000
03F800000000
ENDCHAR
STARTCHAR thorn
ENCODING 254
SWIDTH 556 0
DWIDTH 50 0
BBX 41 83 6 -18
BITMAP
FF0000000000
FF0000000000
FF0000000000
FF0000000000
FF0000000000
FF0000000000
FF0000000000
FF0000000000
FF0000000000
FF0000000000
FF0000000000
FF0000000000
FF0000000000
FF0000000000
FF0000000000
FF0000000000
FF0000000000
FF007FC00000
FF03FFF80000
FF07FFFE0000
FF0FFFFF0000
FF1FFFFF8000
FF3FFFFFE000
FF7FFFFFE000
FFFFFFFFF000
FFFF80FFF800
FFFE003FFC00
FFF8000FFC00
FFF00007FE00
FFE00003FE00
FFC00003FE00
FFC00001FF00
FF800001FF00
FF800000FF00
FF000000FF00
FF000000FF80
FF0000007F80
FF0000007F80
FE0000007F80
FE0000007F80
FE0000007F80
FE0000007F80
FE0000007F80
FE0000007F80
FE0000007F80
FE0000007F80
FF0000007F80
FF000000FF00
FF000000FF00
FF000000FF00
FF800001FF00
FF800001FE00
FFC00003FE00
FFC00003FE00
FFE00007FC00
FFF8001FFC00
FFFC003FF800
FFFF00FFF000
FFFFFFFFF000
FF7FFFFFE000
FF7FFFFFC000
FF3FFFFF8000
FF1FFFFE0000
FF07FFFC0000
FF03FFF00000
FF007F800000
FF0000000000
FF0000000000
FF0000000000
FF0000000000
FF0000000000
FF0000000000
FF0000000000
FF0000000000
FF0000000000
FF0000000000
FF0000000000
FF0000000000
FF0000000000
FF0000000000
FF0000000000
FF0000000000
FF0000000000
ENDCHAR
STARTCHAR ydieresis
ENCODING 255
SWIDTH 500 0
DWIDTH 43 0
BBX 41 79 1 -19
BITMAP
007F807F8000
007F807F8000
007F807F8000
007F807F8000
007F807F8000
007F807F8000
007F807F8000
007F807F8000
000000000000
000000000000
000000000000
000000000000
000000000000
FF8000007F80
7F800000FF80
7F800000FF80
7FC00000FF00
3FC00001FF00
3FC00001FF00
3FE00001FE00
1FE00003FE00
1FE00003FE00
1FF00003FC00
0FF00007FC00
0FF00007F800
07F80007F800
07F8000FF800
07F8000FF000
03FC000FF000
03FC001FF000
03FC001FE000
01FE001FE000
01FE003FE000
01FF003FC000
00FF003FC000
00FF007FC000
007F807F8000
007F807F8000
007F80FF8000
003FC0FF0000
003FC0FF0000
003FC1FF0000
001FE1FE0000
001FE1FE0000
001FE3FE0000
000FE3FC0000
000FF3FC0000
0007F7FC0000
0007F7F80000
0007FFF80000
0003FFF80000
0003FFF00000
0003FFF00000
0001FFF00000
0001FFE00000
0001FFE00000
0000FFE00000
0000FFC00000
00007FC00000
00007FC00000
00007F800000
0000FF800000
0000FF800000
0000FF000000
0001FF000000
0001FE000000
0001FE000000
0003FE000000
0003FC000000
0007FC000000
081FF8000000
0FFFF8000000
0FFFF0000000
0FFFF0000000
07FFE0000000
07FFC0000000
07FF80000000
07FF00000000
03F800000000
ENDCHAR
STARTCHAR Amacron
ENCODING 256
SWIDTH 666 0
DWIDTH 60 0
BBX 61 76 -1 0
BITMAP
00007FFFFFF80000
00007FFFFFF80000
00007FFFFFF80000
00007FFFFFF80000
00007FFFFFF80000
00007FFFFFF80000
00007FFFFFF80000
00007FFFFFF80000
0000000000000000
0000000000000000
0000000000000000
0000003FE0000000
0000007FF0000000
0000007FF0000000
0000007FF0000000
000000FFF8000000
000000FFF8000000
000001FFFC000000
000001FFFC000000
000001FDFC000000
000003FDFE000000
000003FDFE000000
000007F8FF000000
000007F8FF000000
000007F07F000000
00000FF07F800000
00000FF07F800000
00001FE03FC00000
00001FE03FC00000
00001FE03FC00000
00003FC01FE00000
00003FC01FE00000
00007F800FF00000
00007F800FF00000
0000FF800FF80000
0000FF0007F80000
0000FF0007F80000
0001FF0007FC0000
0001FE0003FC0000
0003FE0003FE0000
0003FC0001FE0000
0003FC0001FE0000
0007FC0001FF0000
0007F80000FF0000
000FF80000FF8000
000FF80000FF8000
000FF000007F8000
001FF000007FC000
001FFFFFFFFFC000
003FFFFFFFFFE000
003FFFFFFFFFE000
007FFFFFFFFFE000
007FFFFFFFFFF000
007FFFFFFFFFF000
00FFFFFFFFFFF800
00FFFFFFFFFFF800
01FF00000007FC00
01FF00000007FC00
01FF00000007FC00
03FE00000003FE00
03FE00000003FE00
07FC00000001FF00
07FC00000001FF00
07FC00000001FF00
0FF800000000FF80
0FF800000000FF80
1FF800000000FFC0
1FF0000000007FC0
1FF0000000007FC0
3FE0000000003FE0
3FE0000000003FE0
7FE0000000003FF0
7FC0000000001FF0
FFC0000000001FF8
FFC0000000001FF8
FF80000000000FF8
ENDCHAR
STARTCHAR amacron
ENCODING 257
SWIDTH 556 0
DWIDTH 50 0
BBX 42 63 4 -1
BITMAP
01FFFFFFC000
01FFFFFFC000
01FFFFFFC000
01FFFFFFC000
01FFFFFFC000
01FFFFFFC000
01FFFFFFC000
01FFFFFFC000
000000000000
000000000000
000000000000
000000000000
000000000000
000000000000
0000FFF00000
000FFFFF0000
007FFFFFC000
01FFFFFFF000
03FFFFFFF800
07FFFFFFFC00
0FFFFFFFFC00
1FFFFFFFFE00
1FFF003FFE00
3FF8000FFE00
3FF00003FF00
3FE00001FF00
7FC00001FF00
7FC00000FF00
07800000FF00
00000000FF00
00000000FF00
00000000FF00
00000003FF00
0000003FFF00
00000FFFFF00
0007FFFFFF00
003FFFFFFF00
01FFFFFFFF00
03FFFFFFFF00
0FFFFFFFFF00
1FFFFFFCFF00
1FFFFFC0FF00
3FFFE000FF00
7FF80000FF00
7FE00000FF00
7F800000FF00
FF800001FF00
FF000001FF00
FF000001FF00
FF000003FF00
FF000007FF00
FF80000FFF00
FFC0003FFF00
7FE0007FFF00
7FF803FFFF00
7FFFFFFFFF00
3FFFFFFFFF80
3FFFFFFCFF80
1FFFFFF8FF80
0FFFFFF07F80
03FFFFC07F80
01FFFF003FC0
001FF8000000
ENDCHAR
STARTCHAR Abreve
ENCODING 258
SWIDTH 666 0
DWIDTH 60 0
BBX 61 80 -1 0
BITMAP
00007E0007E00000
00007E0007E00000
00007F000FE00000
00003F000FC00000
00003F801FC00000
00001FE07FC00000
00001FFFFF800000
00000FFFFF000000
000007FFFF000000
000003FFFC000000
000001FFF8000000
0000003FC0000000
0000000000000000
0000000000000000
0000000000000000
0000003FE0000000
0000007FF0000000
0000007FF0000000
0000007FF0000000
000000FFF8000000
000000FFF8000000
000001FFFC000000
000001FFFC000000
000001FDFC000000
000003FDFE000000
000003FDFE000000
000007F8FF000000
000007F8FF000000
000007F07F000000
00000FF07F800000
00000FF07F800000
00001FE03FC00000
00001FE03FC00000
00001FE03FC00000
00003FC01FE00000
00003FC01FE00000
00007F800FF00000
00007F800FF00000
0000FF800FF80000
0000FF0007F80000
0000FF0007F80000
0001FF0007FC0000
0001FE0003FC0000
0003FE0003FE0000
0003FC0001FE0000
0003FC0001FE0000
0007FC0001FF0000
0007F80000FF0000
000FF80000FF8000
000FF80000FF8000
000FF000007F8000
001FF000007FC000
001FFFFFFFFFC000
003FFFFFFFFFE000
003FFFFFFFFFE000
007FFFFFFFFFE000
007FFFFFFFFFF000
007FFFFFFFFFF000
00FFFFFFFFFFF800
00FFFFFFFFFFF800
01FF00000007FC00
01FF00000007FC00
01FF00000007FC00
03FE00000003FE00
03FE00000003FE00
07FC00000001FF00
07FC00000001FF00
07FC00000001FF00
0FF800000000FF80
0FF800000000FF80
1FF800000000FFC0
1FF0000000007FC0
1FF0000000007FC0
3FE0000000003FE0
3FE0000000003FE0
7FE0000000003FF0
7FC0000000001FF0
FFC0000000001FF8
FFC0000000001FF8
FF80000000000FF8
ENDCHAR
STARTCHAR abreve
ENCODING 259
SWIDTH 556 0
DWIDTH 50 0
BBX 42 65 4 -1
BITMAP
007E0007E000
007E0007E000
007F000FE000
003F000FC000
003F801FC000
001FE07FC000
001FFFFF8000
000FFFFF0000
0007FFFF0000
0003FFFC0000
0001FFF80000
00003FC00000
000000000000
000000000000
000000000000
000000000000
0000FFF00000
000FFFFF0000
007FFFFFC000
01FFFFFFF000
03FFFFFFF800
07FFFFFFFC00
0FFFFFFFFC00
1FFFFFFFFE00
1FFF003FFE00
3FF8000FFE00
3FF00003FF00
3FE00001FF00
7FC00001FF00
7FC00000FF00
07800000FF00
00000000FF00
00000000FF00
00000000FF00
00000003FF00
0000003FFF00
00000FFFFF00
0007FFFFFF00
003FFFFFFF00
01FFFFFFFF00
03FFFFFFFF00
0FFFFFFFFF00
1FFFFFFCFF00
1FFFFFC0FF00
3FFFE000FF00
7FF80000FF00
7FE00000FF00
7F800000FF00
FF800001FF00
FF000001FF00
FF000001FF00
FF000003FF00
FF000007FF00
FF80000FFF00
FFC0003FFF00
7FE0007FFF00
7FF803FFFF00
7FFFFFFFFF00
3FFFFFFFFF80
3FFFFFFCFF80
1FFFFFF8FF80
0FFFFFF07F80
03FFFFC07F80
01FFFF003FC0
001FF8000000
ENDCHAR
STARTCHAR Aogonek
ENCODING 260
SWIDTH 666 0
DWIDTH 60 0
BBX 62 84 -1 -19
BITMAP
0000003FE0000000
0000007FF0000000
0000007FF0000000
0000007FF0000000
000000FFF8000000
000000FFF8000000
000001FFFC000000
000001FFFC000000
000001FDFC000000
000003FDFE000000
000003FDFE000000
000007F8FF000000
000007F8FF000000
000007F07F000000
00000FF07F800000
00000FF07F800000
00001FE03FC00000
00001FE03FC00000
00001FE03FC00000
00003FC01FE00000
00003FC01FE00000
00007F800FF00000
00007F800FF00000
0000FF800FF80000
0000FF0007F80000
0000FF0007F80000
0001FF0007FC0000
0001FE0003FC0000
0003FE0003FE0000
0003FC0001FE0000
0003FC0001FE0000
0007FC0001FF0000
0007F80000FF0000
000FF80000FF8000
000FF80000FF8000
000FF000007F8000
001FF000007FC000
001FFFFFFFFFC000
003FFFFFFFFFE000
003FFFFFFFFFE000
007FFFFFFFFFE000
007FFFFFFFFFF000
007FFFFFFFFFF000
00FFFFFFFFFFF800
00FFFFFFFFFFF800
01FF00000007FC00
01FF00000007FC00
01FF00000007FC00
03FE00000003FE00
03FE00000003FE00
07FC00000001FF00
07FC00000001FF00
07FC00000001FF00
0FF800000000FF80
0FF800000000FF80
1FF800000000FFC0
1FF0000000007FC0
1FF0000000007FC0
3FE0000000003FE0
3FE0000000003FE0
7FE0000000003FF0
7FC0000000001FF0
FFC0000000001FF8
FFC0000000001FF8
FF80000000000FF8
00000000000003E0
0000000000000780
0000000000000F80
0000000000001F00
0000000000003E00
0000000000003E00
0000000000007C00
0000000000007C00
000000000000FC00
000000000000FC00
000000000000FE00
000000000000FE00
000000000000FF04
0000000000007FFC
0000000000007FFC
0000000000007FFC
0000000000003FFC
0000000000001FFC
00000000000007F0
ENDCHAR
STARTCHAR aogonek
ENCODING 261
SWIDTH 556 0
DWIDTH 50 0
BBX 43 67 4 -19
BITMAP
0000FFF00000
000FFFFF0000
007FFFFFC000
01FFFFFFF000
03FFFFFFF800
07FFFFFFFC00
0FFFFFFFFC00
1FFFFFFFFE00
1FFF003FFE00
3FF8000FFE00
3FF00003FF00
3FE00001FF00
7FC00001FF00
7FC00000FF00
07800000FF00
00000000FF00
00000000FF00
00000000FF00
00000003FF00
0000003FFF00
00000FFFFF00
0007FFFFFF00
003FFFFFFF00
01FFFFFFFF00
03FFFFFFFF00
0FFFFFFFFF00
1FFFFFFCFF00
1FFFFFC0FF00
3FFFE000FF00
7FF80000FF00
7FE00000FF00
7F800000FF00
FF800001FF00
FF000001FF00
FF000001FF00
FF000003FF00
FF000007FF00
FF80000FFF00
FFC0003FFF00
7FE0007FFF00
7FF803FFFF00
7FFFFFFFFF00
3FFFFFFFFF80
3FFFFFFCFF80
1FFFFFF8FF80
0FFFFFF07F80
03FFFFC07F80
01FFFF003FC0
001FF8001F00
000000003E00
000000007C00
00000000F800
00000001F000
00000001F000
00000003F000
00000003F000
00000003E000
00000003E000
00000007F000
00000007F000
00000003F820
00000003FFE0
00000003FFE0
00000001FFE0
00000001FFE0
000000007FE0
000000001F80
ENDCHAR
STARTCHAR Cacute
ENCODING 262
SWIDTH 722 0
DWIDTH 65 0
BBX 57 81 4 -1
BITMAP
00000003FF000000
00000007FE000000
00000007FC000000
0000000FF8000000
0000000FF0000000
0000001FE0000000
0000001FE0000000
0000003FC0000000
0000003F80000000
0000007F00000000
0000007E00000000
000000FC00000000
0000000000000000
0000000000000000
000000FFF0000000
00000FFFFE000000
00007FFFFFC00000
0001FFFFFFF00000
0003FFFFFFF80000
000FFFFFFFFE0000
001FFFFFFFFF0000
003FFFFFFFFF8000
007FFF803FFFC000
00FFF80007FFC000
01FFE00001FFE000
03FFC00000FFF000
07FF0000007FF000
07FE0000003FF800
0FFC0000001FF800
0FFC0000000FFC00
1FF80000000FFC00
1FF000000007FC00
3FF000000007FE00
3FE000000007FC00
3FE0000000038000
7FE0000000000000
7FC0000000000000
7FC0000000000000
7FC0000000000000
7FC0000000000000
FFC0000000000000
FF80000000000000
FF80000000000000
FF80000000000000
FF80000000000000
FF80000000000000
FF80000000000000
FF80000000000000
FF80000000000000
FF80000000000000
FF80000000000000
FF80000000000000
FF80000000000000
FF80000000000000
7FC0000000000000
7FC0000000000000
7FC0000000000000
7FC000000000C000
7FC000000000FE00
3FE000000001FF80
3FE000000001FF80
3FF000000001FF00
1FF000000003FF00
1FF000000003FF00
1FF800000007FE00
0FFC0000000FFE00
0FFE0000000FFC00
07FE0000001FFC00
07FF8000003FF800
03FFC000007FF800
01FFF00001FFF000
00FFFC0007FFE000
00FFFF803FFFC000
007FFFFFFFFF8000
003FFFFFFFFF0000
000FFFFFFFFE0000
0007FFFFFFFC0000
0001FFFFFFF00000
00007FFFFFC00000
00001FFFFF000000
000001FFF0000000
ENDCHAR
STARTCHAR cacute
ENCODING 263
SWIDTH 500 0
DWIDTH 45 0
BBX 40 65 4 -1
BITMAP
000007FE00
00000FFC00
00000FF800
00001FF000
00001FE000
00003FC000
00003FC000
00007F8000
00007F0000
0000FE0000
0000FC0000
0001F80000
0000000000
0000000000
0000000000
0000000000
0000FFC000
0007FFF800
001FFFFE00
007FFFFF00
01FFFFFFC0
03FFFFFFE0
07FFFFFFE0
07FFFFFFF0
0FFF80FFF8
1FFE001FF8
1FF8000FFC
3FF00007FC
3FE00003FC
3FC00003FE
7FC00003FE
7F800001E0
7F80000000
7F80000000
FF80000000
FF00000000
FF00000000
FF00000000
FF00000000
FF00000000
FF00000000
FF00000000
FF00000000
FF00000000
FF00000000
FF00000000
FF80000000
7F800000F0
7F800000FF
7F800001FF
7FC00001FE
3FC00001FE
3FE00003FE
3FF00007FE
1FF8000FFC
1FFC001FFC
0FFF80FFF8
07FFFFFFF0
03FFFFFFF0
03FFFFFFE0
00FFFFFFC0
007FFFFF00
003FFFFE00
0007FFF800
0000FFC000
ENDCHAR
STARTCHAR Ccircumflex
ENCODING 264
SWIDTH 722 0
DWIDTH 65 0
BBX 57 81 4 -1
BITMAP
000000FF00000000
000001FF80000000
000003FFC0000000
000007FFE0000000
000007FFF0000000
00000FE7F0000000
00001FE3F8000000
00001FC3FC000000
00003F81FE000000
00007F80FF000000
00007F00FF000000
0000FF007F800000
0000000000000000
0000000000000000
000000FFF0000000
00000FFFFE000000
00007FFFFFC00000
0001FFFFFFF00000
0003FFFFFFF80000
000FFFFFFFFE0000
001FFFFFFFFF0000
003FFFFFFFFF8000
007FFF803FFFC000
00FFF80007FFC000
01FFE00001FFE000
03FFC00000FFF000
07FF0000007FF000
07FE0000003FF800
0FFC0000001FF800
0FFC0000000FFC00
1FF80000000FFC00
1FF000000007FC00
3FF000000007FE00
3FE000000007FC00
3FE0000000038000
7FE0000000000000
7FC0000000000000
7FC0000000000000
7FC0000000000000
7FC0000000000000
FFC0000000000000
FF80000000000000
FF80000000000000
FF80000000000000
FF80000000000000
FF80000000000000
FF80000000000000
FF80000000000000
FF80000000000000
FF80000000000000
FF80000000000000
FF80000000000000
FF80000000000000
FF80000000000000
7FC0000000000000
7FC0000000000000
7FC0000000000000
7FC000000000C000
7FC000000000FE00
3FE000000001FF80
3FE000000001FF80
3FF000000001FF00
1FF000000003FF00
1FF000000003FF00
1FF800000007FE00
0FFC0000000FFE00
0FFE0000000FFC00
07FE0000001FFC00
07FF8000003FF800
03FFC000007FF800
01FFF00001FFF000
00FFFC0007FFE000
00FFFF803FFFC000
007FFFFFFFFF8000
003FFFFFFFFF0000
000FFFFFFFFE0000
0007FFFFFFFC0000
0001FFFFFFF00000
00007FFFFFC00000
00001FFFFF000000
000001FFF0000000
ENDCHAR
STARTCHAR ccircumflex
ENCODING 265
SWIDTH 500 0
DWIDTH 45 0
BBX 40 65 4 -1
BITMAP
0000FF0000
0001FF8000
0003FFC000
0007FFE000
0007FFF000
000FE7F000
001FE3F800
001FC3FC00
003F81FE00
007F80FF00
007F00FF00
00FF007F80
0000000000
0000000000
0000000000
0000000000
0000FFC000
0007FFF800
001FFFFE00
007FFFFF00
01FFFFFFC0
03FFFFFFE0
07FFFFFFE0
07FFFFFFF0
0FFF80FFF8
1FFE001FF8
1FF8000FFC
3FF00007FC
3FE00003FC
3FC00003FE
7FC00003FE
7F800001E0
7F80000000
7F80000000
FF80000000
FF00000000
FF00000000
FF00000000
FF00000000
FF00000000
FF00000000
FF00000000
FF00000000
FF00000000
FF00000000
FF00000000
FF80000000
7F800000F0
7F800000FF
7F800001FF
7FC00001FE
3FC00001FE
3FE00003FE
3FF00007FE
1FF8000FFC
1FFC001FFC
0FFF80FFF8
07FFFFFFF0
03FFFFFFF0
03FFFFFFE0
00FFFFFFC0
007FFFFF00
003FFFFE00
0007FFF800
0000FFC000
ENDCHAR
STARTCHAR Cdotaccent
ENCODING 266
SWIDTH 722 0
DWIDTH 65 0
BBX 57 77 4 -1
BITMAP
0000003FC0000000
0000003FC0000000
0000003FC0000000
0000003FC0000000
0000003FC0000000
0000003FC0000000
0000003FC0000000
0000003FC0000000
0000000000000000
0000000000000000
000000FFF0000000
00000FFFFE000000
00007FFFFFC00000
0001FFFFFFF00000
0003FFFFFFF80000
000FFFFFFFFE0000
001FFFFFFFFF0000
003FFFFFFFFF8000
007FFF803FFFC000
00FFF80007FFC000
01FFE00001FFE000
03FFC00000FFF000
07FF0000007FF000
07FE0000003FF800
0FFC0000001FF800
0FFC0000000FFC00
1FF80000000FFC00
1FF000000007FC00
3FF000000007FE00
3FE000000007FC00
3FE0000000038000
7FE0000000000000
7FC0000000000000
7FC0000000000000
7FC0000000000000
7FC0000000000000
FFC0000000000000
FF80000000000000
FF80000000000000
FF80000000000000
FF80000000000000
FF80000000000000
FF80000000000000
FF80000000000000
FF80000000000000
FF80000000000000
FF80000000000000
FF80000000000000
FF80000000000000
FF80000000000000
7FC0000000000000
7FC0000000000000
7FC0000000000000
7FC000000000C000
7FC000000000FE00
3FE000000001FF80
3FE000000001FF80
3FF000000001FF00
1FF000000003FF00
1FF000000003FF00
1FF800000007FE00
0FFC0000000FFE00
0FFE0000000FFC00
07FE0000001FFC00
07FF8000003FF800
03FFC000007FF800
01FFF00001FFF000
00FFFC0007FFE000
00FFFF803FFFC000
007FFFFFFFFF8000
003FFFFFFFFF0000
000FFFFFFFFE0000
0007FFFFFFFC0000
0001FFFFFFF00000
00007FFFFFC00000
00001FFFFF000000
000001FFF0000000
ENDCHAR
STARTCHAR cdotaccent
ENCODING 267
SWIDTH 500 0
DWIDTH 45 0
BBX 40 61 4 -1
BITMAP
00007F8000
00007F8000
00007F8000
00007F8000
00007F8000
00007F8000
00007F8000
00007F8000
0000000000
0000000000
0000000000
0000000000
0000FFC000
0007FFF800
001FFFFE00
007FFFFF00
01FFFFFFC0
03FFFFFFE0
07FFFFFFE0
07FFFFFFF0
0FFF80FFF8
1FFE001FF8
1FF8000FFC
3FF00007FC
3FE00003FC
3FC00003FE
7FC00003FE
7F800001E0
7F80000000
7F80000000
FF80000000
FF00000000
FF00000000
FF00000000
FF00000000
FF00000000
FF00000000
FF00000000
FF00000000
FF00000000
FF00000000
FF00000000
FF80000000
7F800000F0
7F800000FF
7F800001FF
7FC00001FE
3FC00001FE
3FE00003FE
3FF00007FE
1FF8000FFC
1FFC001FFC
0FFF80FFF8
07FFFFFFF0
03FFFFFFF0
03FFFFFFE0
00FFFFFFC0
007FFFFF00
003FFFFE00
0007FFF800
0000FFC000
ENDCHAR
STARTCHAR Ccaron
ENCODING 268
SWIDTH 722 0
DWIDTH 65 0
BBX 57 81 4 -1
BITMAP
0000FF007F800000
00007F00FF000000
00007F80FF000000
00003F81FE000000
00001FC3FC000000
00001FE3F8000000
00000FE7F0000000
000007FFF0000000
000007FFE0000000
000003FFC0000000
000001FF80000000
000000FF00000000
0000000000000000
0000000000000000
000000FFF0000000
00000FFFFE000000
00007FFFFFC00000
0001FFFFFFF00000
0003FFFFFFF80000
000FFFFFFFFE0000
001FFFFFFFFF0000
003FFFFFFFFF8000
007FFF803FFFC000
00FFF80007FFC000
01FFE00001FFE000
03FFC00000FFF000
07FF0000007FF000
07FE0000003FF800
0FFC0000001FF800
0FFC0000000FFC00
1FF80000000FFC00
1FF000000007FC00
3FF000000007FE00
3FE000000007FC00
3FE0000000038000
7FE0000000000000
7FC0000000000000
7FC0000000000000
7FC0000000000000
7FC0000000000000
FFC0000000000000
FF80000000000000
FF80000000000000
FF80000000000000
FF80000000000000
FF80000000000000
FF80000000000000
FF80000000000000
FF80000000000000
FF80000000000000
FF80000000000000
FF80000000000000
FF80000000000000
FF80000000000000
7FC0000000000000
7FC0000000000000
7FC0000000000000
7FC000000000C000
7FC000000000FE00
3FE000000001FF80
3FE000000001FF80
3FF000000001FF00
1FF000000003FF00
1FF000000003FF00
1FF800000007FE00
0FFC0000000FFE00
0FFE0000000FFC00
07FE0000001FFC00
07FF8000003FF800
03FFC000007FF800
01FFF00001FFF000
00FFFC0007FFE000
00FFFF803FFFC000
007FFFFFFFFF8000
003FFFFFFFFF0000
000FFFFFFFFE0000
0007FFFFFFFC0000
0001FFFFFFF00000
00007FFFFFC00000
00001FFFFF000000
000001FFF0000000
ENDCHAR
STARTCHAR ccaron
ENCODING 269
SWIDTH 500 0
DWIDTH 45 0
BBX 40 65 4 -1
BITMAP
01FE00FF00
01FE01FE00
00FF01FC00
007F03FC00
003F87F800
003F87F000
001FCFE000
000FFFC000
000FFFC000
0007FF8000
0003FF0000
0001FE0000
0000000000
0000000000
0000000000
0000000000
0000FFC000
0007FFF800
001FFFFE00
007FFFFF00
01FFFFFFC0
03FFFFFFE0
07FFFFFFE0
07FFFFFFF0
0FFF80FFF8
1FFE001FF8
1FF8000FFC
3FF00007FC
3FE00003FC
3FC00003FE
7FC00003FE
7F800001E0
7F80000000
7F80000000
FF80000000
FF00000000
FF00000000
FF00000000
FF00000000
FF00000000
FF00000000
FF00000000
FF00000000
FF00000000
FF00000000
FF00000000
FF80000000
7F800000F0
7F800000FF
7F800001FF
7FC00001FE
3FC00001FE
3FE00003FE
3FF00007FE
1FF8000FFC
1FFC001FFC
0FFF80FFF8
07FFFFFFF0
03FFFFFFF0
03FFFFFFE0
00FFFFFFC0
007FFFFF00
003FFFFE00
0007FFF800
0000FFC000
ENDCHAR
STARTCHAR Dcaron
ENCODING 270
SWIDTH 722 0
DWIDTH 65 0
BBX 54 80 7 0
BITMAP
003FC01FE00000
001FC03FC00000
001FE03FC00000
000FE07F800000
0007F0FF000000
0007F8FE000000
0003F9FC000000
0001FFFC000000
0000FFF8000000
0000FFF0000000
00007FE0000000
00003FC0000000
00000000000000
00000000000000
00000000000000
FFFFFFFF000000
FFFFFFFFF00000
FFFFFFFFFE0000
FFFFFFFFFF8000
FFFFFFFFFFC000
FFFFFFFFFFF000
FFFFFFFFFFF800
FFFFFFFFFFFC00
FF800003FFFE00
FF8000003FFE00
FF8000000FFF00
FF80000007FF80
FF80000003FF80
FF80000001FFC0
FF80000000FFE0
FF800000007FE0
FF800000003FE0
FF800000003FF0
FF800000001FF0
FF800000001FF0
FF800000001FF8
FF800000000FF8
FF800000000FF8
FF800000000FF8
FF800000000FF8
FF8000000007FC
FF8000000007FC
FF8000000007FC
FF8000000007FC
FF8000000007FC
FF8000000007FC
FF8000000007FC
FF8000000007FC
FF8000000007FC
FF8000000007FC
FF8000000007FC
FF8000000007FC
FF8000000007FC
FF8000000007FC
FF800000000FFC
FF800000000FF8
FF800000000FF8
FF800000000FF8
FF800000000FF8
FF800000001FF0
FF800000001FF0
FF800000003FF0
FF800000003FF0
FF800000003FE0
FF800000007FE0
FF80000000FFC0
FF80000001FFC0
FF80000001FF80
FF80000007FF80
FF8000000FFF00
FF8000003FFE00
FF800003FFFC00
FFFFFFFFFFFC00
FFFFFFFFFFF000
FFFFFFFFFFE000
FFFFFFFFFFC000
FFFFFFFFFF0000
FFFFFFFFFC0000
FFFFFFFFE00000
FFFFFFFE000000
ENDCHAR
STARTCHAR dcaron
ENCODING 271
SWIDTH 614 0
DWIDTH 55 0
BBX 53 66 3 -1
BITMAP
000000007F87F8
000000007F87F8
000000007F87F8
000000007F87F8
000000007F87F8
000000007F87F8
000000007F87F8
000000007F87F8
000000007F8038
000000007F8038
000000007F8038
000000007F8038
000000007F8078
000000007F8070
000000007F80F0
000000007F81F0
000000007F83E0
0001FF007F87C0
000FFFE07F8380
003FFFF87F8100
007FFFFC7F8000
01FFFFFE7F8000
03FFFFFF7F8000
03FFFFFFFF8000
07FFFFFFFF8000
0FFF80FFFF8000
1FFE003FFF8000
1FF8000FFF8000
3FF00007FF8000
3FE00003FF8000
3FC00003FF8000
7FC00001FF8000
7F800001FF8000
7F800000FF8000
7F800000FF8000
FF800000FF8000
FF0000007F8000
FF0000007F8000
FF0000007F8000
FF0000007F8000
FF0000007F8000
FF0000007F8000
FF0000007F8000
FF0000007F8000
FF0000007F8000
FF0000007F8000
FF0000007F8000
FF800000FF8000
7F800000FF8000
7F800000FF8000
7FC00000FF8000
7FC00001FF8000
3FE00001FF8000
3FE00003FF8000
1FF00007FF8000
1FF8000FFF8000
0FFE003FFF8000
0FFF80FFFF8000
07FFFFFF7F8000
03FFFFFF7F8000
01FFFFFE7F8000
00FFFFFC7F8000
007FFFF87F8000
001FFFF07F8000
0007FFC07F8000
0000FF00000000
ENDCHAR
STARTCHAR Dcroat
ENCODING 272
SWIDTH 722 0
DWIDTH 65 0
BBX 60 65 0 0
BITMAP
01FFFFFFFC000000
01FFFFFFFFE00000
01FFFFFFFFF80000
01FFFFFFFFFE0000
01FFFFFFFFFF8000
01FFFFFFFFFFC000
01FFFFFFFFFFE000
01FFFFFFFFFFF000
01FF000007FFF800
01FF000000FFFC00
01FF0000003FFC00
01FF0000000FFE00
01FF00000007FF00
01FF00000003FF00
01FF00000003FF80
01FF00000001FF80
01FF00000000FF80
01FF00000000FFC0
01FF000000007FC0
01FF000000007FC0
01FF000000007FE0
01FF000000003FE0
01FF000000003FE0
01FF000000003FE0
01FF000000003FE0
01FF000000001FF0
01FF000000001FF0
FFFFFFFF80001FF0
FFFFFFFF80001FF0
FFFFFFFF80001FF0
FFFFFFFF80001FF0
FFFFFFFF80001FF0
FFFFFFFF80001FF0
FFFFFFFF80001FF0
FFFFFFFF80001FF0
01FF000000001FF0
01FF000000001FF0
01FF000000001FF0
01FF000000001FF0
01FF000000003FF0
01FF000000003FE0
01FF000000003FE0
01FF000000003FE0
01FF000000003FE0
01FF000000007FE0
01FF000000007FC0
01FF000000007FC0
01FF00000000FFC0
01FF00000000FF80
01FF00000001FF80
01FF00000003FF00
01FF00000003FF00
01FF00000007FE00
01FF0000000FFE00
01FF0000003FFC00
01FF000000FFF800
01FF00000FFFF800
01FFFFFFFFFFF000
01FFFFFFFFFFE000
01FFFFFFFFFFC000
01FFFFFFFFFF0000
01FFFFFFFFFE0000
01FFFFFFFFF80000
01FFFFFFFFC00000
01FFFFFFFC000000
ENDCHAR
STARTCHAR dcroat
ENCODING 273
SWIDTH 556 0
DWIDTH 50 0
BBX 48 66 3 -1
BITMAP
000000007F80
000000007F80
000000007F80
000000007F80
000000007F80
00001FFFFFFF
00001FFFFFFF
00001FFFFFFF
00001FFFFFFF
00001FFFFFFF
00001FFFFFFF
00001FFFFFFF
00001FFFFFFF
000000007F80
000000007F80
000000007F80
000000007F80
0001FF007F80
000FFFC07F80
003FFFF07F80
007FFFF87F80
01FFFFFC7F80
03FFFFFE7F80
03FFFFFF7F80
07FFFFFFFF80
0FFF80FFFF80
1FFE003FFF80
1FF8000FFF80
3FF00007FF80
3FE00003FF80
3FC00003FF80
7FC00001FF80
7F800001FF80
7F800000FF80
7F800000FF80
FF800000FF80
FF0000007F80
FF0000007F80
FF0000007F80
FF0000007F80
FF0000007F80
FF0000007F80
FF0000007F80
FF0000007F80
FF0000007F80
FF0000007F80
FF0000007F80
FF800000FF80
7F800000FF80
7F800000FF80
7FC00000FF80
7FC00001FF80
3FE00001FF80
3FE00003FF80
1FF00007FF80
1FF8000FFF80
0FFE003FFF80
0FFF80FFFF80
07FFFFFF7F80
03FFFFFF7F80
01FFFFFE7F80
00FFFFFC7F80
007FFFF87F80
001FFFF07F80
0007FFC07F80
0000FF000000
ENDCHAR
STARTCHAR Emacron
ENCODING 274
SWIDTH 666 0
DWIDTH 60 0
BBX 48 76 7 0
BITMAP
003FFFFFF800
003FFFFFF800
003FFFFFF800
003FFFFFF800
003FFFFFF800
003FFFFFF800
003FFFFFF800
003FFFFFF800
000000000000
000000000000
000000000000
FFFFFFFFFFFC
FFFFFFFFFFFC
FFFFFFFFFFFC
FFFFFFFFFFFC
FFFFFFFFFFFC
FFFFFFFFFFFC
FFFFFFFFFFFC
FFFFFFFFFFFC
FF8000000000
FF8000000000
FF8000000000
FF8000000000
FF8000000000
FF8000000000
FF8000000000
FF8000000000
FF8000000000
FF8000000000
FF8000000000
FF8000000000
FF8000000000
FF8000000000
FF8000000000
FF8000000000
FF8000000000
FF8000000000
FF8000000000
FFFFFFFFFFF0
FFFFFFFFFFF0
FFFFFFFFFFF0
FFFFFFFFFFF0
FFFFFFFFFFF0
FFFFFFFFFFF0
FFFFFFFFFFF0
FFFFFFFFFFF0
FF8000000000
FF8000000000
FF8000000000
FF8000000000
FF8000000000
FF8000000000
FF8000000000
FF8000000000
FF8000000000
FF8000000000
FF8000000000
FF8000000000
FF8000000000
FF8000000000
FF8000000000
FF8000000000
FF8000000000
FF8000000000
FF8000000000
FF8000000000
FF8000000000
FF8000000000
FFFFFFFFFFFF
FFFFFFFFFFFF
FFFFFFFFFFFF
FFFFFFFFFFFF
FFFFFFFFFFFF
FFFFFFFFFFFF
FFFFFFFFFFFF
FFFFFFFFFFFF
ENDCHAR
STARTCHAR emacron
ENCODING 275
SWIDTH 556 0
DWIDTH 50 0
BBX 44 63 3 -1
BITMAP
007FFFFFF000
007FFFFFF000
007FFFFFF000
007FFFFFF000
007FFFFFF000
007FFFFFF000
007FFFFFF000
007FFFFFF000
000000000000
000000000000
000000000000
000000000000
000000000000
000000000000
00007FE00000
0003FFFE0000
001FFFFF8000
003FFFFFC000
00FFFFFFF000
01FFFFFFF800
03FFFFFFFC00
07FFFFFFFE00
07FFC01FFF00
0FFE0007FF00
1FF80001FF80
1FF00000FF80
3FE000007FC0
3FC000003FC0
7F8000001FE0
7F8000001FE0
7F0000001FE0
7F0000000FE0
FF0000000FE0
FFFFFFFFFFF0
FFFFFFFFFFF0
FFFFFFFFFFF0
FFFFFFFFFFF0
FFFFFFFFFFF0
FFFFFFFFFFF0
FFFFFFFFFFF0
FFFFFFFFFFF0
FF0000000000
FF0000000000
FF0000000000
FF8000000000
7F8000000000
7F8000000000
7FC000000000
7FC000000F00
3FE000001FF0
3FF000003FE0
1FF800007FE0
1FFC0000FFC0
0FFF0003FFC0
0FFFE00FFF80
07FFFFFFFF00
03FFFFFFFF00
01FFFFFFFE00
00FFFFFFFC00
003FFFFFF000
001FFFFFE000
0003FFFF0000
00007FF00000
ENDCHAR
STARTCHAR Ebreve
ENCODING 276
SWIDTH 666 0
DWIDTH 60 0
BBX 48 80 7 0
BITMAP
000FC000FC00
000FC000FC00
000FE001FC00
0007E001F800
0007F003F800
0003FC0FF800
0003FFFFF000
0001FFFFE000
0000FFFFE000
00007FFF8000
00003FFF0000
000007F80000
000000000000
000000000000
000000000000
FFFFFFFFFFFC
FFFFFFFFFFFC
FFFFFFFFFFFC
FFFFFFFFFFFC
FFFFFFFFFFFC
FFFFFFFFFFFC
FFFFFFFFFFFC
FFFFFFFFFFFC
FF8000000000
FF8000000000
FF8000000000
FF8000000000
FF8000000000
FF8000000000
FF8000000000
FF8000000000
FF8000000000
FF8000000000
FF8000000000
FF8000000000
FF8000000000
FF8000000000
FF8000000000
FF8000000000
FF8000000000
FF8000000000
FF8000000000
FFFFFFFFFFF0
FFFFFFFFFFF0
FFFFFFFFFFF0
FFFFFFFFFFF0
FFFFFFFFFFF0
FFFFFFFFFFF0
FFFFFFFFFFF0
FFFFFFFFFFF0
FF8000000000
FF8000000000
FF8000000000
FF8000000000
FF8000000000
FF8000000000
FF8000000000
FF8000000000
FF8000000000
FF8000000000
FF8000000000
FF8000000000
FF8000000000
FF8000000000
FF8000000000
FF8000000000
FF8000000000
FF8000000000
FF8000000000
FF8000000000
FF8000000000
FF8000000000
FFFFFFFFFFFF
FFFFFFFFFFFF
FFFFFFFFFFFF
FFFFFFFFFFFF
FFFFFFFFFFFF
FFFFFFFFFFFF
FFFFFFFFFFFF
FFFFFFFFFFFF
ENDCHAR
STARTCHAR ebreve
ENCODING 277
SWIDTH 556 0
DWIDTH 50 0
BBX 44 65 3 -1
BITMAP
00FC000FC000
00FC000FC000
00FE001FC000
007E001F8000
007F003F8000
003FC0FF8000
003FFFFF0000
001FFFFE0000
000FFFFE0000
0007FFF80000
0003FFF00000
00007F800000
000000000000
000000000000
000000000000
000000000000
00007FE00000
0003FFFE0000
001FFFFF8000
003FFFFFC000
00FFFFFFF000
01FFFFFFF800
03FFFFFFFC00
07FFFFFFFE00
07FFC01FFF00
0FFE0007FF00
1FF80001FF80
1FF00000FF80
3FE000007FC0
3FC000003FC0
7F8000001FE0
7F8000001FE0
7F0000001FE0
7F0000000FE0
FF0000000FE0
FFFFFFFFFFF0
FFFFFFFFFFF0
FFFFFFFFFFF0
FFFFFFFFFFF0
FFFFFFFFFFF0
FFFFFFFFFFF0
FFFFFFFFFFF0
FFFFFFFFFFF0
FF0000000000
FF0000000000
FF0000000000
FF8000000000
7F8000000000
7F8000000000
7FC000000000
7FC000000F00
3FE000001FF0
3FF000003FE0
1FF800007FE0
1FFC0000FFC0
0FFF0003FFC0
0FFFE00FFF80
07FFFFFFFF00
03FFFFFFFF00
01FFFFFFFE00
00FFFFFFFC00
003FFFFFF000
001FFFFFE000
0003FFFF0000
00007FF00000
ENDCHAR
STARTCHAR Edotaccent
ENCODING 278
SWIDTH 666 0
DWIDTH 60 0
BBX 48 76 7 0
BITMAP
00001FE00000
00001FE00000
00001FE00000
00001FE00000
00001FE00000
00001FE00000
00001FE00000
00001FE00000
000000000000
000000000000
000000000000
FFFFFFFFFFFC
FFFFFFFFFFFC
FFFFFFFFFFFC
FFFFFFFFFFFC
FFFFFFFFFFFC
FFFFFFFFFFFC
FFFFFFFFFFFC
FFFFFFFFFFFC
FF8000000000
FF8000000000
FF8000000000
FF8000000000
FF8000000000
FF8000000000
FF8000000000
FF8000000000
FF8000000000
FF8000000000
FF8000000000
FF8000000000
FF8000000000
FF8000000000
FF8000000000
FF8000000000
FF8000000000
FF8000000000
FF8000000000
FFFFFFFFFFF0
FFFFFFFFFFF0
FFFFFFFFFFF0
FFFFFFFFFFF0
FFFFFFFFFFF0
FFFFFFFFFFF0
FFFFFFFFFFF0
FFFFFFFFFFF0
FF8000000000
FF8000000000
FF8000000000
FF8000000000
FF8000000000
FF8000000000
FF8000000000
FF8000000000
FF8000000000
FF8000000000
FF8000000000
FF8000000000
FF8000000000
FF8000000000
FF8000000000
FF8000000000
FF8000000000
FF8000000000
FF8000000000
FF8000000000
FF8000000000
FF8000000000
FFFFFFFFFFFF
FFFFFFFFFFFF
FFFFFFFFFFFF
FFFFFFFFFFFF
FFFFFFFFFFFF
FFFFFFFFFFFF
FFFFFFFFFFFF
FFFFFFFFFFFF
ENDCHAR
STARTCHAR edotaccent
ENCODING 279
SWIDTH 556 0
DWIDTH 50 0
BBX 44 61 3 -1
BITMAP
00003FC00000
00003FC00000
00003FC00000
00003FC00000
00003FC00000
00003FC00000
00003FC00000
00003FC00000
000000000000
000000000000
000000000000
000000000000
00007FE00000
0003FFFE0000
001FFFFF8000
003FFFFFC000
00FFFFFFF000
01FFFFFFF800
03FFFFFFFC00
07FFFFFFFE00
07FFC01FFF00
0FFE0007FF00
1FF80001FF80
1FF00000FF80
3FE000007FC0
3FC000003FC0
7F8000001FE0
7F8000001FE0
7F0000001FE0
7F0000000FE0
FF0000000FE0
FFFFFFFFFFF0
FFFFFFFFFFF0
FFFFFFFFFFF0
FFFFFFFFFFF0
FFFFFFFFFFF0
FFFFFFFFFFF0
FFFFFFFFFFF0
FFFFFFFFFFF0
FF0000000000
FF0000000000
FF0000000000
FF8000000000
7F8000000000
7F8000000000
7FC000000000
7FC000000F00
3FE000001FF0
3FF000003FE0
1FF800007FE0
1FFC0000FFC0
0FFF0003FFC0
0FFFE00FFF80
07FFFFFFFF00
03FFFFFFFF00
01FFFFFFFE00
00FFFFFFFC00
003FFFFFF000
001FFFFFE000
0003FFFF0000
00007FF00000
ENDCHAR
STARTCHAR Eogonek
ENCODING 280
SWIDTH 666 0
DWIDTH 60 0
BBX 48 84 7 -19
BITMAP
FFFFFFFFFFFC
FFFFFFFFFFFC
FFFFFFFFFFFC
FFFFFFFFFFFC
FFFFFFFFFFFC
FFFFFFFFFFFC
FFFFFFFFFFFC
FFFFFFFFFFFC
FF8000000000
FF8000000000
FF8000000000
FF8000000000
FF8000000000
FF8000000000
FF8000000000
FF8000000000
FF8000000000
FF8000000000
FF8000000000
FF8000000000
FF8000000000
FF8000000000
FF8000000000
FF8000000000
FF8000000000
FF8000000000
FF8000000000
FFFFFFFFFFF0
FFFFFFFFFFF0
FFFFFFFFFFF0
FFFFFFFFFFF0
FFFFFFFFFFF0
FFFFFFFFFFF0
FFFFFFFFFFF0
FFFFFFFFFFF0
FF8000000000
FF8000000000
FF8000000000
FF8000000000
FF8000000000
FF8000000000
FF8000000000
FF8000000000
FF8000000000
FF8000000000
FF8000000000
FF8000000000
FF8000000000
FF8000000000
FF8000000000
FF8000000000
FF8000000000
FF8000000000
FF8000000000
FF8000000000
FF8000000000
FF8000000000
FFFFFFFFFFFF
FFFFFFFFFFFF
FFFFFFFFFFFF
FFFFFFFFFFFF
FFFFFFFFFFFF
FFFFFFFFFFFF
FFFFFFFFFFFF
FFFFFFFFFFFF
0000000001F8
0000000003E0
0000000007C0
0000000007C0
000000000F80
000000001F80
000000001F00
000000001F00
000000003F00
000000003F00
000000003F00
000000003F80
000000003FC1
000000003FFF
000000001FFF
000000001FFF
000000000FFF
0000000007FF
0000000001F8
ENDCHAR
STARTCHAR eogonek
ENCODING 281
SWIDTH 556 0
DWIDTH 50 0
BBX 44 67 3 -19
BITMAP
00007FE00000
0003FFFE0000
001FFFFF8000
003FFFFFC000
00FFFFFFF000
01FFFFFFF800
03FFFFFFFC00
07FFFFFFFE00
07FFC01FFF00
0FFE0007FF00
1FF80001FF80
1FF00000FF80
3FE000007FC0
3FC000003FC0
7F8000001FE0
7F8000001FE0
7F0000001FE0
7F0000000FE0
FF0000000FE0
FFFFFFFFFFF0
FFFFFFFFFFF0
FFFFFFFFFFF0
FFFFFFFFFFF0
FFFFFFFFFFF0
FFFFFFFFFFF0
FFFFFFFFFFF0
FFFFFFFFFFF0
FF0000000000
FF0000000000
FF0000000000
FF8000000000
7F8000000000
7F8000000000
7FC000000000
7FC000000F00
3FE000001FF0
3FF000003FE0
1FF800007FE0
1FFC0000FFC0
0FFF0003FFC0
0FFFE00FFF80
07FFFFFFFF00
03FFFFFFFF00
01FFFFFFFE00
00FFFFFFFC00
003FFFFFF000
001FFFFFE000
0003FFFF0000
00007FFC0000
000000F00000
000001E00000
000003E00000
000007C00000
000007C00000
00000F800000
00000F800000
00001F800000
00001F800000
00001F800000
00001FC00000
00001FE08000
00001FFF8000
00000FFF8000
00000FFF8000
000007FF8000
000003FF8000
000000FE0000
ENDCHAR
STARTCHAR Ecaron
ENCODING 282
SWIDTH 666 0
DWIDTH 60 0
BBX 48 80 7 0
BITMAP
001FE00FF000
000FE01FE000
000FF01FE000
0007F03FC000
0003F87F8000
0003FC7F0000
0001FCFE0000
0000FFFE0000
00007FFC0000
00007FF80000
00003FF00000
00001FE00000
000000000000
000000000000
000000000000
FFFFFFFFFFFC
FFFFFFFFFFFC
FFFFFFFFFFFC
FFFFFFFFFFFC
FFFFFFFFFFFC
FFFFFFFFFFFC
FFFFFFFFFFFC
FFFFFFFFFFFC
FF8000000000
FF8000000000
FF8000000000
FF8000000000
FF8000000000
FF8000000000
FF8000000000
FF8000000000
FF8000000000
FF8000000000
FF8000000000
FF8000000000
FF8000000000
FF8000000000
FF8000000000
FF8000000000
FF8000000000
FF8000000000
FF8000000000
FFFFFFFFFFF0
FFFFFFFFFFF0
FFFFFFFFFFF0
FFFFFFFFFFF0
FFFFFFFFFFF0
FFFFFFFFFFF0
FFFFFFFFFFF0
FFFFFFFFFFF0
FF8000000000
FF8000000000
FF8000000000
FF8000000000
FF8000000000
FF8000000000
FF8000000000
FF8000000000
FF8000000000
FF8000000000
FF8000000000
FF8000000000
FF8000000000
FF8000000000
FF8000000000
FF8000000000
FF8000000000
FF8000000000
FF8000000000
FF8000000000
FF8000000000
FF8000000000
FFFFFFFFFFFF
FFFFFFFFFFFF
FFFFFFFFFFFF
FFFFFFFFFFFF
FFFFFFFFFFFF
FFFFFFFFFFFF
FFFFFFFFFFFF
FFFFFFFFFFFF
ENDCHAR
STARTCHAR ecaron
ENCODING 283
SWIDTH 556 0
DWIDTH 50 0
BBX 44 65 3 -1
BITMAP
003FC01FE000
001FC03FC000
001FE03FC000
000FE07F8000
0007F0FF0000
0007F8FE0000
0003F9FC0000
0001FFFC0000
0000FFF80000
0000FFF00000
00007FE00000
00003FC00000
000000000000
000000000000
000000000000
000000000000
00007FE00000
0003FFFE0000
001FFFFF8000
003FFFFFC000
00FFFFFFF000
01FFFFFFF800
03FFFFFFFC00
07FFFFFFFE00
07FFC01FFF00
0FFE0007FF00
1FF80001FF80
1FF00000FF80
3FE000007FC0
3FC000003FC0
7F8000001FE0
7F8000001FE0
7F0000001FE0
7F0000000FE0
FF0000000FE0
FFFFFFFFFFF0
FFFFFFFFFFF0
FFFFFFFFFFF0
FFFFFFFFFFF0
FFFFFFFFFFF0
FFFFFFFFFFF0
FFFFFFFFFFF0
FFFFFFFFFFF0
FF0000000000
FF0000000000
FF0000000000
FF8000000000
7F8000000000
7F8000000000
7FC000000000
7FC000000F00
3FE000001FF0
3FF000003FE0
1FF800007FE0
1FFC0000FFC0
0FFF0003FFC0
0FFFE00FFF80
07FFFFFFFF00
03FFFFFFFF00
01FFFFFFFE00
00FFFFFFFC00
003FFFFFF000
001FFFFFE000
0003FFFF0000
00007FF00000
ENDCHAR
STARTCHAR Gcircumflex
ENCODING 284
SWIDTH 777 0
DWIDTH 70 0
BBX 60 81 4 -1
BITMAP
0000000FF0000000
0000001FF8000000
0000003FFC000000
0000003FFE000000
0000007FFF000000
000000FE7F000000
000001FE3F800000
000001FC3FC00000
000003F81FE00000
000007F80FF00000
000007F00FF00000
00000FF007F80000
0000000000000000
0000000000000000
0000003FFE000000
000007FFFFE00000
00001FFFFFFC0000
0000FFFFFFFF0000
0003FFFFFFFF8000
0007FFFFFFFFE000
001FFFFFFFFFF000
003FFFFFFFFFF800
007FFFE007FFFC00
00FFFE00007FFE00
01FFF800001FFE00
01FFE000000FFF00
03FF80000003FF00
07FF00000001FF80
07FE00000001FF80
0FFC00000000FFC0
0FFC000000007FC0
1FF8000000007FC0
1FF0000000003FE0
3FF0000000003FE0
3FF0000000003F00
3FE0000000001000
3FE0000000000000
7FC0000000000000
7FC0000000000000
7FC0000000000000
7FC0000000000000
FF80000000000000
FF80000000000000
FF80000000000000
FF80000000000000
FF80000000000000
FF80000000000000
FF8000007FFFFFF0
FF8000007FFFFFF0
FF8000007FFFFFF0
FF8000007FFFFFF0
FF8000007FFFFFF0
FF8000007FFFFFF0
FF8000007FFFFFF0
7FC000007FFFFFF0
7FC0000000001FF0
7FC0000000001FF0
7FC0000000001FF0
7FE0000000001FF0
3FE0000000001FF0
3FE0000000001FF0
3FF0000000001FF0
1FF0000000001FF0
1FF8000000001FF0
0FFC000000001FF0
0FFC000000001FF0
07FE000000001FF0
07FF000000003FF0
03FFC0000000FFF0
01FFE0000003FFF0
00FFF800000FFFF0
00FFFF00003FFFE0
007FFFE003FFFFC0
001FFFFFFFFFFF00
000FFFFFFFFFFE00
0007FFFFFFFFF800
0001FFFFFFFFE000
00007FFFFFFF8000
00001FFFFFFE0000
000003FFFFF00000
0000001FFE000000
ENDCHAR
STARTCHAR gcircumflex
ENCODING 285
SWIDTH 556 0
DWIDTH 50 0
BBX 41 83 3 -19
BITMAP
0001FF000000
0001FF800000
0003FFC00000
0007FFE00000
0007FFE00000
000FE7F00000
001FC3F80000
003FC3FC0000
003F81FE0000
007F80FE0000
00FF00FF0000
00FF007F8000
000000000000
000000000000
000000000000
000000000000
0001FF000000
000FFFE07F80
003FFFF07F80
007FFFFC7F80
01FFFFFE7F80
03FFFFFF7F80
07FFFFFFFF80
07FFFFFFFF80
0FFF80FFFF80
1FFE003FFF80
1FF8000FFF80
3FF00007FF80
3FE00003FF80
3FC00003FF80
7FC00001FF80
7F800001FF80
7F800000FF80
7F800000FF80
FF800000FF80
FF0000007F80
FF0000007F80
FF0000007F80
FF0000007F80
FF0000007F80
FF0000007F80
FF0000007F80
FF0000007F80
FF0000007F80
FF0000007F80
FF800000FF80
7F800000FF80
7F800000FF80
7F800000FF80
7FC00001FF80
3FC00001FF80
3FE00003FF80
1FF00007FF80
1FF8000FFF80
0FFE003FFF80
0FFF80FFFF80
07FFFFFFFF80
03FFFFFFFF80
03FFFFFFFF80
01FFFFFF7F80
007FFFFC7F80
003FFFF87F80
000FFFE07F80
0001FF007F80
000000007F80
000000007F80
000000007F80
00000000FF00
78000000FF00
7F800000FF00
7F800001FF00
7FC00003FE00
7FE00007FE00
3FF0001FFE00
3FFE007FFC00
1FFFFFFFF800
1FFFFFFFF000
0FFFFFFFF000
07FFFFFFC000
03FFFFFF8000
00FFFFFE0000
003FFFF80000
0003FFC00000
ENDCHAR
STARTCHAR Gbreve
ENCODING 286
SWIDTH 777 0
DWIDTH 70 0
BBX 60 81 4 -1
BITMAP
00001F8001F80000
00001F8001F80000
00001FC003F80000
00000FC003F00000
00000FE007F00000
000007F81FF00000
000007FFFFE00000
000003FFFFC00000
000001FFFFC00000
000000FFFF000000
0000007FFE000000
0000000FF0000000
0000000000000000
0000000000000000
0000003FFE000000
000007FFFFE00000
00001FFFFFFC0000
0000FFFFFFFF0000
0003FFFFFFFF8000
0007FFFFFFFFE000
001FFFFFFFFFF000
003FFFFFFFFFF800
007FFFE007FFFC00
00FFFE00007FFE00
01FFF800001FFE00
01FFE000000FFF00
03FF80000003FF00
07FF00000001FF80
07FE00000001FF80
0FFC00000000FFC0
0FFC000000007FC0
1FF8000000007FC0
1FF0000000003FE0
3FF0000000003FE0
3FF0000000003F00
3FE0000000001000
3FE0000000000000
7FC0000000000000
7FC0000000000000
7FC0000000000000
7FC0000000000000
FF80000000000000
FF80000000000000
FF80000000000000
FF80000000000000
FF80000000000000
FF80000000000000
FF8000007FFFFFF0
FF8000007FFFFFF0
FF8000007FFFFFF0
FF8000007FFFFFF0
FF8000007FFFFFF0
FF8000007FFFFFF0
FF8000007FFFFFF0
7FC000007FFFFFF0
7FC0000000001FF0
7FC0000000001FF0
7FC0000000001FF0
7FE0000000001FF0
3FE0000000001FF0
3FE0000000001FF0
3FF0000000001FF0
1FF0000000001FF0
1FF8000000001FF0
0FFC000000001FF0
0FFC000000001FF0
07FE000000001FF0
07FF000000003FF0
03FFC0000000FFF0
01FFE0000003FFF0
00FFF800000FFFF0
00FFFF00003FFFE0
007FFFE003FFFFC0
001FFFFFFFFFFF00
000FFFFFFFFFFE00
0007FFFFFFFFF800
0001FFFFFFFFE000
00007FFFFFFF8000
00001FFFFFFE0000
000003FFFFF00000
0000001FFE000000
ENDCHAR
STARTCHAR gbreve
ENCODING 287
SWIDTH 556 0
DWIDTH 50 0
BBX 41 83 3 -19
BITMAP
00FC000FC000
00FC000FC000
00FE001FC000
007E001F8000
007F003F8000
003FC0FF8000
003FFFFF0000
001FFFFE0000
000FFFFE0000
0007FFF80000
0003FFF00000
00007F800000
000000000000
000000000000
000000000000
000000000000
0001FF000000
000FFFE07F80
003FFFF07F80
007FFFFC7F80
01FFFFFE7F80
03FFFFFF7F80
07FFFFFFFF80
07FFFFFFFF80
0FFF80FFFF80
1FFE003FFF80
1FF8000FFF80
3FF00007FF80
3FE00003FF80
3FC00003FF80
7FC00001FF80
7F800001FF80
7F800000FF80
7F800000FF80
FF800000FF80
FF0000007F80
FF0000007F80
FF0000007F80
FF0000007F80
FF0000007F80
FF0000007F80
FF0000007F80
FF0000007F80
FF0000007F80
FF0000007F80
FF800000FF80
7F800000FF80
7F800000FF80
7F800000FF80
7FC00001FF80
3FC00001FF80
3FE00003FF80
1FF00007FF80
1FF8000FFF80
0FFE003FFF80
0FFF80FFFF80
07FFFFFFFF80
03FFFFFFFF80
03FFFFFFFF80
01FFFFFF7F80
007FFFFC7F80
003FFFF87F80
000FFFE07F80
0001FF007F80
000000007F80
000000007F80
000000007F80
00000000FF00
78000000FF00
7F800000FF00
7F800001FF00
7FC00003FE00
7FE00007FE00
3FF0001FFE00
3FFE007FFC00
1FFFFFFFF800
1FFFFFFFF000
0FFFFFFFF000
07FFFFFFC000
03FFFFFF8000
00FFFFFE0000
003FFFF80000
0003FFC00000
ENDCHAR
STARTCHAR Gdotaccent
ENCODING 288
SWIDTH 777 0
DWIDTH 70 0
BBX 60 77 4 -1
BITMAP
0000000FF0000000
0000000FF0000000
0000000FF0000000
0000000FF0000000
0000000FF0000000
0000000FF0000000
0000000FF0000000
0000000FF0000000
0000000000000000
0000000000000000
0000003FFE000000
000007FFFFE00000
00001FFFFFFC0000
0000FFFFFFFF0000
0003FFFFFFFF8000
0007FFFFFFFFE000
001FFFFFFFFFF000
003FFFFFFFFFF800
007FFFE007FFFC00
00FFFE00007FFE00
01FFF800001FFE00
01FFE000000FFF00
03FF80000003FF00
07FF00000001FF80
07FE00000001FF80
0FFC00000000FFC0
0FFC000000007FC0
1FF8000000007FC0
1FF0000000003FE0
3FF0000000003FE0
3FF0000000003F00
3FE0000000001000
3FE0000000000000
7FC0000000000000
7FC0000000000000
7FC0000000000000
7FC0000000000000
FF80000000000000
FF80000000000000
FF80000000000000
FF80000000000000
FF80000000000000
FF80000000000000
FF8000007FFFFFF0
FF8000007FFFFFF0
FF8000007FFFFFF0
FF8000007FFFFFF0
FF8000007FFFFFF0
FF8000007FFFFFF0
FF8000007FFFFFF0
7FC000007FFFFFF0
7FC0000000001FF0
7FC0000000001FF0
7FC0000000001FF0
7FE0000000001FF0
3FE0000000001FF0
3FE0000000001FF0
3FF0000000001FF0
1FF0000000001FF0
1FF8000000001FF0
0FFC000000001FF0
0FFC000000001FF0
07FE000000001FF0
07FF000000003FF0
03FFC0000000FFF0
01FFE0000003FFF0
00FFF800000FFFF0
00FFFF00003FFFE0
007FFFE003FFFFC0
001FFFFFFFFFFF00
000FFFFFFFFFFE00
0007FFFFFFFFF800
0001FFFFFFFFE000
00007FFFFFFF8000
00001FFFFFFE0000
000003FFFFF00000
0000001FFE000000
ENDCHAR
ENDFONT
